<?xml version="1.0" encoding="UTF-8"?>
<!DOCTYPE svg PUBLIC "-//W3C//DTD SVG 1.1//EN" "http://www.w3.org/Graphics/SVG/1.1/DTD/svg11.dtd">
<!-- Creator: CorelDRAW -->
<svg xmlns="http://www.w3.org/2000/svg" xml:space="preserve" width="297mm" height="210mm" style="shape-rendering:geometricPrecision; text-rendering:geometricPrecision; image-rendering:optimizeQuality; fill-rule:evenodd; clip-rule:evenodd"
viewBox="0 0 297 210"
 xmlns:xlink="http://www.w3.org/1999/xlink">
 <defs>
  <style type="text/css">
   <![CDATA[
    .str1 {stroke:#FFF212;stroke-width:0.0762}
    .str0 {stroke:#010080;stroke-width:0.5}
    .fil0 {fill:none}
    .fil5 {fill:#ED3237}
    .fil3 {fill:#FFF212}
    .fil2 {fill:#010080}
    .fil1 {fill:#373435;fill-rule:nonzero}
    .fil4 {fill:#010080;fill-rule:nonzero}
   ]]>
  </style>
 </defs>
 <g id="Capa_x0020_1">
  <metadata id="CorelCorpID_0Corel-Layer"/>
  <rect class="fil0 str0" x="-0.103545" y="30.8355" width="288.439" height="115.375"/>
  <g id="_846707896">
   <path id="_846699760" class="fil1" d="M97.224 97.8997l1.7626 0.5581c-0.2704,0.9841 -0.7196,1.7144 -1.3492,2.1929 -0.6272,0.4761 -1.4268,0.7153 -2.394,0.7153 -1.1961,0 -2.1802,-0.4092 -2.9502,-1.2253 -0.7703,-0.8184 -1.156,-1.9368 -1.156,-3.3532 0,-1.5003 0.388,-2.6648 1.1622,-3.4955 0.7742,-0.8292 1.7922,-1.2445 3.0551,-1.2445 1.1015,0 1.9976,0.3254 2.686,0.978 0.4111,0.3838 0.7176,0.938 0.923,1.6595l-1.8022 0.4303c-0.105,-0.468 -0.3273,-0.8372 -0.6672,-1.108 -0.3381,-0.2707 -0.7492,-0.4049 -1.2319,-0.4049 -0.6672,0 -1.2106,0.2392 -1.626,0.7195 -0.4157,0.4785 -0.6234,1.2549 -0.6234,2.3295 0,1.1391 0.2034,1.9513 0.6149,2.434 0.4092,0.4846 0.9423,0.7257 1.5968,0.7257 0.4846,0 0.9,-0.1531 1.2484,-0.4615 0.3484,-0.3065 0.598,-0.7911 0.7511,-1.4499zm2.9125 -0.0442c0,-0.5727 0.1426,-1.1288 0.4242,-1.666 0.283,-0.535 0.6838,-0.9461 1.2022,-1.2272 0.518,-0.2835 1.0972,-0.4262 1.7371,-0.4262 0.9865,0 1.7964,0.3212 2.4279,0.963 0.6315,0.6423 0.9465,1.4522 0.9465,2.4322 0,0.986 -0.3192,1.8044 -0.9549,2.4548 -0.6377,0.6507 -1.4395,0.9737 -2.4068,0.9737 -0.5999,0 -1.1687,-0.1342 -1.7121,-0.4049 -0.5435,-0.2708 -0.9569,-0.6673 -1.2399,-1.1899 -0.2816,-0.5223 -0.4242,-1.158 -0.4242,-1.9095zm1.771 0.0923c0,0.6484 0.1534,1.1438 0.4619,1.488 0.3061,0.3442 0.6861,0.5161 1.1372,0.5161 0.4511,0 0.8288,-0.1719 1.133,-0.5161 0.3065,-0.3442 0.4595,-0.8438 0.4595,-1.5003 0,-0.638 -0.153,-1.1311 -0.4595,-1.4753 -0.3042,-0.3442 -0.6819,-0.5161 -1.133,-0.5161 -0.4511,0 -0.8311,0.1719 -1.1372,0.5161 -0.3085,0.3442 -0.4619,0.8415 -0.4619,1.4876zm7.9736 3.2651l-1.7268 0 0 -6.5279 1.6029 0 0 0.9276c0.275,-0.4384 0.5227,-0.728 0.7408,-0.8665 0.2203,-0.1384 0.468,-0.21 0.7468,-0.21 0.3946,0 0.7723,0.1093 1.1372,0.3273l-0.5349 1.5045c-0.2896,-0.1865 -0.5604,-0.2811 -0.81,-0.2811 -0.2434,0 -0.4468,0.065 -0.6145,0.1992 -0.17,0.1323 -0.3004,0.3734 -0.3969,0.7219 -0.0965,0.3484 -0.1446,1.0787 -0.1446,2.1886l0 2.0164zm4.8996 0l-1.7268 0 0 -6.5279 1.603 0 0 0.9276c0.2749,-0.4384 0.5226,-0.728 0.7407,-0.8665 0.2203,-0.1384 0.468,-0.21 0.7468,-0.21 0.3946,0 0.7723,0.1093 1.1372,0.3273l-0.5349 1.5045c-0.2896,-0.1865 -0.5604,-0.2811 -0.8099,-0.2811 -0.2435,0 -0.4469,0.065 -0.6146,0.1992 -0.17,0.1323 -0.3004,0.3734 -0.3969,0.7219 -0.0965,0.3484 -0.1446,1.0787 -0.1446,2.1886l0 2.0164zm7.0252 -2.0771l1.7226 0.2873c-0.2223,0.6315 -0.5708,1.1122 -1.0492,1.4414 -0.4761,0.3315 -1.0741,0.4953 -1.7918,0.4953 -1.1353,0 -1.9744,-0.3692 -2.5202,-1.1122 -0.4299,-0.5938 -0.6461,-1.3449 -0.6461,-2.2494 0,-1.0826 0.2831,-1.9303 0.8496,-2.5429 0.5646,-0.6126 1.2799,-0.9192 2.1444,-0.9192 0.9715,0 1.7376,0.3212 2.2999,0.963 0.5603,0.6423 0.8287,1.6241 0.8057,2.9483l-4.3285 0c0.0123,0.5119 0.1507,0.9107 0.4172,1.1937 0.2665,0.2854 0.6004,0.4281 0.9969,0.4281 0.2707,0 0.4972,-0.0731 0.6818,-0.22 0.1846,-0.1492 0.3254,-0.3861 0.4177,-0.7134zm0.0985 -1.746c-0.0127,-0.5015 -0.1404,-0.8811 -0.3862,-1.1415 -0.2453,-0.26 -0.5453,-0.3903 -0.898,-0.3903 -0.3776,0 -0.688,0.1384 -0.9337,0.4134 -0.2454,0.2727 -0.3673,0.6465 -0.3631,1.1184l2.581 0zm4.415 -0.7134l-1.5676 -0.2831c0.1766,-0.6319 0.4784,-1.0976 0.9088,-1.4018 0.4323,-0.3023 1.0699,-0.4554 1.9179,-0.4554 0.7719,0 1.3449,0.0923 1.7226,0.275 0.3757,0.1823 0.6419,0.4134 0.7953,0.6946 0.1531,0.2811 0.2308,0.7953 0.2308,1.5464l-0.0189 2.0164c0,0.5726 0.0273,0.9968 0.0838,1.2695 0.0547,0.2707 0.1597,0.5646 0.3108,0.8749l-1.7103 0c-0.0442,-0.1154 -0.1007,-0.2853 -0.1657,-0.5099 -0.0273,-0.1027 -0.0485,-0.17 -0.0608,-0.2035 -0.2961,0.2873 -0.6107,0.5015 -0.9464,0.6461 -0.3358,0.1427 -0.6946,0.2142 -1.0765,0.2142 -0.6715,0 -1.2022,-0.1826 -1.5883,-0.5457 -0.3881,-0.365 -0.5811,-0.8265 -0.5811,-1.3849 0,-0.3669 0.088,-0.6965 0.2642,-0.9861 0.1761,-0.2896 0.4238,-0.5099 0.7407,-0.663 0.3169,-0.153 0.7765,-0.2873 1.3745,-0.403 0.8057,-0.1508 1.366,-0.2935 1.6764,-0.4238l0 -0.172c0,-0.3338 -0.0819,-0.5688 -0.2454,-0.7114 -0.1638,-0.1404 -0.4722,-0.2119 -0.9276,-0.2119 -0.3084,0 -0.5476,0.0611 -0.7195,0.1826 -0.1723,0.1196 -0.3108,0.3316 -0.4177,0.6358zm2.3102 1.4018c-0.2204,0.0734 -0.5707,0.1615 -1.0511,0.2642 -0.4784,0.103 -0.7911,0.2034 -0.9403,0.3 -0.2246,0.1619 -0.3377,0.363 -0.3377,0.6088 0,0.2434 0.09,0.4511 0.2708,0.6272 0.1804,0.1762 0.4092,0.2642 0.688,0.2642 0.3127,0 0.6088,-0.1027 0.8919,-0.3061 0.21,-0.1554 0.3461,-0.3461 0.4111,-0.573 0.0461,-0.147 0.0673,-0.4281 0.0673,-0.8411l0 -0.3442zm2.7929 1.2714l1.7333 -0.2642c0.0734,0.3357 0.2223,0.5915 0.4492,0.7657 0.2242,0.1742 0.5392,0.2623 0.9461,0.2623 0.4468,0 0.7826,-0.0819 1.0072,-0.2477 0.153,-0.113 0.2288,-0.2684 0.2288,-0.4596 0,-0.1319 -0.0419,-0.2411 -0.1238,-0.3272 -0.0862,-0.082 -0.2792,-0.1573 -0.5773,-0.2266 -1.393,-0.3065 -2.2763,-0.5876 -2.6498,-0.8414 -0.5165,-0.3523 -0.7745,-0.8434 -0.7745,-1.4711 0,-0.5642 0.2226,-1.0407 0.6695,-1.4245 0.4469,-0.3861 1.1392,-0.5792 2.0772,-0.5792 0.8937,0 1.5591,0.147 1.9933,0.4365 0.4346,0.2916 0.7326,0.7219 0.8961,1.2926l-1.6284 0.3c-0.0692,-0.2538 -0.2015,-0.4492 -0.3965,-0.5834 -0.195,-0.1361 -0.4723,-0.2034 -0.833,-0.2034 -0.4553,0 -0.7807,0.063 -0.9776,0.1907 -0.1304,0.0904 -0.1954,0.2081 -0.1954,0.3507 0,0.1239 0.0566,0.2266 0.1723,0.3127 0.155,0.1154 0.6923,0.2769 1.6133,0.4865 0.9192,0.2077 1.5611,0.4638 1.9264,0.768 0.3608,0.3085 0.5411,0.7365 0.5411,1.2842 0,0.598 -0.2495,1.1141 -0.751,1.5445 -0.4992,0.4299 -1.238,0.6441 -2.2179,0.6441 -0.8896,0 -1.5926,-0.1803 -2.113,-0.5415 -0.5184,-0.3588 -0.856,-0.8495 -1.0156,-1.4687zm10.9114 -0.5415l0 -1.7268 3.3928 0 0 1.7268 -3.3928 0zm7.904 2.4048l0 -9.0123 3.8316 0c0.963,0 1.6618,0.0819 2.0983,0.2434 0.4365,0.1615 0.7869,0.4492 1.0492,0.8626 0.2622,0.4154 0.3922,0.8876 0.3922,1.4207 0,0.6753 -0.1992,1.2357 -0.5957,1.6764 -0.3969,0.4384 -0.9926,0.7176 -1.7837,0.8307 0.3946,0.2311 0.7196,0.4826 0.9757,0.7576 0.2561,0.275 0.5999,0.7619 1.0345,1.4626l1.1015 1.7583 -2.176 0 -1.3157 -1.9617c-0.4676,-0.7011 -0.7868,-1.1415 -0.9587,-1.3242 -0.1719,-0.1827 -0.3546,-0.3065 -0.5477,-0.3757 -0.1931,-0.0669 -0.4973,-0.1008 -0.9168,-0.1008l-0.3673 0 0 3.7624 -1.8214 0zm1.8214 -5.2015l1.3449 0c0.873,0 1.4187,-0.0358 1.6368,-0.1092 0.2161,-0.0735 0.3861,-0.2015 0.5099,-0.3819 0.1216,-0.1804 0.1846,-0.405 0.1846,-0.6757 0,-0.3042 -0.0819,-0.5477 -0.2434,-0.7346 -0.1615,-0.1865 -0.3904,-0.3042 -0.6861,-0.3546 -0.1469,-0.0188 -0.5896,-0.0292 -1.3284,-0.0292l-1.4183 0 0 2.2852zm11.033 3.1244l1.7225 0.2873c-0.2223,0.6315 -0.5707,1.1122 -1.0491,1.4414 -0.4762,0.3315 -1.0742,0.4953 -1.7918,0.4953 -1.1353,0 -1.9745,-0.3692 -2.5202,-1.1122 -0.43,-0.5938 -0.6461,-1.3449 -0.6461,-2.2494 0,-1.0826 0.283,-1.9303 0.8495,-2.5429 0.5646,-0.6126 1.2799,-0.9192 2.1445,-0.9192 0.9714,0 1.7375,0.3212 2.2998,0.963 0.5603,0.6423 0.8288,1.6241 0.8057,2.9483l-4.3285 0c0.0123,0.5119 0.1508,0.9107 0.4173,1.1937 0.2665,0.2854 0.6003,0.4281 0.9968,0.4281 0.2708,0 0.4973,-0.0731 0.6819,-0.22 0.1846,-0.1492 0.3254,-0.3861 0.4177,-0.7134zm0.0984 -1.746c-0.0127,-0.5015 -0.1404,-0.8811 -0.3861,-1.1415 -0.2454,-0.26 -0.5454,-0.3903 -0.898,-0.3903 -0.3777,0 -0.688,0.1384 -0.9338,0.4134 -0.2454,0.2727 -0.3673,0.6465 -0.363,1.1184l2.5809 0zm6.1168 -2.7048l0 1.3768 -1.1791 0 0 2.6309c0,0.5331 0.0104,0.8438 0.0335,0.9319 0.023,0.0881 0.0734,0.1592 0.153,0.218 0.0796,0.057 0.1785,0.0862 0.2915,0.0862 0.1619,0 0.3927,-0.0565 0.6969,-0.1658l0.1469 1.3388c-0.403,0.1719 -0.8561,0.258 -1.366,0.258 -0.3108,0 -0.5919,-0.0523 -0.8415,-0.1553 -0.2496,-0.105 -0.4323,-0.2412 -0.5496,-0.4069 -0.1177,-0.1658 -0.1973,-0.3904 -0.2434,-0.6738 -0.0358,-0.1992 -0.0546,-0.6061 -0.0546,-1.2168l0 -2.8452 -0.7934 0 0 -1.3768 0.7934 0 0 -1.2988 1.7333 -1.0072 0 2.306 1.1791 0zm4.9793 4.4508l1.7225 0.2873c-0.2223,0.6315 -0.5707,1.1122 -1.0491,1.4414 -0.4762,0.3315 -1.0742,0.4953 -1.7918,0.4953 -1.1353,0 -1.9745,-0.3692 -2.5202,-1.1122 -0.43,-0.5938 -0.6461,-1.3449 -0.6461,-2.2494 0,-1.0826 0.283,-1.9303 0.8495,-2.5429 0.5646,-0.6126 1.2799,-0.9192 2.1445,-0.9192 0.9714,0 1.7375,0.3212 2.2998,0.963 0.5603,0.6423 0.8288,1.6241 0.8057,2.9483l-4.3285 0c0.0123,0.5119 0.1508,0.9107 0.4173,1.1937 0.2665,0.2854 0.6003,0.4281 0.9968,0.4281 0.2708,0 0.4973,-0.0731 0.6819,-0.22 0.1846,-0.1492 0.3254,-0.3861 0.4177,-0.7134zm0.0984 -1.746c-0.0127,-0.5015 -0.1404,-0.8811 -0.3861,-1.1415 -0.2454,-0.26 -0.5454,-0.3903 -0.898,-0.3903 -0.3777,0 -0.688,0.1384 -0.9338,0.4134 -0.2454,0.2727 -0.3673,0.6465 -0.363,1.1184l2.5809 0zm9.0628 3.8231l-1.7268 0 0 -3.332c0,-0.705 -0.0377,-1.1603 -0.1112,-1.368 -0.0734,-0.2057 -0.1953,-0.3673 -0.3611,-0.4826 -0.1658,-0.1135 -0.365,-0.1723 -0.598,-0.1723 -0.3,0 -0.5684,0.0819 -0.8057,0.2457 -0.2369,0.1658 -0.4008,0.3819 -0.4888,0.6523 -0.0881,0.2707 -0.1323,0.7703 -0.1323,1.5002l0 2.9567 -1.7268 0 0 -6.5279 1.6029 0 0 0.9591c0.5707,-0.7388 1.2884,-1.108 2.1529,-1.108 0.38,0 0.7304,0.0693 1.0449,0.2058 0.315,0.1384 0.5542,0.3127 0.7158,0.5265 0.1615,0.2142 0.2746,0.4553 0.3376,0.7261 0.065,0.2707 0.0966,0.6569 0.0966,1.1603l0 4.0581zm5.5311 -2.0771l1.7225 0.2873c-0.2223,0.6315 -0.5707,1.1122 -1.0491,1.4414 -0.4762,0.3315 -1.0742,0.4953 -1.7918,0.4953 -1.1353,0 -1.9745,-0.3692 -2.5202,-1.1122 -0.43,-0.5938 -0.6461,-1.3449 -0.6461,-2.2494 0,-1.0826 0.283,-1.9303 0.8495,-2.5429 0.5646,-0.6126 1.2799,-0.9192 2.1445,-0.9192 0.9714,0 1.7375,0.3212 2.2998,0.963 0.5603,0.6423 0.8288,1.6241 0.8057,2.9483l-4.3285 0c0.0123,0.5119 0.1508,0.9107 0.4173,1.1937 0.2665,0.2854 0.6003,0.4281 0.9968,0.4281 0.2708,0 0.4973,-0.0731 0.6819,-0.22 0.1846,-0.1492 0.3254,-0.3861 0.4177,-0.7134zm0.0984 -1.746c-0.0127,-0.5015 -0.1404,-0.8811 -0.3861,-1.1415 -0.2454,-0.26 -0.5454,-0.3903 -0.898,-0.3903 -0.3777,0 -0.688,0.1384 -0.9338,0.4134 -0.2454,0.2727 -0.3673,0.6465 -0.363,1.1184l2.5809 0zm2.516 1.9598l1.7333 -0.2642c0.0734,0.3357 0.2223,0.5915 0.4492,0.7657 0.2242,0.1742 0.5392,0.2623 0.9461,0.2623 0.4468,0 0.7826,-0.0819 1.0072,-0.2477 0.1531,-0.113 0.2288,-0.2684 0.2288,-0.4596 0,-0.1319 -0.0419,-0.2411 -0.1238,-0.3272 -0.0862,-0.082 -0.2792,-0.1573 -0.5773,-0.2266 -1.3929,-0.3065 -2.2763,-0.5876 -2.6498,-0.8414 -0.5165,-0.3523 -0.7745,-0.8434 -0.7745,-1.4711 0,-0.5642 0.2226,-1.0407 0.6695,-1.4245 0.4469,-0.3861 1.1392,-0.5792 2.0772,-0.5792 0.8938,0 1.5591,0.147 1.9933,0.4365 0.4346,0.2916 0.7326,0.7219 0.8961,1.2926l-1.6284 0.3c-0.0692,-0.2538 -0.2015,-0.4492 -0.3965,-0.5834 -0.195,-0.1361 -0.4722,-0.2034 -0.833,-0.2034 -0.4553,0 -0.7807,0.063 -0.9776,0.1907 -0.1304,0.0904 -0.1954,0.2081 -0.1954,0.3507 0,0.1239 0.0566,0.2266 0.1723,0.3127 0.155,0.1154 0.6923,0.2769 1.6134,0.4865 0.9191,0.2077 1.561,0.4638 1.9263,0.768 0.3608,0.3085 0.5412,0.7365 0.5412,1.2842 0,0.598 -0.2496,1.1141 -0.7511,1.5445 -0.4992,0.4299 -1.238,0.6441 -2.2179,0.6441 -0.8896,0 -1.5926,-0.1803 -2.1129,-0.5415 -0.5185,-0.3588 -0.8561,-0.8495 -1.0157,-1.4687zm-111.151 12.6152l1.7625 0.558c-0.2704,0.9841 -0.7196,1.7145 -1.3491,2.1929 -0.6273,0.4761 -1.4268,0.7153 -2.3941,0.7153 -1.196,0 -2.1802,-0.4092 -2.9501,-1.2253 -0.7703,-0.8184 -1.1561,-1.9367 -1.1561,-3.3532 0,-1.5002 0.3881,-2.6647 1.1622,-3.4954 0.7742,-0.8292 1.7922,-1.2446 3.0552,-1.2446 1.1014,0 1.9975,0.3254 2.6859,0.978 0.4111,0.3838 0.7177,0.938 0.923,1.6595l-1.8021 0.4304c-0.105,-0.4681 -0.3273,-0.8373 -0.6673,-1.108 -0.338,-0.2708 -0.7492,-0.405 -1.2318,-0.405 -0.6673,0 -1.2107,0.2392 -1.626,0.7196 -0.4158,0.4784 -0.6235,1.2549 -0.6235,2.3294 0,1.1391 0.2035,1.9514 0.615,2.434 0.4092,0.4846 0.9422,0.7258 1.5968,0.7258 0.4846,0 0.8999,-0.1531 1.2484,-0.4616 0.3484,-0.3065 0.598,-0.791 0.7511,-1.4498zm3.3135 -4.1001l0 -1.5991 1.7268 0 0 1.5991 -1.7268 0zm0 7.4133l0 -6.528 1.7268 0 0 6.528 -1.7268 0zm9.4358 0l-1.7268 0 0 -3.3321c0,-0.7049 -0.0376,-1.1603 -0.1111,-1.3679 -0.0735,-0.2058 -0.1954,-0.3673 -0.3611,-0.4827 -0.1658,-0.1135 -0.365,-0.1723 -0.5981,-0.1723 -0.2999,0 -0.5684,0.0819 -0.8057,0.2458 -0.2369,0.1657 -0.4007,0.3818 -0.4888,0.6522 -0.088,0.2708 -0.1323,0.7703 -0.1323,1.5003l0 2.9567 -1.7268 0 0 -6.528 1.603 0 0 0.9592c0.5707,-0.7388 1.2884,-1.108 2.1529,-1.108 0.38,0 0.7303,0.0692 1.0449,0.2057 0.315,0.1385 0.5542,0.3127 0.7157,0.5265 0.1616,0.2142 0.2746,0.4554 0.3377,0.7261 0.065,0.2708 0.0965,0.6569 0.0965,1.1603l0 4.0582zm4.7443 -6.528l0 1.3768 -1.1792 0 0 2.631c0,0.533 0.0104,0.8438 0.0335,0.9318 0.0231,0.0881 0.0734,0.1592 0.1531,0.2181 0.0796,0.0569 0.1784,0.0861 0.2915,0.0861 0.1619,0 0.3926,-0.0565 0.6968,-0.1657l0.147 1.3387c-0.4031,0.1719 -0.8561,0.2581 -1.3661,0.2581 -0.3107,0 -0.5919,-0.0523 -0.8415,-0.1554 -0.2496,-0.105 -0.4322,-0.2411 -0.5495,-0.4069 -0.1177,-0.1657 -0.1973,-0.3903 -0.2435,-0.6738 -0.0357,-0.1992 -0.0546,-0.6061 -0.0546,-1.2168l0 -2.8452 -0.7934 0 0 -1.3768 0.7934 0 0 -1.2987 1.7333 -1.0073 0 2.306 1.1792 0zm2.4905 1.9914l-1.5675 -0.2831c0.1765,-0.6318 0.4784,-1.0976 0.9087,-1.4018 0.4323,-0.3023 1.07,-0.4553 1.918,-0.4553 0.7718,0 1.3449,0.0923 1.7225,0.275 0.3758,0.1823 0.6419,0.4134 0.7954,0.6945 0.153,0.2812 0.2307,0.7953 0.2307,1.5464l-0.0188 2.0164c0,0.5727 0.0273,0.9969 0.0838,1.2695 0.0546,0.2708 0.1596,0.5646 0.3107,0.875l-1.7102 0c-0.0442,-0.1154 -0.1008,-0.2854 -0.1658,-0.51 -0.0273,-0.1027 -0.0484,-0.17 -0.0607,-0.2034 -0.2962,0.2872 -0.6107,0.5015 -0.9465,0.6461 -0.3357,0.1426 -0.6946,0.2142 -1.0764,0.2142 -0.6715,0 -1.2023,-0.1827 -1.5884,-0.5458 -0.388,-0.3649 -0.5811,-0.8264 -0.5811,-1.3848 0,-0.3669 0.0881,-0.6965 0.2642,-0.9861 0.1762,-0.2896 0.4238,-0.51 0.7407,-0.663 0.3169,-0.1531 0.7765,-0.2873 1.3745,-0.4031 0.8057,-0.1507 1.3661,-0.2934 1.6764,-0.4238l0 -0.1719c0,-0.3338 -0.0819,-0.5688 -0.2453,-0.7115 -0.1639,-0.1404 -0.4723,-0.2119 -0.9276,-0.2119 -0.3085,0 -0.5477,0.0612 -0.7196,0.1827 -0.1723,0.1196 -0.3107,0.3315 -0.4177,0.6357zm2.3102 1.4018c-0.2203,0.0735 -0.5707,0.1615 -1.051,0.2642 -0.4785,0.1031 -0.7911,0.2035 -0.9403,0.3 -0.2246,0.1619 -0.3377,0.363 -0.3377,0.6088 0,0.2434 0.09,0.4511 0.2707,0.6273 0.1804,0.1761 0.4092,0.2642 0.6881,0.2642 0.3126,0 0.6088,-0.1027 0.8918,-0.3062 0.21,-0.1553 0.3461,-0.3461 0.4111,-0.573 0.0462,-0.1469 0.0673,-0.428 0.0673,-0.8411l0 -0.3442zm2.7929 1.2714l1.7333 -0.2642c0.0735,0.3358 0.2223,0.5915 0.4492,0.7657 0.2242,0.1743 0.5392,0.2623 0.9461,0.2623 0.4469,0 0.7826,-0.0819 1.0072,-0.2476 0.1531,-0.1131 0.2289,-0.2685 0.2289,-0.4596 0,-0.1319 -0.042,-0.2412 -0.1239,-0.3273 -0.0861,-0.0819 -0.2792,-0.1573 -0.5772,-0.2265 -1.393,-0.3065 -2.2764,-0.5877 -2.6498,-0.8415 -0.5165,-0.3523 -0.7746,-0.8434 -0.7746,-1.471 0,-0.5642 0.2227,-1.0407 0.6696,-1.4245 0.4469,-0.3862 1.1391,-0.5792 2.0771,-0.5792 0.8938,0 1.5591,0.1469 1.9933,0.4365 0.4346,0.2915 0.7327,0.7219 0.8961,1.2926l-1.6283 0.3c-0.0693,-0.2539 -0.2016,-0.4492 -0.3965,-0.5835 -0.195,-0.1361 -0.4723,-0.2034 -0.833,-0.2034 -0.4554,0 -0.7808,0.0631 -0.9777,0.1907 -0.1303,0.0904 -0.1953,0.2081 -0.1953,0.3508 0,0.1238 0.0565,0.2265 0.1723,0.3127 0.155,0.1153 0.6922,0.2769 1.6133,0.4865 0.9192,0.2076 1.561,0.4638 1.9264,0.768 0.3607,0.3084 0.5411,0.7365 0.5411,1.2841 0,0.598 -0.2496,1.1141 -0.7511,1.5445 -0.4992,0.43 -1.238,0.6442 -2.2179,0.6442 -0.8895,0 -1.5926,-0.1804 -2.1129,-0.5415 -0.5184,-0.3588 -0.8561,-0.8496 -1.0157,-1.4688zm13.1482 1.8634l0 -7.4868 -2.6733 0 0 -1.5256 7.1614 0 0 1.5256 -2.6667 0 0 7.4868 -1.8214 0zm6.6095 0l-1.7268 0 0 -6.528 1.6029 0 0 0.9276c0.275,-0.4384 0.5227,-0.728 0.7407,-0.8664 0.2204,-0.1385 0.4681,-0.21 0.7469,-0.21 0.3946,0 0.7723,0.1092 1.1372,0.3273l-0.5349 1.5045c-0.2896,-0.1866 -0.5604,-0.2812 -0.81,-0.2812 -0.2434,0 -0.4469,0.065 -0.6145,0.1992 -0.17,0.1323 -0.3004,0.3735 -0.3969,0.7219 -0.0966,0.3484 -0.1446,1.0788 -0.1446,2.1887l0 2.0164zm4.5365 -4.5366l-1.5675 -0.2831c0.1765,-0.6318 0.4784,-1.0976 0.9087,-1.4018 0.4323,-0.3023 1.07,-0.4553 1.918,-0.4553 0.7718,0 1.3449,0.0923 1.7225,0.275 0.3758,0.1823 0.6419,0.4134 0.7953,0.6945 0.1531,0.2812 0.2308,0.7953 0.2308,1.5464l-0.0189 2.0164c0,0.5727 0.0274,0.9969 0.0839,1.2695 0.0546,0.2708 0.1596,0.5646 0.3107,0.875l-1.7102 0c-0.0442,-0.1154 -0.1008,-0.2854 -0.1658,-0.51 -0.0273,-0.1027 -0.0484,-0.17 -0.0607,-0.2034 -0.2962,0.2872 -0.6108,0.5015 -0.9465,0.6461 -0.3357,0.1426 -0.6946,0.2142 -1.0765,0.2142 -0.6714,0 -1.2022,-0.1827 -1.5883,-0.5458 -0.388,-0.3649 -0.5811,-0.8264 -0.5811,-1.3848 0,-0.3669 0.0881,-0.6965 0.2642,-0.9861 0.1762,-0.2896 0.4238,-0.51 0.7407,-0.663 0.3169,-0.1531 0.7765,-0.2873 1.3745,-0.4031 0.8057,-0.1507 1.3661,-0.2934 1.6764,-0.4238l0 -0.1719c0,-0.3338 -0.0819,-0.5688 -0.2453,-0.7115 -0.1639,-0.1404 -0.4723,-0.2119 -0.9276,-0.2119 -0.3085,0 -0.5477,0.0612 -0.7196,0.1827 -0.1723,0.1196 -0.3108,0.3315 -0.4177,0.6357zm2.3102 1.4018c-0.2203,0.0735 -0.5707,0.1615 -1.051,0.2642 -0.4785,0.1031 -0.7911,0.2035 -0.9403,0.3 -0.2246,0.1619 -0.3377,0.363 -0.3377,0.6088 0,0.2434 0.09,0.4511 0.2707,0.6273 0.1804,0.1761 0.4092,0.2642 0.6881,0.2642 0.3126,0 0.6088,-0.1027 0.8918,-0.3062 0.21,-0.1553 0.3461,-0.3461 0.4111,-0.573 0.0462,-0.1469 0.0673,-0.428 0.0673,-0.8411l0 -0.3442zm9.3397 3.1348l-1.7268 0 0 -3.3321c0,-0.7049 -0.0377,-1.1603 -0.1112,-1.3679 -0.0734,-0.2058 -0.1953,-0.3673 -0.3611,-0.4827 -0.1657,-0.1135 -0.3649,-0.1723 -0.598,-0.1723 -0.3,0 -0.5684,0.0819 -0.8057,0.2458 -0.2369,0.1657 -0.4007,0.3818 -0.4888,0.6522 -0.0881,0.2708 -0.1323,0.7703 -0.1323,1.5003l0 2.9567 -1.7268 0 0 -6.528 1.6029 0 0 0.9592c0.5708,-0.7388 1.2884,-1.108 2.153,-1.108 0.3799,0 0.7303,0.0692 1.0449,0.2057 0.3149,0.1385 0.5542,0.3127 0.7157,0.5265 0.1615,0.2142 0.2746,0.4554 0.3376,0.7261 0.065,0.2708 0.0966,0.6569 0.0966,1.1603l0 4.0582zm1.1434 -1.8634l1.7333 -0.2642c0.0734,0.3358 0.2223,0.5915 0.4492,0.7657 0.2242,0.1743 0.5392,0.2623 0.9461,0.2623 0.4468,0 0.7826,-0.0819 1.0072,-0.2476 0.153,-0.1131 0.2288,-0.2685 0.2288,-0.4596 0,-0.1319 -0.0419,-0.2412 -0.1238,-0.3273 -0.0862,-0.0819 -0.2792,-0.1573 -0.5773,-0.2265 -1.393,-0.3065 -2.2764,-0.5877 -2.6498,-0.8415 -0.5165,-0.3523 -0.7745,-0.8434 -0.7745,-1.471 0,-0.5642 0.2226,-1.0407 0.6695,-1.4245 0.4469,-0.3862 1.1392,-0.5792 2.0772,-0.5792 0.8937,0 1.5591,0.1469 1.9933,0.4365 0.4346,0.2915 0.7326,0.7219 0.8961,1.2926l-1.6284 0.3c-0.0692,-0.2539 -0.2015,-0.4492 -0.3965,-0.5835 -0.195,-0.1361 -0.4723,-0.2034 -0.833,-0.2034 -0.4553,0 -0.7807,0.0631 -0.9776,0.1907 -0.1304,0.0904 -0.1954,0.2081 -0.1954,0.3508 0,0.1238 0.0566,0.2265 0.1723,0.3127 0.155,0.1153 0.6923,0.2769 1.6133,0.4865 0.9192,0.2076 1.5611,0.4638 1.9264,0.768 0.3608,0.3084 0.5411,0.7365 0.5411,1.2841 0,0.598 -0.2495,1.1141 -0.751,1.5445 -0.4992,0.43 -1.238,0.6442 -2.2179,0.6442 -0.8896,0 -1.5926,-0.1804 -2.113,-0.5415 -0.5184,-0.3588 -0.856,-0.8496 -1.0156,-1.4688zm7.5605 -4.6646l1.6114 0 0 0.9592c0.2077,-0.3296 0.4911,-0.5961 0.8476,-0.7996 0.3569,-0.2057 0.7534,-0.3084 1.1876,-0.3084 0.7577,0 1.4019,0.298 1.9284,0.8918 0.5288,0.5938 0.7933,1.4226 0.7933,2.4845 0,1.0887 -0.2665,1.9367 -0.7976,2.5409 -0.533,0.6042 -1.1791,0.9065 -1.9367,0.9065 -0.3608,0 -0.6881,-0.0716 -0.9819,-0.2142 -0.2915,-0.1446 -0.5999,-0.39 -0.9253,-0.7384l0 3.2901 -1.7268 0 0 -9.0124zm1.7099 3.154c0,0.7322 0.145,1.2757 0.4365,1.6241 0.2896,0.3504 0.6442,0.5265 1.0637,0.5265 0.4008,0 0.7346,-0.1615 1.0011,-0.4827 0.2665,-0.3207 0.4008,-0.8495 0.4008,-1.5821 0,-0.6861 -0.1385,-1.1938 -0.4135,-1.5253 -0.275,-0.3315 -0.6149,-0.4973 -1.0199,-0.4973 -0.4215,0 -0.7719,0.1616 -1.0511,0.4888 -0.2792,0.3254 -0.4176,0.808 -0.4176,1.448zm5.6295 0.0165c0,-0.5726 0.1427,-1.1287 0.4242,-1.666 0.2831,-0.5349 0.6838,-0.9461 1.2022,-1.2272 0.5181,-0.2834 1.0973,-0.4261 1.7372,-0.4261 0.9865,0 1.7964,0.3211 2.4279,0.963 0.6315,0.6422 0.9465,1.4522 0.9465,2.4321 0,0.9861 -0.3192,1.8045 -0.955,2.4548 -0.6376,0.6507 -1.4395,0.9738 -2.4067,0.9738 -0.6,0 -1.1688,-0.1342 -1.7122,-0.405 -0.5434,-0.2707 -0.9568,-0.6672 -1.2399,-1.1899 -0.2815,-0.5223 -0.4242,-1.158 -0.4242,-1.9095zm1.771 0.0923c0,0.6484 0.1535,1.1438 0.4619,1.488 0.3062,0.3442 0.6861,0.5161 1.1372,0.5161 0.4512,0 0.8288,-0.1719 1.133,-0.5161 0.3065,-0.3442 0.4596,-0.8438 0.4596,-1.5003 0,-0.638 -0.1531,-1.131 -0.4596,-1.4752 -0.3042,-0.3442 -0.6818,-0.5162 -1.133,-0.5162 -0.4511,0 -0.831,0.172 -1.1372,0.5162 -0.3084,0.3442 -0.4619,0.8414 -0.4619,1.4875zm7.9736 3.2652l-1.7267 0 0 -6.528 1.6029 0 0 0.9276c0.275,-0.4384 0.5227,-0.728 0.7407,-0.8664 0.2204,-0.1385 0.4681,-0.21 0.7469,-0.21 0.3946,0 0.7722,0.1092 1.1372,0.3273l-0.535 1.5045c-0.2896,-0.1866 -0.5603,-0.2812 -0.8099,-0.2812 -0.2434,0 -0.4469,0.065 -0.6146,0.1992 -0.1699,0.1323 -0.3003,0.3735 -0.3969,0.7219 -0.0965,0.3484 -0.1446,1.0788 -0.1446,2.1887l0 2.0164zm6.2384 -6.528l0 1.3768 -1.1791 0 0 2.631c0,0.533 0.0103,0.8438 0.0334,0.9318 0.0231,0.0881 0.0735,0.1592 0.1531,0.2181 0.0796,0.0569 0.1784,0.0861 0.2915,0.0861 0.1619,0 0.3927,-0.0565 0.6969,-0.1657l0.1469 1.3387c-0.4031,0.1719 -0.8561,0.2581 -1.3661,0.2581 -0.3107,0 -0.5918,-0.0523 -0.8414,-0.1554 -0.2496,-0.105 -0.4323,-0.2411 -0.5496,-0.4069 -0.1177,-0.1657 -0.1973,-0.3903 -0.2435,-0.6738 -0.0357,-0.1992 -0.0546,-0.6061 -0.0546,-1.2168l0 -2.8452 -0.7934 0 0 -1.3768 0.7934 0 0 -1.2987 1.7334 -1.0073 0 2.306 1.1791 0zm2.4906 1.9914l-1.5676 -0.2831c0.1765,-0.6318 0.4784,-1.0976 0.9088,-1.4018 0.4322,-0.3023 1.0699,-0.4553 1.9179,-0.4553 0.7719,0 1.3449,0.0923 1.7226,0.275 0.3757,0.1823 0.6418,0.4134 0.7953,0.6945 0.153,0.2812 0.2307,0.7953 0.2307,1.5464l-0.0188 2.0164c0,0.5727 0.0273,0.9969 0.0838,1.2695 0.0546,0.2708 0.1596,0.5646 0.3108,0.875l-1.7103 0c-0.0442,-0.1154 -0.1007,-0.2854 -0.1657,-0.51 -0.0273,-0.1027 -0.0485,-0.17 -0.0608,-0.2034 -0.2961,0.2872 -0.6107,0.5015 -0.9465,0.6461 -0.3357,0.1426 -0.6945,0.2142 -1.0764,0.2142 -0.6715,0 -1.2022,-0.1827 -1.5884,-0.5458 -0.388,-0.3649 -0.5811,-0.8264 -0.5811,-1.3848 0,-0.3669 0.0881,-0.6965 0.2642,-0.9861 0.1762,-0.2896 0.4239,-0.51 0.7408,-0.663 0.3169,-0.1531 0.7764,-0.2873 1.3745,-0.4031 0.8057,-0.1507 1.366,-0.2934 1.6764,-0.4238l0 -0.1719c0,-0.3338 -0.0819,-0.5688 -0.2454,-0.7115 -0.1638,-0.1404 -0.4723,-0.2119 -0.9276,-0.2119 -0.3085,0 -0.5477,0.0612 -0.7196,0.1827 -0.1723,0.1196 -0.3107,0.3315 -0.4176,0.6357zm2.3102 1.4018c-0.2204,0.0735 -0.5708,0.1615 -1.0511,0.2642 -0.4784,0.1031 -0.7911,0.2035 -0.9403,0.3 -0.2246,0.1619 -0.3377,0.363 -0.3377,0.6088 0,0.2434 0.09,0.4511 0.2708,0.6273 0.1803,0.1761 0.4092,0.2642 0.688,0.2642 0.3127,0 0.6088,-0.1027 0.8918,-0.3062 0.21,-0.1553 0.3462,-0.3461 0.4112,-0.573 0.0461,-0.1469 0.0673,-0.428 0.0673,-0.8411l0 -0.3442zm9.3881 3.1348l-1.6034 0 0 -0.9588c-0.2665,0.3734 -0.5811,0.6503 -0.9441,0.833 -0.3631,0.1823 -0.728,0.2727 -1.0976,0.2727 -0.7511,0 -1.393,-0.3023 -1.9283,-0.9065 -0.5327,-0.6042 -0.8015,-1.448 -0.8015,-2.5286 0,-1.1076 0.2604,-1.9491 0.7807,-2.5241 0.5203,-0.5749 1.1791,-0.8645 1.9745,-0.8645 0.728,0 1.3595,0.3042 1.8925,0.9107l0 -3.2463 1.7272 0 0 9.0124zm-4.61 -3.4055c0,0.6964 0.0965,1.2003 0.2895,1.5129 0.2769,0.4488 0.6673,0.6757 1.1665,0.6757 0.3988,0 0.7365,-0.17 1.0157,-0.508 0.2769,-0.3377 0.4176,-0.8434 0.4176,-1.5149 0,-0.7492 -0.1365,-1.2906 -0.4049,-1.6199 -0.2708,-0.3295 -0.6169,-0.4953 -1.0411,-0.4953 -0.4092,0 -0.7511,0.1638 -1.028,0.4892 -0.2769,0.325 -0.4153,0.8119 -0.4153,1.4603z"/>
   <path id="_846698896" class="fil1" d="M188.991 111.921c0,-0.5726 0.1426,-1.1287 0.4242,-1.666 0.283,-0.5349 0.6838,-0.9461 1.2022,-1.2272 0.518,-0.2834 1.0972,-0.4261 1.7371,-0.4261 0.9865,0 1.7964,0.3211 2.4279,0.963 0.6315,0.6422 0.9465,1.4522 0.9465,2.4321 0,0.9861 -0.3192,1.8045 -0.9549,2.4548 -0.6377,0.6507 -1.4395,0.9738 -2.4068,0.9738 -0.5999,0 -1.1687,-0.1342 -1.7121,-0.405 -0.5435,-0.2707 -0.9569,-0.6672 -1.2399,-1.1899 -0.2816,-0.5223 -0.4242,-1.158 -0.4242,-1.9095zm1.771 0.0923c0,0.6484 0.1534,1.1438 0.4619,1.488 0.3061,0.3442 0.6861,0.5161 1.1372,0.5161 0.4511,0 0.8288,-0.1719 1.133,-0.5161 0.3065,-0.3442 0.4595,-0.8438 0.4595,-1.5003 0,-0.638 -0.153,-1.131 -0.4595,-1.4752 -0.3042,-0.3442 -0.6819,-0.5162 -1.133,-0.5162 -0.4511,0 -0.8311,0.172 -1.1372,0.5162 -0.3085,0.3442 -0.4619,0.8414 -0.4619,1.4875zm7.9736 3.2652l-1.7268 0 0 -6.528 1.6029 0 0 0.9276c0.275,-0.4384 0.5227,-0.728 0.7407,-0.8664 0.2204,-0.1385 0.4681,-0.21 0.7469,-0.21 0.3946,0 0.7723,0.1092 1.1372,0.3273l-0.5349 1.5045c-0.2896,-0.1866 -0.5604,-0.2812 -0.81,-0.2812 -0.2434,0 -0.4469,0.065 -0.6145,0.1992 -0.17,0.1323 -0.3004,0.3735 -0.3969,0.7219 -0.0966,0.3484 -0.1446,1.0788 -0.1446,2.1887l0 2.0164zm4.5365 -4.5366l-1.5675 -0.2831c0.1765,-0.6318 0.4784,-1.0976 0.9087,-1.4018 0.4323,-0.3023 1.07,-0.4553 1.918,-0.4553 0.7718,0 1.3449,0.0923 1.7225,0.275 0.3758,0.1823 0.6419,0.4134 0.7953,0.6945 0.1531,0.2812 0.2308,0.7953 0.2308,1.5464l-0.0188 2.0164c0,0.5727 0.0273,0.9969 0.0838,1.2695 0.0546,0.2708 0.1596,0.5646 0.3107,0.875l-1.7102 0c-0.0442,-0.1154 -0.1008,-0.2854 -0.1658,-0.51 -0.0273,-0.1027 -0.0484,-0.17 -0.0607,-0.2034 -0.2962,0.2872 -0.6108,0.5015 -0.9465,0.6461 -0.3357,0.1426 -0.6946,0.2142 -1.0764,0.2142 -0.6715,0 -1.2023,-0.1827 -1.5884,-0.5458 -0.388,-0.3649 -0.5811,-0.8264 -0.5811,-1.3848 0,-0.3669 0.0881,-0.6965 0.2642,-0.9861 0.1762,-0.2896 0.4238,-0.51 0.7407,-0.663 0.3169,-0.1531 0.7765,-0.2873 1.3745,-0.4031 0.8057,-0.1507 1.3661,-0.2934 1.6764,-0.4238l0 -0.1719c0,-0.3338 -0.0819,-0.5688 -0.2453,-0.7115 -0.1639,-0.1404 -0.4723,-0.2119 -0.9276,-0.2119 -0.3085,0 -0.5477,0.0612 -0.7196,0.1827 -0.1723,0.1196 -0.3107,0.3315 -0.4177,0.6357zm2.3102 1.4018c-0.2203,0.0735 -0.5707,0.1615 -1.051,0.2642 -0.4785,0.1031 -0.7911,0.2035 -0.9403,0.3 -0.2246,0.1619 -0.3377,0.363 -0.3377,0.6088 0,0.2434 0.09,0.4511 0.2707,0.6273 0.1804,0.1761 0.4092,0.2642 0.6881,0.2642 0.3126,0 0.6088,-0.1027 0.8918,-0.3062 0.21,-0.1553 0.3461,-0.3461 0.4111,-0.573 0.0462,-0.1469 0.0673,-0.428 0.0673,-0.8411l0 -0.3442zm2.7929 1.2714l1.7333 -0.2642c0.0735,0.3358 0.2223,0.5915 0.4492,0.7657 0.2242,0.1743 0.5392,0.2623 0.9461,0.2623 0.4469,0 0.7826,-0.0819 1.0072,-0.2476 0.1531,-0.1131 0.2289,-0.2685 0.2289,-0.4596 0,-0.1319 -0.042,-0.2412 -0.1239,-0.3273 -0.0861,-0.0819 -0.2792,-0.1573 -0.5772,-0.2265 -1.393,-0.3065 -2.2764,-0.5877 -2.6498,-0.8415 -0.5165,-0.3523 -0.7746,-0.8434 -0.7746,-1.471 0,-0.5642 0.2227,-1.0407 0.6696,-1.4245 0.4469,-0.3862 1.1391,-0.5792 2.0771,-0.5792 0.8938,0 1.5591,0.1469 1.9933,0.4365 0.4346,0.2915 0.7327,0.7219 0.8961,1.2926l-1.6283 0.3c-0.0693,-0.2539 -0.2016,-0.4492 -0.3965,-0.5835 -0.195,-0.1361 -0.4723,-0.2034 -0.833,-0.2034 -0.4554,0 -0.7808,0.0631 -0.9777,0.1907 -0.1303,0.0904 -0.1953,0.2081 -0.1953,0.3508 0,0.1238 0.0565,0.2265 0.1723,0.3127 0.1549,0.1153 0.6922,0.2769 1.6133,0.4865 0.9192,0.2076 1.561,0.4638 1.9264,0.768 0.3607,0.3084 0.5411,0.7365 0.5411,1.2841 0,0.598 -0.2496,1.1141 -0.7511,1.5445 -0.4992,0.43 -1.238,0.6442 -2.2179,0.6442 -0.8895,0 -1.5926,-0.1804 -2.1129,-0.5415 -0.5184,-0.3588 -0.8561,-0.8496 -1.0157,-1.4688z"/>
  </g>
  <polygon class="fil2" points="98.3904,35.3366 48.5105,35.3366 48.5105,85.2084 98.3904,85.2084 "/>
  <path class="fil3" d="M80.3161 45.7281c4.4608,0 8.0774,3.6166 8.0774,8.0774 0,4.4608 -3.6166,8.0775 -8.0774,8.0775 -4.4612,0 -8.0774,-3.6167 -8.0774,-8.0775 0,-4.4608 3.6162,-8.0774 8.0774,-8.0774z"/>
  <path class="fil3" d="M76.1336 35.328c0.3536,0.9077 0.5473,1.8953 0.5473,2.9283 0,4.4608 -3.6163,8.0771 -8.0771,8.0771 -4.4616,0 -8.0779,-3.6163 -8.0779,-8.0771 0,-1.033 0.1937,-2.0206 0.5472,-2.9283l15.0605 0z"/>
  <path class="fil3 str1" d="M98.3496 73.5867c-22.2496,-0.3888 -40.5871,-16.822 -43.9383,-38.2237l3.2717 0c3.3157,19.6127 20.203,34.6102 40.6666,34.9955l0 3.2282z"/>
  <path class="fil3" d="M98.0876 51.5843c0.1014,0 0.2023,0.0026 0.3023,0.0064l0 16.1422c-0.1,0.0039 -0.2009,0.0064 -0.3023,0.0064 -4.4616,0 -8.0779,-3.6163 -8.0779,-8.0771 0,-4.4616 3.6163,-8.0779 8.0779,-8.0779z"/>
  <path class="fil3" d="M98.3899 47.3258c-7.6939,-0.3207 -14.2091,-5.194 -16.9237,-11.9978l16.9237 0 0 11.9978z"/>
  <path class="fil4" d="M110.877 44.2324l4.9377 0c1.0464,0 1.826,-0.1757 2.3325,-0.5222 0.5118,-0.3462 0.768,-0.878 0.768,-1.5807 0,-0.6576 -0.2392,-1.1545 -0.718,-1.4956 -0.4785,-0.3362 -1.1857,-0.5069 -2.121,-0.5069l-5.1992 0 0 4.1054zm0 8.8778l4.6481 0c1.4641,0 2.4936,-0.1854 3.0786,-0.5519 0.5845,-0.3665 0.8791,-0.9888 0.8791,-1.8568 0,-0.788 -0.278,-1.3752 -0.8403,-1.7718 -0.5565,-0.3965 -1.3914,-0.5972 -2.4994,-0.5972l-5.2661 0 0 4.7777zm-5.8899 4.3062l0 -21.6556 11.6625 0c2.7944,0 4.8542,0.4515 6.1845,1.3599 1.3307,0.9084 1.9987,2.3036 1.9987,4.1858 0,1.1641 -0.295,2.1279 -0.8907,2.8855 -0.59,0.7631 -1.4972,1.3499 -2.7109,1.7618 1.3914,0.3212 2.4548,0.9034 3.1955,1.7414 0.7399,0.838 1.1072,1.8768 1.1072,3.1217 0,1.2145 -0.3058,2.3137 -0.9184,3.2921 -0.6176,0.9787 -1.4807,1.7417 -2.5883,2.2786 -0.7461,0.3711 -1.6537,0.6373 -2.7221,0.793 -1.0637,0.1554 -2.7055,0.2358 -4.9211,0.2358l-9.3969 0zm24.4938 0l0 -21.6556 6.1345 0 0 21.6556 -6.1345 0zm10.978 0l0 -21.6556 6.6521 0 4.5374 7.1164c0.7399,1.1545 1.4418,2.3036 2.104,3.4378 0.6623,1.1391 1.2861,2.2582 1.876,3.3674 -0.0892,-1.636 -0.1503,-3.1717 -0.195,-4.602 -0.0442,-1.4302 -0.0665,-2.6901 -0.0665,-3.7789l0 -5.5407 5.9342 0 0 21.6556 -6.6357 0 -4.7154 -7.3221c-0.5561,-0.8634 -1.1576,-1.8322 -1.8091,-2.901 -0.6568,-1.0741 -1.3472,-2.2332 -2.0706,-3.4781 0.117,1.4102 0.2062,2.7251 0.2558,3.9396 0.0561,1.2146 0.0838,2.2937 0.0838,3.2321l0 6.5295 -5.951 0zm31.7698 -4.542l3.3455 0c1.8983,0 3.2955,-0.5068 4.1804,-1.5156 0.8853,-1.0088 1.3307,-2.5898 1.3307,-4.7477 0,-2.1679 -0.4454,-3.7539 -1.3307,-4.7577 -0.8849,-1.0038 -2.2821,-1.5057 -4.1804,-1.5057l-3.3455 0 0 12.5267zm-6.1792 4.542l0 -21.6556 10.2596 0c3.5516,0 6.2795,0.9334 8.1778,2.8002 1.8983,1.8671 2.8444,4.5519 2.8444,8.0501 0,3.6185 -0.9799,6.3237 -2.9448,8.1151 -1.9594,1.7918 -4.9211,2.6902 -8.8793,2.6902l-9.4577 0zm25.0169 0l0 -21.6556 18.2536 0 0 4.4416 -12.1076 0 0 3.8239 11.0615 0 0 4.3362 -11.0615 0 0 4.6273 12.4971 0 0 4.4266 -18.6431 0zm28.3962 -12.3813l4.5816 0c1.2356,0 2.1486,-0.2058 2.7278,-0.6173 0.5846,-0.4115 0.8738,-1.0688 0.8738,-1.9672 0,-0.798 -0.2838,-1.3852 -0.8461,-1.7717 -0.5676,-0.3862 -1.4306,-0.5819 -2.594,-0.5819l-4.7431 0 0 4.9381zm-6.1176 12.3813l0 -21.6556 11.4953 0c3.0451,0 5.2888,0.4919 6.7302,1.4703 1.4418,0.9787 2.1602,2.4994 2.1602,4.5569 0,1.2145 -0.3065,2.2587 -0.9245,3.1217 -0.6123,0.8684 -1.5641,1.596 -2.861,2.1833 1.0519,0.3661 1.798,0.858 2.2322,1.4802 0.4342,0.6227 0.6845,1.7164 0.7518,3.2875 0.0331,0.4365 0.0666,1.0337 0.0996,1.7768 0.0727,1.7464 0.4066,2.7551 0.9965,3.0313l0 0.7476 -6.446 0c-0.3119,-0.763 -0.4958,-1.8118 -0.54,-3.1467 -0.0388,-1.3299 -0.0838,-2.1683 -0.128,-2.5144 -0.1004,-0.843 -0.4123,-1.4603 -0.9465,-1.8518 -0.5288,-0.3915 -1.3303,-0.5872 -2.3937,-0.5872l-4.1085 0 0 8.1001 -6.1176 0z"/>
  <path class="fil4" d="M107.861 77.2406l2.8406 0c0.7665,0 1.3322,-0.1192 1.6914,-0.3581 0.3623,-0.2388 0.5419,-0.6207 0.5419,-1.1422 0,-0.463 -0.1762,-0.8038 -0.5246,-1.0284 -0.3523,-0.2242 -0.8872,-0.3376 -1.6087,-0.3376l-2.9406 0 0 2.8663zm-3.7935 7.1871l0 -12.5705 7.1275 0c1.8883,0 3.2794,0.2853 4.1728,0.8534 0.8941,0.568 1.3398,1.451 1.3398,2.6451 0,0.7054 -0.1899,1.3111 -0.5734,1.8122 -0.3796,0.5042 -0.9695,0.9265 -1.7737,1.2672 0.6519,0.2127 1.1146,0.4984 1.3838,0.8596 0.2692,0.3611 0.4245,0.9964 0.4661,1.9079 0.0204,0.2538 0.0415,0.6003 0.0619,1.0314 0.0454,1.0138 0.2519,1.5995 0.618,1.7595l0 0.4342 -3.997 0c-0.1934,-0.4426 -0.3073,-1.0518 -0.3349,-1.8268 -0.0243,-0.7718 -0.0516,-1.2583 -0.0793,-1.4595 -0.0619,-0.4892 -0.2553,-0.8476 -0.5868,-1.0749 -0.3277,-0.2273 -0.825,-0.3407 -1.4842,-0.3407l-2.5471 0 0 4.7019 -3.7935 0zm15.1184 -12.5705l3.752 0 0 7.8513c0,0.8649 0.1931,1.4799 0.5796,1.8467 0.39,0.3673 1.0318,0.5508 1.926,0.5508 0.8834,0 1.5187,-0.1835 1.9018,-0.5508 0.3834,-0.3668 0.5765,-0.9818 0.5765,-1.8467l0 -7.8513 3.7931 0 0 7.4667c0,1.0514 -0.1207,1.8906 -0.3619,2.5167 -0.2453,0.6265 -0.6457,1.1568 -1.2049,1.588 -0.5869,0.4484 -1.2703,0.7864 -2.0467,1.0106 -0.7804,0.2246 -1.6568,0.3381 -2.6371,0.3381 -0.9769,0 -1.8534,-0.1135 -2.6337,-0.3381 -0.7765,-0.2242 -1.4599,-0.5622 -2.0467,-1.0106 -0.5661,-0.4369 -0.9734,-0.9703 -1.2253,-1.5995 -0.2489,-0.6292 -0.3727,-1.4653 -0.3727,-2.5052l0 -7.4667zm15.4492 12.5705l0 -12.5705 3.8208 0 0 9.8465 7.2106 0 0 2.724 -11.0314 0zm12.6017 0l0 -12.5705 11.3179 0 0 2.5782 -7.5075 0 0 2.2198 6.8587 0 0 2.5172 -6.8587 0 0 2.6859 7.749 0 0 2.5694 -11.5594 0zm13.8343 0l0 -12.5705 5.2499 0 1.9606 6.1176c0.1758,0.5418 0.3346,1.0664 0.4762,1.576 0.1411,0.5099 0.2657,1.0053 0.3726,1.4887 0.1277,-0.5126 0.2727,-1.0487 0.435,-1.6079 0.1619,-0.5623 0.3488,-1.1626 0.5557,-1.8064l1.8499 -5.768 5.2399 0 0 12.5705 -3.4797 0 0 -5.573c0,-0.3934 0.0108,-0.9438 0.0346,-1.6518 0.0243,-0.708 0.0589,-1.5264 0.1073,-2.4529l-2.8617 9.6777 -3.7827 0 -2.7991 -9.6777c0.0481,1.1157 0.0827,2.1179 0.11,3.0094 0.0281,0.8884 0.0416,1.5849 0.0416,2.086l0 4.5823 -3.5101 0zm23.3362 -4.9088l3.2582 0 -1.6603 -4.3347 -1.5979 4.3347zm-0.3523 -7.6617l4.1662 0 5.2569 12.5705 -4.0935 0 -0.9115 -2.3044 -4.9738 0 -0.8526 2.3044 -3.952 0 5.3603 -12.5705zm10.8695 12.5705l0 -12.5705 4.1247 0 2.8133 4.1308c0.4588,0.6699 0.8937,1.3372 1.3045,1.9956 0.4103,0.6615 0.7972,1.3111 1.1633,1.9549 -0.0553,-0.95 -0.0934,-1.8411 -0.1207,-2.6714 -0.0281,-0.8303 -0.0416,-1.5618 -0.0416,-2.1936l0 -3.2163 3.6794 0 0 12.5705 -4.1147 0 -2.9232 -4.2504c-0.345,-0.5011 -0.7177,-1.0634 -1.1219,-1.6837 -0.4069,-0.6234 -0.8353,-1.2965 -1.2837,-2.0191 0.0723,0.8188 0.1277,1.5818 0.1584,2.2871 0.0346,0.705 0.0519,1.3311 0.0519,1.876l0 3.7901 -3.6897 0zm15.8669 0l0 -12.5705 11.3183 0 0 2.5782 -7.5075 0 0 2.2198 6.8583 0 0 2.5172 -6.8583 0 0 2.6859 7.7486 0 0 2.5694 -11.5594 0zm13.1166 -4.1747l3.662 0c0.0273,0.7165 0.2762,1.2557 0.7492,1.6168 0.4727,0.3612 1.163,0.5419 2.0741,0.5419 0.7734,0 1.3737,-0.1077 1.7987,-0.3234 0.4242,-0.2154 0.6384,-0.5215 0.6384,-0.9146 0,-0.198 -0.0515,-0.3757 -0.1519,-0.533 -0.1035,-0.1546 -0.245,-0.2742 -0.4277,-0.3527 -0.2761,-0.1253 -0.953,-0.3234 -2.0333,-0.5884 -1.0772,-0.268 -1.9879,-0.5272 -2.7302,-0.778 -1.0699,-0.358 -1.8848,-0.833 -2.4401,-1.4214 -0.5562,-0.5884 -0.8357,-1.2761 -0.8357,-2.0599 0,-1.2002 0.5349,-2.1556 1.6017,-2.8636 1.07,-0.708 2.516,-1.0634 4.3455,-1.0634 1.7918,0 3.2132,0.3731 4.2662,1.1188 1.0526,0.7457 1.5775,1.7506 1.5775,3.0209l-3.5897 0c-0.0796,-0.5853 -0.3242,-1.0195 -0.7315,-1.2964 -0.4111,-0.2796 -0.998,-0.4196 -1.7675,-0.4196 -0.6111,0 -1.1115,0.1081 -1.4945,0.3207 -0.3834,0.2127 -0.5765,0.4835 -0.5765,0.8158 0,0.5564 0.9149,1.0837 2.7406,1.5787 0.3315,0.0903 0.5834,0.1573 0.7591,0.2042l0.1485 0.0434c1.8883,0.5158 3.0686,0.9354 3.5416,1.2526 0.4796,0.3323 0.8419,0.7196 1.0938,1.1653 0.2488,0.4488 0.373,0.9442 0.373,1.4918 0,1.2499 -0.5695,2.2256 -1.7052,2.9221 -1.1353,0.6961 -2.7267,1.0457 -4.7766,1.0457 -1.9367,0 -3.4105,-0.373 -4.4219,-1.1215 -1.0115,-0.7487 -1.5737,-1.8821 -1.6876,-3.4028z"/>
  <polygon class="fil5" points="103.97,63.0652 239.722,63.0652 239.722,66.0819 103.97,66.0819 "/>
  <g id="_846705352">
   <path id="_846698848" class="fil1" d="M52.8756 131.436l2.5025 -6.5141 0.928 0 2.6663 6.5141 -0.9826 0 -0.7599 -1.9733 -2.7241 0 -0.7145 1.9733 -0.9157 0zm1.8791 -2.6756l2.2098 0 -0.6811 -1.8033c-0.2061,-0.5472 -0.3611,-0.998 -0.4611,-1.351 -0.0835,0.4184 -0.2004,0.8326 -0.3519,1.2449l-0.7157 1.9094zm5.9514 2.6756l-1.7956 -4.7185 0.8445 0 1.0134 2.8256c0.1092,0.3049 0.2092,0.6218 0.3019,0.9511 0.0712,-0.2489 0.1696,-0.5477 0.2969,-0.8981l1.0496 -2.8786 0.8222 0 -1.7868 4.7185 -0.7461 0zm6.3003 0l0 -0.5961c-0.2988,0.4688 -0.7388,0.7022 -1.3195,0.7022 -0.3761,0 -0.7219,-0.103 -1.0372,-0.3107 -0.3158,-0.2065 -0.56,-0.4961 -0.7342,-0.8692 -0.1731,-0.3715 -0.2596,-0.7976 -0.2596,-1.2818 0,-0.4699 0.0792,-0.8976 0.2354,-1.2814 0.1576,-0.3838 0.3926,-0.678 0.7064,-0.8811 0.3142,-0.205 0.6661,-0.3081 1.0542,-0.3081 0.2838,0 0.5369,0.0608 0.7584,0.1808 0.223,0.1196 0.4034,0.2757 0.543,0.4684l0 -2.3371 0.7946 0 0 6.5141 -0.7415 0zm-2.5283 -2.3556c0,0.6054 0.1273,1.0572 0.3823,1.3561 0.2546,0.2988 0.555,0.4488 0.9022,0.4488 0.3489,0 0.6461,-0.1439 0.8904,-0.4292 0.2442,-0.285 0.3672,-0.7219 0.3672,-1.3088 0,-0.6461 -0.1246,-1.1191 -0.3734,-1.421 -0.2484,-0.3034 -0.555,-0.4534 -0.9203,-0.4534 -0.355,0 -0.6523,0.1453 -0.8903,0.4349 -0.2385,0.29 -0.3581,0.7481 -0.3581,1.3726zm7.6075 1.7733c-0.2973,0.2516 -0.5823,0.4292 -0.8553,0.5338 -0.2746,0.1031 -0.5688,0.1546 -0.8826,0.1546 -0.5188,0 -0.9161,-0.1257 -1.1953,-0.3792 -0.2773,-0.253 -0.4169,-0.5776 -0.4169,-0.9706 0,-0.232 0.0515,-0.4427 0.1577,-0.6338 0.1046,-0.1912 0.2426,-0.3442 0.4126,-0.4596 0.1712,-0.1154 0.3623,-0.2035 0.5761,-0.2623 0.1562,-0.0412 0.3931,-0.0819 0.71,-0.12 0.6461,-0.0773 1.1222,-0.1684 1.4272,-0.2761 0.003,-0.1093 0.0046,-0.1789 0.0046,-0.2077 0,-0.3261 -0.0762,-0.5565 -0.2277,-0.6884 -0.203,-0.1823 -0.508,-0.2715 -0.9099,-0.2715 -0.3761,0 -0.6538,0.065 -0.8342,0.1969 -0.1788,0.1319 -0.3111,0.3657 -0.3973,0.7007l-0.781 -0.1077c0.0711,-0.3334 0.188,-0.6049 0.3503,-0.8099 0.1623,-0.2062 0.3988,-0.3654 0.7065,-0.4761 0.308,-0.1108 0.6646,-0.167 1.0711,-0.167 0.4034,0 0.7295,0.0485 0.981,0.1427 0.2519,0.0954 0.4369,0.2139 0.5565,0.3581 0.1185,0.1438 0.2004,0.3246 0.2489,0.5442 0.0257,0.1365 0.0396,0.3822 0.0396,0.7372l0 1.0661c0,0.7449 0.0165,1.2149 0.0515,1.4106 0.0335,0.1973 0.1015,0.3869 0.2015,0.5673l-0.8357 0c-0.0819,-0.1654 -0.1365,-0.3596 -0.1592,-0.5823zm-0.0665 -1.7867c-0.2912,0.1199 -0.7265,0.2199 -1.3061,0.3034 -0.3288,0.0469 -0.5626,0.1 -0.6976,0.1592 -0.1365,0.0592 -0.2427,0.1454 -0.3154,0.2608 -0.0742,0.1138 -0.1123,0.2396 -0.1123,0.3792 0,0.2138 0.0819,0.3915 0.2427,0.5338 0.1608,0.1411 0.3973,0.2123 0.7084,0.2123 0.3077,0 0.5823,-0.0666 0.8219,-0.2016 0.2396,-0.135 0.4172,-0.3199 0.5295,-0.5538 0.0862,-0.1803 0.1289,-0.4472 0.1289,-0.7991l0 -0.2942zm2.2748 2.369l0 -0.9115 0.9115 0 0 0.9115 -0.9115 0zm4.8958 0l0 -6.5141 2.4448 0c0.4976,0 0.8964,0.0665 1.1968,0.1973 0.3019,0.1319 0.5369,0.335 0.7069,0.6096 0.1696,0.273 0.2561,0.5595 0.2561,0.8599 0,0.2777 -0.0758,0.5399 -0.2273,0.7857 -0.1504,0.2457 -0.3792,0.4442 -0.6842,0.5961 0.3942,0.115 0.6961,0.3123 0.9084,0.59 0.2123,0.2788 0.3188,0.608 0.3188,0.9872 0,0.305 -0.0653,0.5884 -0.1942,0.8511 -0.1288,0.2623 -0.2884,0.4638 -0.478,0.6065 -0.1892,0.1426 -0.4277,0.2488 -0.7127,0.3215 -0.2849,0.0727 -0.6353,0.1092 -1.051,0.1092l-2.4844 0zm0.863 -3.7766l1.4091 0c0.3807,0 0.6553,-0.0258 0.8218,-0.0758 0.2185,-0.065 0.3839,-0.1727 0.4946,-0.3246 0.1108,-0.1515 0.1669,-0.3411 0.1669,-0.5688 0,-0.2153 -0.0515,-0.4065 -0.1546,-0.5703 -0.105,-0.165 -0.2534,-0.2773 -0.4446,-0.3381 -0.1926,-0.0607 -0.5234,-0.0911 -0.9918,-0.0911l-1.3014 0 0 1.9687zm0 3.0078l1.6214 0c0.2792,0 0.4746,-0.0108 0.5869,-0.0304 0.1988,-0.0365 0.3642,-0.0957 0.4976,-0.1792 0.1335,-0.0819 0.2427,-0.203 0.3288,-0.3607 0.085,-0.1592 0.1292,-0.3415 0.1292,-0.5492 0,-0.2427 -0.0623,-0.4534 -0.1865,-0.6338 -0.1246,-0.1792 -0.2973,-0.305 -0.5188,-0.3777 -0.22,-0.0715 -0.5384,-0.1077 -0.9526,-0.1077l-1.506 0 0 2.2387zm8.3708 -0.7511l0.8265 0.1019c-0.1304,0.4838 -0.3715,0.8584 -0.7234,1.1253 -0.3534,0.2654 -0.8038,0.3988 -1.3514,0.3988 -0.69,0 -1.2376,-0.2122 -1.641,-0.6368 -0.405,-0.425 -0.6065,-1.0207 -0.6065,-1.7883 0,-0.7946 0.2046,-1.4103 0.6126,-1.8487 0.4096,-0.4385 0.9388,-0.6585 1.591,-0.6585 0.6308,0 1.1465,0.2154 1.5453,0.6446 0.4004,0.4292 0.6007,1.0345 0.6007,1.8126 0,0.0484 -0.0015,0.1199 -0.0046,0.2138l-3.5186 0c0.0289,0.5188 0.1758,0.9161 0.44,1.1907 0.2638,0.2761 0.5915,0.4138 0.9857,0.4138 0.2927,0 0.543,-0.0773 0.7507,-0.2319 0.2077,-0.1531 0.3715,-0.3988 0.493,-0.7373zm-2.6255 -1.2937l2.6344 0c-0.0346,-0.3958 -0.1365,-0.6946 -0.3015,-0.8915 -0.255,-0.308 -0.5857,-0.4626 -0.9907,-0.4626 -0.3669,0 -0.6761,0.1226 -0.9265,0.3684 -0.2503,0.2457 -0.3884,0.5749 -0.4157,0.9857zm4.4392 2.8136l0 -6.5141 0.7996 0 0 6.5141 -0.7996 0zm3.7859 -0.7157l0.1154 0.7065c-0.2246,0.0473 -0.4265,0.0715 -0.6038,0.0715 -0.2912,0 -0.5157,-0.0458 -0.6765,-0.1381 -0.1592,-0.0911 -0.2715,-0.2123 -0.3365,-0.3626 -0.0654,-0.1485 -0.0989,-0.4638 -0.0989,-0.9434l0 -2.7148 -0.5868 0 0 -0.6219 0.5868 0 0 -1.1691 0.7965 -0.4796 0 1.6487 0.8038 0 0 0.6219 -0.8038 0 0 2.759c0,0.2288 0.0135,0.3746 0.0408,0.4396 0.0288,0.0654 0.0742,0.1169 0.1381,0.1565 0.0638,0.0377 0.1546,0.0573 0.273,0.0573 0.0896,0 0.2061,-0.0104 0.3519,-0.0315zm0.7734 0.7157l0 -4.7185 0.7188 0 0 0.7146c0.1838,-0.3338 0.3534,-0.5554 0.5096,-0.6615 0.155,-0.1061 0.3261,-0.1608 0.5126,-0.1608 0.27,0 0.5431,0.0866 0.8223,0.2581l-0.2762 0.743c-0.1942,-0.1169 -0.3896,-0.1742 -0.5853,-0.1742 -0.1761,0 -0.3323,0.0531 -0.4719,0.1577 -0.1392,0.1061 -0.2381,0.2515 -0.2973,0.438 -0.0892,0.2838 -0.1334,0.5946 -0.1334,0.933l0 2.4706 -0.7992 0zm6.118 -0.5823c-0.2973,0.2516 -0.5823,0.4292 -0.8553,0.5338 -0.2746,0.1031 -0.5688,0.1546 -0.8827,0.1546 -0.5188,0 -0.916,-0.1257 -1.1952,-0.3792 -0.2773,-0.253 -0.4169,-0.5776 -0.4169,-0.9706 0,-0.232 0.0515,-0.4427 0.1576,-0.6338 0.1046,-0.1912 0.2427,-0.3442 0.4127,-0.4596 0.1711,-0.1154 0.3623,-0.2035 0.5761,-0.2623 0.1561,-0.0412 0.3931,-0.0819 0.71,-0.12 0.6461,-0.0773 1.1222,-0.1684 1.4271,-0.2761 0.0031,-0.1093 0.0047,-0.1789 0.0047,-0.2077 0,-0.3261 -0.0762,-0.5565 -0.2277,-0.6884 -0.2031,-0.1823 -0.508,-0.2715 -0.9099,-0.2715 -0.3762,0 -0.6538,0.065 -0.8342,0.1969 -0.1788,0.1319 -0.3111,0.3657 -0.3973,0.7007l-0.7811 -0.1077c0.0712,-0.3334 0.1881,-0.6049 0.3504,-0.8099 0.1623,-0.2062 0.3988,-0.3654 0.7065,-0.4761 0.308,-0.1108 0.6645,-0.167 1.071,-0.167 0.4035,0 0.7296,0.0485 0.9811,0.1427 0.2519,0.0954 0.4369,0.2139 0.5565,0.3581 0.1185,0.1438 0.2004,0.3246 0.2488,0.5442 0.0258,0.1365 0.0396,0.3822 0.0396,0.7372l0 1.0661c0,0.7449 0.0166,1.2149 0.0516,1.4106 0.0334,0.1973 0.1015,0.3869 0.2015,0.5673l-0.8357 0c-0.0819,-0.1654 -0.1365,-0.3596 -0.1592,-0.5823zm-0.0666 -1.7867c-0.2911,0.1199 -0.7264,0.2199 -1.306,0.3034 -0.3288,0.0469 -0.5627,0.1 -0.6976,0.1592 -0.1366,0.0592 -0.2427,0.1454 -0.3154,0.2608 -0.0742,0.1138 -0.1123,0.2396 -0.1123,0.3792 0,0.2138 0.0819,0.3915 0.2427,0.5338 0.1607,0.1411 0.3973,0.2123 0.7084,0.2123 0.3076,0 0.5822,-0.0666 0.8218,-0.2016 0.2396,-0.135 0.4173,-0.3199 0.5296,-0.5538 0.0862,-0.1803 0.1288,-0.4472 0.1288,-0.7991l0 -0.2942zm2.0491 2.369l0 -4.7185 0.7142 0 0 0.6615c0.1488,-0.2307 0.3457,-0.4173 0.5915,-0.5569 0.2457,-0.1407 0.5265,-0.2123 0.8403,-0.2123 0.3488,0 0.6353,0.0731 0.8584,0.2185 0.2246,0.1457 0.3823,0.3473 0.4734,0.6084 0.3746,-0.5507 0.8599,-0.8269 1.4572,-0.8269 0.4688,0 0.8284,0.1304 1.0799,0.39 0.2519,0.2592 0.3777,0.658 0.3777,1.1965l0 3.2397 -0.7946 0 0 -2.9728c0,-0.32 -0.0257,-0.5504 -0.0773,-0.6915 -0.053,-0.1396 -0.1473,-0.2531 -0.2823,-0.3396 -0.1365,-0.085 -0.2972,-0.1288 -0.4807,-0.1288 -0.3323,0 -0.6065,0.1103 -0.8265,0.3318 -0.2184,0.22 -0.3292,0.5735 -0.3292,1.0588l0 2.7421 -0.7991 0 0 -3.0651c0,-0.3566 -0.0654,-0.6235 -0.1958,-0.8007 -0.1304,-0.1777 -0.3426,-0.2669 -0.6399,-0.2669 -0.2246,0 -0.4323,0.0588 -0.6234,0.1788 -0.1912,0.1181 -0.3308,0.2911 -0.4158,0.5188 -0.0865,0.2288 -0.1288,0.558 -0.1288,0.9872l0 2.4479 -0.7992 0zm10.8092 -1.5199l0.8264 0.1019c-0.1303,0.4838 -0.3715,0.8584 -0.7234,1.1253 -0.3534,0.2654 -0.8038,0.3988 -1.3514,0.3988 -0.6899,0 -1.2376,-0.2122 -1.641,-0.6368 -0.405,-0.425 -0.6065,-1.0207 -0.6065,-1.7883 0,-0.7946 0.2046,-1.4103 0.6126,-1.8487 0.4096,-0.4385 0.9388,-0.6585 1.5911,-0.6585 0.6307,0 1.1464,0.2154 1.5452,0.6446 0.4004,0.4292 0.6007,1.0345 0.6007,1.8126 0,0.0484 -0.0015,0.1199 -0.0046,0.2138l-3.5185 0c0.0288,0.5188 0.1757,0.9161 0.4399,1.1907 0.2638,0.2761 0.5915,0.4138 0.9857,0.4138 0.2927,0 0.543,-0.0773 0.7507,-0.2319 0.2077,-0.1531 0.3715,-0.3988 0.4931,-0.7373zm-2.6256 -1.2937l2.6344 0c-0.0346,-0.3958 -0.1365,-0.6946 -0.3015,-0.8915 -0.255,-0.308 -0.5857,-0.4626 -0.9907,-0.4626 -0.3669,0 -0.6761,0.1226 -0.9265,0.3684 -0.2503,0.2457 -0.3884,0.5749 -0.4157,0.9857zm9.775 2.8136l-0.7992 0 0 -5.0961c-0.1926,0.1834 -0.4446,0.3672 -0.7568,0.5507 -0.3139,0.1834 -0.5946,0.3215 -0.8434,0.4127l0 -0.7723c0.4476,-0.2107 0.8387,-0.4657 1.1741,-0.7642 0.3334,-0.3003 0.5715,-0.5903 0.7111,-0.8722l0.5142 0 0 6.5414zm2.0537 -1.7199l0.7991 -0.1061c0.0927,0.4534 0.2489,0.7795 0.4689,0.9795 0.2211,0.2004 0.4899,0.3004 0.8068,0.3004 0.3761,0 0.6946,-0.1304 0.9538,-0.3911 0.258,-0.2608 0.3884,-0.5838 0.3884,-0.9692 0,-0.3673 -0.12,-0.6703 -0.3596,-0.9084 -0.2411,-0.2384 -0.5457,-0.358 -0.9161,-0.358 -0.1515,0 -0.3395,0.0304 -0.5641,0.0896l0.0896 -0.7023c0.053,0.0058 0.0953,0.0089 0.1288,0.0089 0.3396,0 0.6461,-0.0892 0.9192,-0.2669 0.273,-0.1773 0.4095,-0.4519 0.4095,-0.8219 0,-0.2927 -0.1003,-0.5369 -0.2988,-0.728 -0.1988,-0.1927 -0.4549,-0.2896 -0.7691,-0.2896 -0.3108,0 -0.57,0.0985 -0.7765,0.2927 -0.2077,0.1953 -0.3411,0.4896 -0.4004,0.8811l-0.7991 -0.1427c0.0969,-0.5369 0.3199,-0.9523 0.6657,-1.2465 0.3473,-0.2946 0.778,-0.443 1.2937,-0.443 0.355,0 0.6827,0.0773 0.9815,0.2288 0.2984,0.1535 0.5276,0.3611 0.6868,0.625 0.1577,0.2638 0.2381,0.543 0.2381,0.8403 0,0.2807 -0.0758,0.5369 -0.2273,0.7688 -0.1519,0.2307 -0.3746,0.4142 -0.6703,0.5507 0.385,0.0881 0.6838,0.2731 0.8976,0.5534 0.2123,0.2792 0.3184,0.6296 0.3184,1.0496 0,0.5688 -0.2061,1.051 -0.6218,1.4471 -0.4138,0.3958 -0.9388,0.5931 -1.5726,0.5931 -0.5719,0 -1.0465,-0.17 -1.4241,-0.5111 -0.3777,-0.34 -0.593,-0.7811 -0.6461,-1.3242zm7.6198 1.7199l0 -1.5591 -2.8256 0 0 -0.7342 2.9725 -4.2208 0.6538 0 0 4.2208 0.8795 0 0 0.7342 -0.8795 0 0 1.5591 -0.8007 0zm0 -2.2933l0 -2.9363 -2.0387 2.9363 2.0387 0zm5.0611 2.2933l0 -1.5591 -2.8255 0 0 -0.7342 2.9724 -4.2208 0.6538 0 0 4.2208 0.8796 0 0 0.7342 -0.8796 0 0 1.5591 -0.8007 0zm0 -2.2933l0 -2.9363 -2.0387 2.9363 2.0387 0zm4.9365 0.3385l0 -0.8042 2.4587 0 0 0.8042 -2.4587 0zm7.4664 1.9548l0 -5.7453 -2.146 0 0 -0.7688 5.1626 0 0 0.7688 -2.1552 0 0 5.7453 -0.8614 0zm6.0199 -1.5199l0.8264 0.1019c-0.1303,0.4838 -0.3715,0.8584 -0.7234,1.1253 -0.3534,0.2654 -0.8037,0.3988 -1.3514,0.3988 -0.6899,0 -1.2376,-0.2122 -1.641,-0.6368 -0.405,-0.425 -0.6065,-1.0207 -0.6065,-1.7883 0,-0.7946 0.2046,-1.4103 0.6126,-1.8487 0.4096,-0.4385 0.9388,-0.6585 1.5911,-0.6585 0.6307,0 1.1464,0.2154 1.5452,0.6446 0.4004,0.4292 0.6008,1.0345 0.6008,1.8126 0,0.0484 -0.0016,0.1199 -0.0047,0.2138l-3.5185 0c0.0288,0.5188 0.1757,0.9161 0.4399,1.1907 0.2639,0.2761 0.5915,0.4138 0.9857,0.4138 0.2927,0 0.5431,-0.0773 0.7507,-0.2319 0.2077,-0.1531 0.3715,-0.3988 0.4931,-0.7373zm-2.6256 -1.2937l2.6344 0c-0.0346,-0.3958 -0.1365,-0.6946 -0.3015,-0.8915 -0.255,-0.308 -0.5857,-0.4626 -0.9907,-0.4626 -0.3669,0 -0.6761,0.1226 -0.9265,0.3684 -0.2503,0.2457 -0.3884,0.5749 -0.4157,0.9857zm4.4393 2.8136l0 -6.5141 0.7995 0 0 6.5141 -0.7995 0zm2.2298 0l0 -4.0966 -0.7053 0 0 -0.6219 0.7053 0 0 -0.5019c0,-0.3169 0.0288,-0.5538 0.0846,-0.7068 0.0777,-0.2077 0.2127,-0.3761 0.4065,-0.505 0.1942,-0.1288 0.4657,-0.1927 0.8161,-0.1927 0.2246,0 0.4734,0.0258 0.7461,0.0804l-0.1196 0.6977c-0.1654,-0.0304 -0.3231,-0.0454 -0.4719,-0.0454 -0.2427,0 -0.4138,0.0515 -0.5142,0.1561 -0.1015,0.1031 -0.1515,0.2973 -0.1515,0.5823l0 0.4353 0.9191 0 0 0.6219 -0.9191 0 0 4.0966 -0.7961 0zm5.4173 -0.5823c-0.2973,0.2516 -0.5823,0.4292 -0.8554,0.5338 -0.2745,0.1031 -0.5688,0.1546 -0.8826,0.1546 -0.5188,0 -0.9161,-0.1257 -1.1953,-0.3792 -0.2773,-0.253 -0.4169,-0.5776 -0.4169,-0.9706 0,-0.232 0.0516,-0.4427 0.1577,-0.6338 0.1046,-0.1912 0.2427,-0.3442 0.4127,-0.4596 0.1711,-0.1154 0.3623,-0.2035 0.5761,-0.2623 0.1561,-0.0412 0.393,-0.0819 0.7099,-0.12 0.6461,-0.0773 1.1223,-0.1684 1.4272,-0.2761 0.0031,-0.1093 0.0046,-0.1789 0.0046,-0.2077 0,-0.3261 -0.0761,-0.5565 -0.2276,-0.6884 -0.2031,-0.1823 -0.5081,-0.2715 -0.91,-0.2715 -0.3761,0 -0.6538,0.065 -0.8341,0.1969 -0.1789,0.1319 -0.3112,0.3657 -0.3973,0.7007l-0.7811 -0.1077c0.0712,-0.3334 0.1881,-0.6049 0.3504,-0.8099 0.1623,-0.2062 0.3988,-0.3654 0.7064,-0.4761 0.3081,-0.1108 0.6646,-0.167 1.0711,-0.167 0.4034,0 0.7296,0.0485 0.9811,0.1427 0.2519,0.0954 0.4369,0.2139 0.5565,0.3581 0.1184,0.1438 0.2004,0.3246 0.2488,0.5442 0.0258,0.1365 0.0396,0.3822 0.0396,0.7372l0 1.0661c0,0.7449 0.0166,1.2149 0.0516,1.4106 0.0334,0.1973 0.1015,0.3869 0.2015,0.5673l-0.8357 0c-0.0819,-0.1654 -0.1365,-0.3596 -0.1592,-0.5823zm-0.0666 -1.7867c-0.2911,0.1199 -0.7265,0.2199 -1.306,0.3034 -0.3288,0.0469 -0.5627,0.1 -0.6977,0.1592 -0.1365,0.0592 -0.2426,0.1454 -0.3153,0.2608 -0.0742,0.1138 -0.1123,0.2396 -0.1123,0.3792 0,0.2138 0.0819,0.3915 0.2427,0.5338 0.1607,0.1411 0.3972,0.2123 0.7084,0.2123 0.3076,0 0.5822,-0.0666 0.8218,-0.2016 0.2396,-0.135 0.4173,-0.3199 0.5296,-0.5538 0.0861,-0.1803 0.1288,-0.4472 0.1288,-0.7991l0 -0.2942zm1.5153 2.369l1.7241 -2.4525 -1.5953 -2.266 0.9996 0 0.7249 1.1057c0.135,0.2108 0.2458,0.3869 0.3277,0.5296 0.1304,-0.1958 0.25,-0.3688 0.3607,-0.5204l0.795 -1.1149 0.9553 0 -1.6303 2.2222 1.7545 2.4963 -0.9811 0 -0.9691 -1.4668 -0.2577 -0.3957 -1.2392 1.8625 -0.9691 0zm7.389 -3.2124c0,-0.7704 0.0789,-1.3907 0.2381,-1.8595 0.1577,-0.47 0.3942,-0.8326 0.7069,-1.0872 0.3122,-0.255 0.7053,-0.3823 1.1783,-0.3823 0.3504,0 0.6569,0.0711 0.9207,0.2123 0.2638,0.1396 0.4807,0.3427 0.6538,0.608 0.1712,0.2658 0.3061,0.5888 0.4034,0.9692 0.0985,0.3807 0.147,0.8934 0.147,1.5395 0,0.7645 -0.0789,1.3802 -0.235,1.8506 -0.1577,0.4699 -0.3927,0.8326 -0.7054,1.0887 -0.3122,0.2566 -0.7068,0.3839 -1.1845,0.3839 -0.628,0 -1.1207,-0.2246 -1.4787,-0.675 -0.4292,-0.5415 -0.6446,-1.4256 -0.6446,-2.6482zm0.8219 0c0,1.0695 0.1261,1.7806 0.3761,2.1356 0.2504,0.3534 0.5584,0.5307 0.9253,0.5307 0.3685,0 0.6765,-0.1788 0.9269,-0.5338 0.2499,-0.355 0.3761,-1.0661 0.3761,-2.1325 0,-1.0723 -0.1262,-1.7849 -0.3761,-2.1368 -0.2504,-0.3534 -0.5611,-0.5296 -0.9346,-0.5296 -0.3684,0 -0.6611,0.1566 -0.8811,0.4673 -0.2745,0.3957 -0.4126,1.1299 -0.4126,2.1991zm4.2439 1.4925l0.7991 -0.1061c0.0927,0.4534 0.2489,0.7795 0.4689,0.9795 0.2211,0.2004 0.4899,0.3004 0.8068,0.3004 0.3761,0 0.6946,-0.1304 0.9538,-0.3911 0.258,-0.2608 0.3884,-0.5838 0.3884,-0.9692 0,-0.3673 -0.12,-0.6703 -0.3596,-0.9084 -0.2411,-0.2384 -0.5457,-0.358 -0.9161,-0.358 -0.1515,0 -0.3395,0.0304 -0.5641,0.0896l0.0896 -0.7023c0.053,0.0058 0.0953,0.0089 0.1288,0.0089 0.3396,0 0.6461,-0.0892 0.9192,-0.2669 0.273,-0.1773 0.4095,-0.4519 0.4095,-0.8219 0,-0.2927 -0.1003,-0.5369 -0.2988,-0.728 -0.1988,-0.1927 -0.4549,-0.2896 -0.7691,-0.2896 -0.3108,0 -0.57,0.0985 -0.7765,0.2927 -0.2077,0.1953 -0.3411,0.4896 -0.4004,0.8811l-0.7991 -0.1427c0.0969,-0.5369 0.3199,-0.9523 0.6657,-1.2465 0.3473,-0.2946 0.778,-0.443 1.2937,-0.443 0.355,0 0.6827,0.0773 0.9815,0.2288 0.2984,0.1535 0.5276,0.3611 0.6868,0.625 0.1577,0.2638 0.2381,0.543 0.2381,0.8403 0,0.2807 -0.0758,0.5369 -0.2273,0.7688 -0.1519,0.2307 -0.3746,0.4142 -0.6703,0.5507 0.385,0.0881 0.6838,0.2731 0.8976,0.5534 0.2123,0.2792 0.3184,0.6296 0.3184,1.0496 0,0.5688 -0.2061,1.051 -0.6218,1.4471 -0.4138,0.3958 -0.9388,0.5931 -1.5726,0.5931 -0.5719,0 -1.0465,-0.17 -1.4241,-0.5111 -0.3777,-0.34 -0.593,-0.7811 -0.6461,-1.3242zm5.1096 -3.9404l0 -0.7688 4.2162 0 0 0.6219c-0.4138,0.4411 -0.825,1.0283 -1.233,1.7591 -0.4065,0.7311 -0.7219,1.4848 -0.9434,2.2571 -0.1607,0.5457 -0.2623,1.1418 -0.3061,1.791l-0.8223 0c0.0093,-0.5127 0.1093,-1.1314 0.3019,-1.8579 0.1927,-0.725 0.4689,-1.4257 0.8281,-2.0991 0.3611,-0.6734 0.7434,-1.2422 1.1495,-1.7033l-3.1909 0zm5.008 3.9539l0.8404 -0.0712c0.0619,0.4096 0.2061,0.7158 0.4322,0.9223 0.2273,0.2061 0.5004,0.3092 0.8204,0.3092 0.3853,0 0.7114,-0.1454 0.9768,-0.4354 0.2669,-0.2911 0.4004,-0.6761 0.4004,-1.1556 0,-0.4565 -0.1273,-0.8157 -0.3839,-1.08 -0.2561,-0.2638 -0.5915,-0.3957 -1.0068,-0.3957 -0.2581,0 -0.49,0.0592 -0.6976,0.1761 -0.2081,0.1166 -0.3704,0.2685 -0.4885,0.455l-0.7507 -0.0973 0.6307 -3.3455 3.2398 0 0 0.7642 -2.5998 0 -0.3515 1.7502c0.3911,-0.273 0.8022,-0.4096 1.2314,-0.4096 0.5688,0 1.048,0.1973 1.4391,0.5915 0.3915,0.3946 0.5873,0.9011 0.5873,1.5199 0,0.59 -0.1731,1.0995 -0.5157,1.5287 -0.4188,0.5265 -0.9892,0.7904 -1.711,0.7904 -0.5931,0 -1.0769,-0.1654 -1.4515,-0.4977 -0.3746,-0.3319 -0.5884,-0.7719 -0.6415,-1.3195zm5.0612 0l0.8403 -0.0712c0.0619,0.4096 0.2061,0.7158 0.4323,0.9223 0.2273,0.2061 0.5003,0.3092 0.8203,0.3092 0.3853,0 0.7115,-0.1454 0.9768,-0.4354 0.2669,-0.2911 0.4004,-0.6761 0.4004,-1.1556 0,-0.4565 -0.1273,-0.8157 -0.3838,-1.08 -0.2562,-0.2638 -0.5915,-0.3957 -1.0069,-0.3957 -0.258,0 -0.4899,0.0592 -0.6976,0.1761 -0.2081,0.1166 -0.3704,0.2685 -0.4884,0.455l-0.7507 -0.0973 0.6307 -3.3455 3.2397 0 0 0.7642 -2.5998 0 -0.3515 1.7502c0.3911,-0.273 0.8023,-0.4096 1.2315,-0.4096 0.5688,0 1.048,0.1973 1.4391,0.5915 0.3915,0.3946 0.5872,0.9011 0.5872,1.5199 0,0.59 -0.173,1.0995 -0.5157,1.5287 -0.4188,0.5265 -0.9891,0.7904 -1.711,0.7904 -0.593,0 -1.0768,-0.1654 -1.4514,-0.4977 -0.3746,-0.3319 -0.5884,-0.7719 -0.6415,-1.3195zm7.4998 -0.2484l0 -0.8042 2.4586 0 0 0.8042 -2.4586 0zm8.2112 1.9548l0 -1.5591 -2.8255 0 0 -0.7342 2.9725 -4.2208 0.6538 0 0 4.2208 0.8795 0 0 0.7342 -0.8795 0 0 1.5591 -0.8008 0zm0 -2.2933l0 -2.9363 -2.0386 2.9363 2.0386 0zm6.7022 1.5245l0 0.7688 -4.3058 0c-0.0062,-0.1927 0.0242,-0.3777 0.0923,-0.555 0.1092,-0.2942 0.2854,-0.5826 0.5265,-0.8676 0.2427,-0.2838 0.5915,-0.6126 1.0464,-0.9861 0.7085,-0.5807 1.1876,-1.0403 1.4365,-1.3798 0.2484,-0.3385 0.373,-0.66 0.373,-0.9619 0,-0.3169 -0.1138,-0.5838 -0.34,-0.8022 -0.2272,-0.2169 -0.523,-0.3262 -0.8872,-0.3262 -0.385,0 -0.693,0.1154 -0.9234,0.3473 -0.2323,0.2308 -0.3488,0.5507 -0.3519,0.9588l-0.8222 -0.0835c0.0561,-0.6142 0.2684,-1.0814 0.6357,-1.4029 0.3669,-0.3215 0.8615,-0.4823 1.4803,-0.4823 0.6245,0 1.1191,0.1742 1.4829,0.5203 0.3658,0.3473 0.5477,0.7765 0.5477,1.2892 0,0.2607 -0.0531,0.5172 -0.1608,0.7688 -0.1061,0.2519 -0.2834,0.5172 -0.5307,0.7949 -0.2473,0.2788 -0.6584,0.6611 -1.233,1.1464 -0.4796,0.4035 -0.7872,0.6765 -0.9238,0.8207 -0.1365,0.1423 -0.2488,0.2866 -0.338,0.4323l3.1955 0zm0.8615 -0.9511l0.7991 -0.1061c0.0927,0.4534 0.2489,0.7795 0.4689,0.9795 0.2211,0.2004 0.4899,0.3004 0.8068,0.3004 0.3761,0 0.6946,-0.1304 0.9538,-0.3911 0.258,-0.2608 0.3884,-0.5838 0.3884,-0.9692 0,-0.3673 -0.12,-0.6703 -0.3596,-0.9084 -0.2411,-0.2384 -0.5457,-0.358 -0.9161,-0.358 -0.1515,0 -0.3395,0.0304 -0.5641,0.0896l0.0896 -0.7023c0.053,0.0058 0.0953,0.0089 0.1288,0.0089 0.3396,0 0.6461,-0.0892 0.9192,-0.2669 0.273,-0.1773 0.4095,-0.4519 0.4095,-0.8219 0,-0.2927 -0.1003,-0.5369 -0.2988,-0.728 -0.1988,-0.1927 -0.4549,-0.2896 -0.7691,-0.2896 -0.3108,0 -0.57,0.0985 -0.7765,0.2927 -0.2077,0.1953 -0.3412,0.4896 -0.4004,0.8811l-0.7991 -0.1427c0.0969,-0.5369 0.3199,-0.9523 0.6657,-1.2465 0.3473,-0.2946 0.778,-0.443 1.2937,-0.443 0.355,0 0.6827,0.0773 0.9815,0.2288 0.2984,0.1535 0.5276,0.3611 0.6868,0.625 0.1577,0.2638 0.2381,0.543 0.2381,0.8403 0,0.2807 -0.0758,0.5369 -0.2273,0.7688 -0.1519,0.2307 -0.3746,0.4142 -0.6703,0.5507 0.385,0.0881 0.6838,0.2731 0.8976,0.5534 0.2123,0.2792 0.3184,0.6296 0.3184,1.0496 0,0.5688 -0.2061,1.051 -0.6218,1.4471 -0.4138,0.3958 -0.9388,0.5931 -1.5726,0.5931 -0.5719,0 -1.0465,-0.17 -1.4241,-0.5111 -0.3777,-0.34 -0.5931,-0.7811 -0.6461,-1.3242zm9.2608 0.9511l0 0.7688 -4.3058 0c-0.0062,-0.1927 0.0242,-0.3777 0.0923,-0.555 0.1092,-0.2942 0.2853,-0.5826 0.5265,-0.8676 0.2426,-0.2838 0.5915,-0.6126 1.0464,-0.9861 0.7084,-0.5807 1.1876,-1.0403 1.4364,-1.3798 0.2485,-0.3385 0.3731,-0.66 0.3731,-0.9619 0,-0.3169 -0.1138,-0.5838 -0.34,-0.8022 -0.2273,-0.2169 -0.523,-0.3262 -0.8872,-0.3262 -0.385,0 -0.693,0.1154 -0.9234,0.3473 -0.2323,0.2308 -0.3488,0.5507 -0.3519,0.9588l-0.8222 -0.0835c0.0561,-0.6142 0.2684,-1.0814 0.6357,-1.4029 0.3669,-0.3215 0.8614,-0.4823 1.4802,-0.4823 0.6246,0 1.1192,0.1742 1.483,0.5203 0.3657,0.3473 0.5477,0.7765 0.5477,1.2892 0,0.2607 -0.0531,0.5172 -0.1608,0.7688 -0.1061,0.2519 -0.2834,0.5172 -0.5307,0.7949 -0.2473,0.2788 -0.6584,0.6611 -1.233,1.1464 -0.4796,0.4035 -0.7873,0.6765 -0.9238,0.8207 -0.1365,0.1423 -0.2488,0.2866 -0.338,0.4323l3.1955 0zm3.4201 0.7688l0 -1.5591 -2.8255 0 0 -0.7342 2.9724 -4.2208 0.6538 0 0 4.2208 0.8795 0 0 0.7342 -0.8795 0 0 1.5591 -0.8007 0zm0 -2.2933l0 -2.9363 -2.0387 2.9363 2.0387 0zm6.6475 -2.6252l-0.7949 0.062c-0.0711,-0.3139 -0.1711,-0.5427 -0.3015,-0.6838 -0.2169,-0.2292 -0.4838,-0.3427 -0.8011,-0.3427 -0.2546,0 -0.4776,0.0712 -0.6703,0.2138 -0.2515,0.1835 -0.4504,0.4519 -0.5961,0.8038 -0.1439,0.3519 -0.2196,0.8538 -0.2258,1.5061 0.1927,-0.2927 0.4277,-0.5112 0.7065,-0.6538 0.2777,-0.1412 0.5703,-0.2123 0.8753,-0.2123 0.5338,0 0.9872,0.1957 1.3618,0.5884 0.3746,0.3926 0.5631,0.8995 0.5631,1.5214 0,0.4092 -0.0896,0.7884 -0.2658,1.1403 -0.1757,0.3504 -0.4184,0.6203 -0.7265,0.8069 -0.3076,0.1865 -0.6565,0.2792 -1.048,0.2792 -0.6672,0 -1.2102,-0.2443 -1.6302,-0.7357 -0.4219,-0.49 -0.6311,-1.2984 -0.6311,-2.4237 0,-1.2588 0.2323,-2.1733 0.6976,-2.7452 0.405,-0.4972 0.9511,-0.7476 1.6395,-0.7476 0.5111,0 0.9315,0.1442 1.2591,0.4323 0.3277,0.2865 0.5231,0.6841 0.5884,1.1906zm-3.2655 2.8071c0,0.2762 0.0593,0.54 0.1762,0.7919 0.1165,0.2519 0.2803,0.443 0.4896,0.5749 0.2111,0.132 0.4322,0.1985 0.663,0.1985 0.338,0 0.6276,-0.1365 0.8703,-0.4096 0.2427,-0.2727 0.3642,-0.643 0.3642,-1.1099 0,-0.4507 -0.12,-0.8053 -0.3596,-1.0649 -0.2396,-0.2592 -0.5415,-0.3881 -0.9053,-0.3881 -0.3627,0 -0.6688,0.1289 -0.9207,0.3881 -0.2519,0.2596 -0.3777,0.5992 -0.3777,1.0191zm-197.24 10.7576l0.8264 0.102c-0.1303,0.4838 -0.3715,0.8583 -0.7234,1.1253 -0.3534,0.2653 -0.8037,0.3988 -1.3514,0.3988 -0.6899,0 -1.2376,-0.2123 -1.641,-0.6369 -0.405,-0.425 -0.6065,-1.0207 -0.6065,-1.7883 0,-0.7946 0.2046,-1.4103 0.6126,-1.8487 0.4096,-0.4385 0.9388,-0.6584 1.5911,-0.6584 0.6307,0 1.1464,0.2153 1.5452,0.6445 0.4004,0.4292 0.6007,1.0346 0.6007,1.8126 0,0.0484 -0.0015,0.12 -0.0046,0.2138l-3.5185 0c0.0288,0.5188 0.1757,0.9161 0.4399,1.1907 0.2639,0.2761 0.5915,0.4138 0.9857,0.4138 0.2927,0 0.5431,-0.0773 0.7507,-0.2319 0.2077,-0.1531 0.3715,-0.3988 0.4931,-0.7373zm-2.6256 -1.2937l2.6344 0c-0.0346,-0.3957 -0.1365,-0.6946 -0.3015,-0.8915 -0.255,-0.308 -0.5857,-0.4626 -0.9907,-0.4626 -0.3669,0 -0.6761,0.1227 -0.9265,0.3684 -0.2503,0.2458 -0.3884,0.575 -0.4157,0.9857zm4.1451 0.8588l0 -0.8042 2.4586 0 0 0.8042 -2.4586 0zm3.3428 1.9548l0 -4.7185 0.7141 0 0 0.6615c0.1489,-0.2307 0.3458,-0.4172 0.5915,-0.5568 0.2458,-0.1408 0.5265,-0.2123 0.8404,-0.2123 0.3488,0 0.6353,0.073 0.8584,0.2184 0.2245,0.1458 0.3822,0.3473 0.4734,0.6084 0.3746,-0.5507 0.8599,-0.8268 1.4572,-0.8268 0.4688,0 0.8284,0.1303 1.0799,0.3899 0.2519,0.2592 0.3776,0.6581 0.3776,1.1965l0 3.2397 -0.7945 0 0 -2.9728c0,-0.32 -0.0258,-0.5504 -0.0773,-0.6915 -0.0531,-0.1396 -0.1473,-0.2531 -0.2823,-0.3396 -0.1365,-0.085 -0.2973,-0.1288 -0.4807,-0.1288 -0.3323,0 -0.6065,0.1103 -0.8265,0.3319 -0.2184,0.2199 -0.3292,0.5734 -0.3292,1.0587l0 2.7421 -0.7992 0 0 -3.0651c0,-0.3565 -0.0654,-0.6234 -0.1957,-0.8007 -0.1304,-0.1777 -0.3427,-0.2669 -0.64,-0.2669 -0.2246,0 -0.4322,0.0588 -0.6234,0.1788 -0.1911,0.1181 -0.3307,0.2911 -0.4157,0.5188 -0.0866,0.2288 -0.1289,0.558 -0.1289,0.9872l0 2.4479 -0.7991 0z"/>
   <path id="_846699160" class="fil1" d="M50.1746 141.02c-0.2972,0.2515 -0.5822,0.4292 -0.8553,0.5338 -0.2746,0.103 -0.5688,0.1546 -0.8826,0.1546 -0.5188,0 -0.9161,-0.1258 -1.1953,-0.3792 -0.2773,-0.2531 -0.4169,-0.5777 -0.4169,-0.9707 0,-0.2319 0.0516,-0.4427 0.1577,-0.6338 0.1046,-0.1912 0.2427,-0.3442 0.4127,-0.4596 0.1711,-0.1154 0.3622,-0.2034 0.5761,-0.2623 0.1561,-0.0411 0.393,-0.0819 0.7099,-0.12 0.6461,-0.0773 1.1222,-0.1684 1.4272,-0.2761 0.0031,-0.1092 0.0046,-0.1788 0.0046,-0.2077 0,-0.3261 -0.0761,-0.5565 -0.2276,-0.6884 -0.2031,-0.1823 -0.5081,-0.2715 -0.91,-0.2715 -0.3761,0 -0.6538,0.065 -0.8341,0.1969 -0.1789,0.1319 -0.3112,0.3657 -0.3973,0.7007l-0.7811 -0.1077c0.0711,-0.3334 0.1881,-0.6049 0.3503,-0.8099 0.1623,-0.2061 0.3989,-0.3654 0.7065,-0.4761 0.3081,-0.1108 0.6646,-0.1669 1.0711,-0.1669 0.4034,0 0.7296,0.0484 0.9811,0.1426 0.2519,0.0954 0.4369,0.2139 0.5565,0.3581 0.1184,0.1438 0.2003,0.3246 0.2488,0.5442 0.0258,0.1365 0.0396,0.3823 0.0396,0.7372l0 1.0661c0,0.7449 0.0165,1.2149 0.0515,1.4107 0.0335,0.1972 0.1016,0.3868 0.2016,0.5672l-0.8357 0c-0.082,-0.1654 -0.1366,-0.3596 -0.1593,-0.5822zm-0.0665 -1.7868c-0.2911,0.12 -0.7265,0.22 -1.306,0.3034 -0.3289,0.0469 -0.5627,0.1 -0.6977,0.1592 -0.1365,0.0593 -0.2426,0.1454 -0.3153,0.2608 -0.0743,0.1138 -0.1123,0.2396 -0.1123,0.3792 0,0.2138 0.0819,0.3915 0.2426,0.5338 0.1608,0.1411 0.3973,0.2123 0.7084,0.2123 0.3077,0 0.5823,-0.0666 0.8219,-0.2015 0.2396,-0.135 0.4173,-0.32 0.5296,-0.5538 0.0861,-0.1804 0.1288,-0.4473 0.1288,-0.7992l0 -0.2942zm2.0522 -3.2244l0 -0.9207 0.8007 0 0 0.9207 -0.8007 0zm0 5.5934l0 -4.7185 0.8007 0 0 4.7185 -0.8007 0zm2.0002 0l0 -6.5141 0.7995 0 0 6.5141 -0.7995 0zm2.2613 -3.8085l0 -0.91 0.9119 0 0 0.91 -0.9119 0zm0 3.8085l0 -0.9114 0.9119 0 0 0.9114 -0.9119 0zm5.5723 0l-0.7415 0 0 -6.5141 0.7992 0 0 2.3237c0.3384,-0.4234 0.7692,-0.6357 1.2922,-0.6357 0.2911,0 0.5657,0.0592 0.8253,0.1761 0.2592,0.1165 0.4715,0.2819 0.64,0.4927 0.1669,0.2126 0.2988,0.4672 0.3926,0.7676 0.0958,0.2988 0.1427,0.6188 0.1427,0.9584 0,0.8099 -0.2004,1.4349 -0.6007,1.8764 -0.3988,0.4411 -0.8796,0.6611 -1.4391,0.6611 -0.5569,0 -0.9934,-0.2319 -1.3107,-0.6977l0 0.5915zm-0.0088 -2.3948c0,0.5657 0.0773,0.9738 0.2303,1.2253 0.2519,0.4127 0.593,0.6188 1.0222,0.6188 0.3504,0 0.6523,-0.1515 0.9069,-0.4565 0.255,-0.3031 0.3823,-0.7553 0.3823,-1.3572 0,-0.6157 -0.1227,-1.0707 -0.3669,-1.3637 -0.2442,-0.2927 -0.54,-0.4396 -0.8857,-0.4396 -0.3504,0 -0.6523,0.1515 -0.9073,0.4549 -0.2546,0.3035 -0.3818,0.7431 -0.3818,1.318zm4.3361 -3.1986l0 -0.9207 0.8008 0 0 0.9207 -0.8008 0zm0 5.5934l0 -4.7185 0.8008 0 0 4.7185 -0.8008 0zm2.0187 0l0 -4.7185 0.7188 0 0 0.6704c0.3473,-0.5184 0.8476,-0.778 1.5014,-0.778 0.2854,0 0.5462,0.0515 0.7842,0.1534 0.2396,0.1031 0.4173,0.2365 0.5354,0.4034 0.1199,0.165 0.2019,0.3623 0.2503,0.59 0.0289,0.1484 0.0439,0.408 0.0439,0.778l0 2.9013 -0.8007 0 0 -2.8709c0,-0.3246 -0.0304,-0.5688 -0.0927,-0.7311 -0.0619,-0.1608 -0.1727,-0.2896 -0.3304,-0.3854 -0.1592,-0.0969 -0.3442,-0.1453 -0.5584,-0.1453 -0.3411,0 -0.6338,0.1088 -0.8826,0.3242 -0.2473,0.2169 -0.37,0.6265 -0.37,1.2318l0 2.5767 -0.7992 0zm8.1217 0l0 -0.5961c-0.2988,0.4688 -0.7388,0.7023 -1.3195,0.7023 -0.3761,0 -0.7219,-0.1031 -1.0372,-0.3108 -0.3158,-0.2065 -0.56,-0.4961 -0.7342,-0.8691 -0.1731,-0.3716 -0.2596,-0.7977 -0.2596,-1.2819 0,-0.4699 0.0792,-0.8976 0.2354,-1.2814 0.1576,-0.3838 0.3926,-0.678 0.7064,-0.8811 0.3142,-0.205 0.6661,-0.308 1.0542,-0.308 0.2838,0 0.5369,0.0607 0.7584,0.1807 0.2231,0.1196 0.4034,0.2758 0.543,0.4684l0 -2.3371 0.7946 0 0 6.5141 -0.7415 0zm-2.5283 -2.3556c0,0.6054 0.1273,1.0573 0.3823,1.3561 0.2546,0.2988 0.555,0.4488 0.9023,0.4488 0.3488,0 0.6461,-0.1438 0.8903,-0.4292 0.2442,-0.285 0.3672,-0.7219 0.3672,-1.3087 0,-0.6461 -0.1246,-1.1192 -0.3734,-1.4211 -0.2484,-0.3034 -0.5549,-0.4534 -0.9203,-0.4534 -0.355,0 -0.6523,0.1454 -0.8903,0.435 -0.2385,0.2899 -0.3581,0.748 -0.3581,1.3725zm7.7579 0.8357l0.8265 0.102c-0.1304,0.4838 -0.3716,0.8583 -0.7234,1.1253 -0.3535,0.2653 -0.8038,0.3988 -1.3515,0.3988 -0.6899,0 -1.2376,-0.2123 -1.641,-0.6369 -0.405,-0.425 -0.6065,-1.0207 -0.6065,-1.7883 0,-0.7946 0.2046,-1.4103 0.6127,-1.8487 0.4095,-0.4385 0.9387,-0.6584 1.591,-0.6584 0.6307,0 1.1464,0.2153 1.5452,0.6445 0.4004,0.4292 0.6008,1.0346 0.6008,1.8126 0,0.0484 -0.0016,0.12 -0.0047,0.2138l-3.5185 0c0.0288,0.5188 0.1757,0.9161 0.4399,1.1907 0.2639,0.2761 0.5915,0.4138 0.9857,0.4138 0.2927,0 0.5431,-0.0773 0.7507,-0.2319 0.2077,-0.1531 0.3716,-0.3988 0.4931,-0.7373zm-2.6256 -1.2937l2.6344 0c-0.0346,-0.3957 -0.1365,-0.6946 -0.3015,-0.8915 -0.255,-0.308 -0.5857,-0.4626 -0.9907,-0.4626 -0.3669,0 -0.6761,0.1227 -0.9264,0.3684 -0.2504,0.2458 -0.3885,0.575 -0.4158,0.9857zm4.4485 2.8136l0 -4.7185 0.7188 0 0 0.7146c0.1838,-0.3338 0.3534,-0.5553 0.5096,-0.6615 0.155,-0.1061 0.3261,-0.1607 0.5126,-0.1607 0.27,0 0.5431,0.0865 0.8223,0.258l-0.2762 0.743c-0.1942,-0.1169 -0.3895,-0.1742 -0.5853,-0.1742 -0.1761,0 -0.3323,0.0531 -0.4719,0.1577 -0.1392,0.1061 -0.238,0.2515 -0.2973,0.438 -0.0892,0.2839 -0.1334,0.5946 -0.1334,0.933l0 2.4706 -0.7992 0zm6.1318 0l0 -0.693c-0.3684,0.5338 -0.8676,0.7992 -1.4987,0.7992 -0.2773,0 -0.5384,-0.0531 -0.7795,-0.1593 -0.2412,-0.1061 -0.42,-0.2411 -0.5369,-0.4018 -0.1181,-0.1623 -0.2,-0.3596 -0.2469,-0.5931 -0.0319,-0.1577 -0.0489,-0.4065 -0.0489,-0.7476l0 -2.9229 0.7996 0 0 2.6164c0,0.4188 0.0165,0.6992 0.0484,0.8449 0.0516,0.2108 0.1577,0.3746 0.32,0.4957 0.1639,0.12 0.3654,0.1793 0.6054,0.1793 0.2396,0 0.4638,-0.0608 0.6745,-0.1839 0.2112,-0.1227 0.3596,-0.2911 0.4461,-0.5019 0.0881,-0.2122 0.1319,-0.5203 0.1319,-0.9222l0 -2.5283 0.7992 0 0 4.7185 -0.7142 0zm1.9503 0l0 -6.5141 0.7995 0 0 6.5141 -0.7995 0zm5.1188 -0.5822c-0.2973,0.2515 -0.5823,0.4292 -0.8553,0.5338 -0.2746,0.103 -0.5688,0.1546 -0.8826,0.1546 -0.5188,0 -0.9161,-0.1258 -1.1953,-0.3792 -0.2773,-0.2531 -0.4169,-0.5777 -0.4169,-0.9707 0,-0.2319 0.0515,-0.4427 0.1577,-0.6338 0.1046,-0.1912 0.2426,-0.3442 0.4126,-0.4596 0.1712,-0.1154 0.3623,-0.2034 0.5761,-0.2623 0.1562,-0.0411 0.3931,-0.0819 0.71,-0.12 0.6461,-0.0773 1.1222,-0.1684 1.4272,-0.2761 0.003,-0.1092 0.0046,-0.1788 0.0046,-0.2077 0,-0.3261 -0.0762,-0.5565 -0.2277,-0.6884 -0.2031,-0.1823 -0.508,-0.2715 -0.9099,-0.2715 -0.3761,0 -0.6538,0.065 -0.8342,0.1969 -0.1788,0.1319 -0.3111,0.3657 -0.3973,0.7007l-0.7811 -0.1077c0.0712,-0.3334 0.1881,-0.6049 0.3504,-0.8099 0.1623,-0.2061 0.3988,-0.3654 0.7065,-0.4761 0.308,-0.1108 0.6645,-0.1669 1.0711,-0.1669 0.4034,0 0.7295,0.0484 0.981,0.1426 0.2519,0.0954 0.4369,0.2139 0.5565,0.3581 0.1185,0.1438 0.2004,0.3246 0.2488,0.5442 0.0258,0.1365 0.0397,0.3823 0.0397,0.7372l0 1.0661c0,0.7449 0.0165,1.2149 0.0515,1.4107 0.0335,0.1972 0.1015,0.3868 0.2015,0.5672l-0.8357 0c-0.0819,-0.1654 -0.1365,-0.3596 -0.1592,-0.5822zm-0.0665 -1.7868c-0.2912,0.12 -0.7265,0.22 -1.3061,0.3034 -0.3288,0.0469 -0.5626,0.1 -0.6976,0.1592 -0.1366,0.0593 -0.2427,0.1454 -0.3154,0.2608 -0.0742,0.1138 -0.1123,0.2396 -0.1123,0.3792 0,0.2138 0.0819,0.3915 0.2427,0.5338 0.1607,0.1411 0.3973,0.2123 0.7084,0.2123 0.3077,0 0.5823,-0.0666 0.8219,-0.2015 0.2396,-0.135 0.4172,-0.32 0.5295,-0.5538 0.0862,-0.1804 0.1289,-0.4473 0.1289,-0.7992l0 -0.2942zm2.0398 2.369l0 -4.7185 0.7188 0 0 0.7146c0.1838,-0.3338 0.3534,-0.5553 0.5096,-0.6615 0.155,-0.1061 0.3261,-0.1607 0.5126,-0.1607 0.27,0 0.5431,0.0865 0.8223,0.258l-0.2762 0.743c-0.1942,-0.1169 -0.3896,-0.1742 -0.5853,-0.1742 -0.1761,0 -0.3323,0.0531 -0.4719,0.1577 -0.1392,0.1061 -0.2381,0.2515 -0.2973,0.438 -0.0892,0.2839 -0.1334,0.5946 -0.1334,0.933l0 2.4706 -0.7992 0zm3.0394 0l0 -4.7185 0.7188 0 0 0.6704c0.3472,-0.5184 0.8476,-0.778 1.5014,-0.778 0.2853,0 0.5461,0.0515 0.7842,0.1534 0.2396,0.1031 0.4172,0.2365 0.5353,0.4034 0.12,0.165 0.2019,0.3623 0.2504,0.59 0.0288,0.1484 0.0438,0.408 0.0438,0.778l0 2.9013 -0.8007 0 0 -2.8709c0,-0.3246 -0.0304,-0.5688 -0.0927,-0.7311 -0.0619,-0.1608 -0.1727,-0.2896 -0.3303,-0.3854 -0.1593,-0.0969 -0.3442,-0.1453 -0.5585,-0.1453 -0.3411,0 -0.6338,0.1088 -0.8826,0.3242 -0.2473,0.2169 -0.37,0.6265 -0.37,1.2318l0 2.5767 -0.7991 0zm8.2901 -1.5199l0.8265 0.102c-0.1304,0.4838 -0.3715,0.8583 -0.7234,1.1253 -0.3535,0.2653 -0.8038,0.3988 -1.3515,0.3988 -0.6899,0 -1.2376,-0.2123 -1.641,-0.6369 -0.405,-0.425 -0.6065,-1.0207 -0.6065,-1.7883 0,-0.7946 0.2046,-1.4103 0.6127,-1.8487 0.4095,-0.4385 0.9387,-0.6584 1.591,-0.6584 0.6307,0 1.1464,0.2153 1.5452,0.6445 0.4004,0.4292 0.6008,1.0346 0.6008,1.8126 0,0.0484 -0.0016,0.12 -0.0046,0.2138l-3.5186 0c0.0288,0.5188 0.1757,0.9161 0.44,1.1907 0.2638,0.2761 0.5914,0.4138 0.9856,0.4138 0.2927,0 0.5431,-0.0773 0.7508,-0.2319 0.2076,-0.1531 0.3715,-0.3988 0.493,-0.7373zm-2.6256 -1.2937l2.6344 0c-0.0346,-0.3957 -0.1365,-0.6946 -0.3015,-0.8915 -0.255,-0.308 -0.5857,-0.4626 -0.9907,-0.4626 -0.3669,0 -0.6761,0.1227 -0.9264,0.3684 -0.2504,0.2458 -0.3885,0.575 -0.4158,0.9857zm6.2034 2.0979l0.1154 0.7065c-0.2246,0.0473 -0.4265,0.0715 -0.6038,0.0715 -0.2912,0 -0.5158,-0.0457 -0.6765,-0.138 -0.1592,-0.0912 -0.2715,-0.2123 -0.3365,-0.3627 -0.0654,-0.1485 -0.0989,-0.4638 -0.0989,-0.9434l0 -2.7148 -0.5868 0 0 -0.6219 0.5868 0 0 -1.1691 0.7965 -0.4796 0 1.6487 0.8038 0 0 0.6219 -0.8038 0 0 2.759c0,0.2289 0.0135,0.3746 0.0408,0.4396 0.0288,0.0654 0.0742,0.1169 0.138,0.1565 0.0639,0.0377 0.1546,0.0573 0.2731,0.0573 0.0896,0 0.2061,-0.0103 0.3519,-0.0315zm1.0084 0.7157l0 -0.9114 0.9114 0 0 0.9114 -0.9114 0zm5.3811 -1.7291l0.7857 0.1031c-0.085,0.5415 -0.305,0.9665 -0.6596,1.2726 -0.3534,0.3065 -0.7888,0.4596 -1.3045,0.4596 -0.6446,0 -1.1649,-0.2108 -1.556,-0.6323 -0.3931,-0.4219 -0.59,-1.0268 -0.59,-1.8156 0,-0.5096 0.085,-0.9557 0.2531,-1.3376 0.17,-0.3823 0.4265,-0.6688 0.7722,-0.8599 0.3442,-0.1912 0.7204,-0.2869 1.1253,-0.2869 0.5127,0 0.9326,0.1303 1.2572,0.3899 0.3262,0.2592 0.5354,0.6265 0.6281,1.1042l-0.7781 0.1196c-0.0742,-0.3169 -0.2049,-0.555 -0.393,-0.7157 -0.1881,-0.1592 -0.4154,-0.2396 -0.6823,-0.2396 -0.4034,0 -0.731,0.1438 -0.983,0.4338 -0.2515,0.288 -0.3776,0.7445 -0.3776,1.3695 0,0.6338 0.1215,1.0949 0.3657,1.383 0.2427,0.2869 0.5596,0.4307 0.9507,0.4307 0.3142,0 0.575,-0.0969 0.7857,-0.2896 0.2108,-0.1927 0.3442,-0.4884 0.4004,-0.8888zm1.1726 -0.6307c0,-0.8738 0.2427,-1.5214 0.7295,-1.9414 0.405,-0.3488 0.8992,-0.5249 1.4834,-0.5249 0.6488,0 1.1799,0.2123 1.591,0.6388 0.4123,0.4245 0.6173,1.0114 0.6173,1.7606 0,0.6084 -0.0912,1.0861 -0.2731,1.4333 -0.1823,0.3489 -0.4476,0.6188 -0.7949,0.8115 -0.3488,0.1927 -0.728,0.2881 -1.1403,0.2881 -0.66,0 -1.1938,-0.2108 -1.6018,-0.6354 -0.4081,-0.4234 -0.6111,-1.033 -0.6111,-1.8306zm0.8218 0c0,0.605 0.1319,1.0568 0.3962,1.3572 0.2638,0.3019 0.5957,0.4519 0.9949,0.4519 0.3973,0 0.728,-0.1515 0.9918,-0.4534 0.2623,-0.3015 0.3942,-0.7627 0.3942,-1.3815 0,-0.5841 -0.1319,-1.0268 -0.3973,-1.3272 -0.2653,-0.3003 -0.5945,-0.4503 -0.9887,-0.4503 -0.3992,0 -0.7311,0.15 -0.9949,0.4488 -0.2643,0.2988 -0.3962,0.7507 -0.3962,1.3545zm4.5381 2.3598l0 -4.7185 0.7142 0 0 0.6615c0.1488,-0.2307 0.3458,-0.4172 0.5915,-0.5568 0.2458,-0.1408 0.5265,-0.2123 0.8403,-0.2123 0.3488,0 0.6354,0.073 0.8584,0.2184 0.2246,0.1458 0.3823,0.3473 0.4734,0.6084 0.3746,-0.5507 0.86,-0.8268 1.4572,-0.8268 0.4688,0 0.8284,0.1303 1.0799,0.3899 0.252,0.2592 0.3777,0.6581 0.3777,1.1965l0 3.2397 -0.7945 0 0 -2.9728c0,-0.32 -0.0258,-0.5504 -0.0773,-0.6915 -0.0531,-0.1396 -0.1473,-0.2531 -0.2823,-0.3396 -0.1366,-0.085 -0.2973,-0.1288 -0.4808,-0.1288 -0.3322,0 -0.6064,0.1103 -0.8264,0.3319 -0.2185,0.2199 -0.3292,0.5734 -0.3292,1.0587l0 2.7421 -0.7992 0 0 -3.0651c0,-0.3565 -0.0654,-0.6234 -0.1958,-0.8007 -0.1303,-0.1777 -0.3426,-0.2669 -0.6399,-0.2669 -0.2246,0 -0.4323,0.0588 -0.6234,0.1788 -0.1912,0.1181 -0.3308,0.2911 -0.4158,0.5188 -0.0865,0.2288 -0.1288,0.558 -0.1288,0.9872l0 2.4479 -0.7992 0zm7.806 0l0 -0.9114 0.9114 0 0 0.9114 -0.9114 0zm5.3811 -0.5822c-0.2973,0.2515 -0.5823,0.4292 -0.8553,0.5338 -0.2746,0.103 -0.5688,0.1546 -0.8827,0.1546 -0.5188,0 -0.916,-0.1258 -1.1953,-0.3792 -0.2772,-0.2531 -0.4168,-0.5777 -0.4168,-0.9707 0,-0.2319 0.0515,-0.4427 0.1576,-0.6338 0.1046,-0.1912 0.2427,-0.3442 0.4127,-0.4596 0.1711,-0.1154 0.3623,-0.2034 0.5761,-0.2623 0.1561,-0.0411 0.393,-0.0819 0.7099,-0.12 0.6461,-0.0773 1.1223,-0.1684 1.4272,-0.2761 0.0031,-0.1092 0.0047,-0.1788 0.0047,-0.2077 0,-0.3261 -0.0762,-0.5565 -0.2277,-0.6884 -0.2031,-0.1823 -0.5081,-0.2715 -0.9099,-0.2715 -0.3762,0 -0.6538,0.065 -0.8342,0.1969 -0.1788,0.1319 -0.3111,0.3657 -0.3973,0.7007l-0.7811 -0.1077c0.0712,-0.3334 0.1881,-0.6049 0.3504,-0.8099 0.1623,-0.2061 0.3988,-0.3654 0.7065,-0.4761 0.308,-0.1108 0.6645,-0.1669 1.071,-0.1669 0.4035,0 0.7296,0.0484 0.9811,0.1426 0.2519,0.0954 0.4369,0.2139 0.5565,0.3581 0.1185,0.1438 0.2004,0.3246 0.2488,0.5442 0.0258,0.1365 0.0396,0.3823 0.0396,0.7372l0 1.0661c0,0.7449 0.0166,1.2149 0.0516,1.4107 0.0334,0.1972 0.1015,0.3868 0.2015,0.5672l-0.8357 0c-0.0819,-0.1654 -0.1365,-0.3596 -0.1592,-0.5822zm-0.0666 -1.7868c-0.2911,0.12 -0.7264,0.22 -1.306,0.3034 -0.3288,0.0469 -0.5627,0.1 -0.6976,0.1592 -0.1366,0.0593 -0.2427,0.1454 -0.3154,0.2608 -0.0742,0.1138 -0.1123,0.2396 -0.1123,0.3792 0,0.2138 0.0819,0.3915 0.2427,0.5338 0.1607,0.1411 0.3972,0.2123 0.7084,0.2123 0.3076,0 0.5822,-0.0666 0.8218,-0.2015 0.2396,-0.135 0.4173,-0.32 0.5296,-0.5538 0.0862,-0.1804 0.1288,-0.4473 0.1288,-0.7992l0 -0.2942zm2.0399 2.369l0 -4.7185 0.7188 0 0 0.7146c0.1838,-0.3338 0.3534,-0.5553 0.5095,-0.6615 0.155,-0.1061 0.3262,-0.1607 0.5127,-0.1607 0.27,0 0.543,0.0865 0.8222,0.258l-0.2761 0.743c-0.1942,-0.1169 -0.3896,-0.1742 -0.5853,-0.1742 -0.1762,0 -0.3323,0.0531 -0.4719,0.1577 -0.1392,0.1061 -0.2381,0.2515 -0.2973,0.438 -0.0892,0.2839 -0.1335,0.5946 -0.1335,0.933l0 2.4706 -0.7991 0zm5.2549 -1.9548l0 -0.8042 2.4587 0 0 0.8042 -2.4587 0zm10.6196 -0.3292l0.863 0.2184c-0.1804,0.7065 -0.5065,1.2465 -0.9753,1.6199 -0.47,0.3715 -1.0434,0.5565 -1.7229,0.5565 -0.7019,0 -1.2723,-0.1427 -1.7122,-0.4277 -0.44,-0.2869 -0.775,-0.7007 -1.0042,-1.2422 -0.2288,-0.543 -0.3442,-1.1253 -0.3442,-1.7472 0,-0.678 0.1289,-1.2695 0.3885,-1.7744 0.2592,-0.5054 0.6276,-0.8888 1.1072,-1.1515 0.4776,-0.2623 1.0037,-0.3926 1.5787,-0.3926 0.6523,0 1.1995,0.1653 1.6441,0.4976 0.4442,0.3319 0.7538,0.7976 0.928,1.3999l-0.8476 0.2c-0.1515,-0.4746 -0.37,-0.8188 -0.6584,-1.0357 -0.2865,-0.2169 -0.6477,-0.3246 -1.0842,-0.3246 -0.5007,0 -0.9176,0.1196 -1.2545,0.3592 -0.3365,0.2411 -0.573,0.5627 -0.708,0.9676 -0.1365,0.4035 -0.205,0.8207 -0.205,1.2499 0,0.555 0.0804,1.0373 0.2411,1.4515 0.1623,0.4126 0.4127,0.7218 0.7538,0.9268 0.3415,0.2046 0.71,0.3061 1.1072,0.3061 0.4823,0 0.8904,-0.1396 1.2257,-0.4169 0.335,-0.2792 0.5611,-0.693 0.6792,-1.2406zm2.0491 2.284l0 -0.9114 0.9114 0 0 0.9114 -0.9114 0zm2.404 0l0 -6.5141 2.4571 0c0.4323,0 0.7626,0.0212 0.9903,0.0623 0.32,0.0531 0.5884,0.1546 0.8053,0.3046 0.2154,0.1488 0.3896,0.3596 0.5219,0.628 0.1319,0.27 0.1969,0.5658 0.1969,0.8888 0,0.5534 -0.1757,1.0238 -0.5276,1.4076 -0.3535,0.3823 -0.9903,0.5746 -1.911,0.5746l-1.6714 0 0 2.6482 -0.8615 0zm0.8615 -3.417l1.6848 0c0.5569,0 0.9527,-0.1031 1.1861,-0.3111 0.2338,-0.2077 0.3504,-0.4989 0.3504,-0.875 0,-0.273 -0.0681,-0.5065 -0.2062,-0.7007 -0.138,-0.1942 -0.3184,-0.3215 -0.5446,-0.3838 -0.1453,-0.0377 -0.4126,-0.0577 -0.8037,-0.0577l-1.6668 0 0 2.3283zm4.1604 3.417l0 -0.9114 0.9115 0 0 0.9114 -0.9115 0zm4.6123 -1.7198l0.7992 -0.1062c0.0927,0.4534 0.2488,0.7796 0.4688,0.9795 0.2212,0.2004 0.49,0.3004 0.8069,0.3004 0.3761,0 0.6945,-0.1304 0.9537,-0.3911 0.2581,-0.2608 0.3885,-0.5838 0.3885,-0.9692 0,-0.3672 -0.12,-0.6703 -0.3596,-0.9084 -0.2411,-0.2384 -0.5457,-0.358 -0.9161,-0.358 -0.1515,0 -0.3396,0.0304 -0.5642,0.0896l0.0896 -0.7022c0.0531,0.0057 0.0954,0.0088 0.1289,0.0088 0.3396,0 0.6461,-0.0892 0.9191,-0.2669 0.2731,-0.1773 0.4096,-0.4519 0.4096,-0.8219 0,-0.2926 -0.1004,-0.5368 -0.2988,-0.728 -0.1988,-0.1927 -0.455,-0.2896 -0.7692,-0.2896 -0.3107,0 -0.5699,0.0985 -0.7765,0.2927 -0.2076,0.1954 -0.3411,0.4896 -0.4003,0.8811l-0.7992 -0.1427c0.0969,-0.5369 0.32,-0.9522 0.6657,-1.2464 0.3473,-0.2946 0.7781,-0.4431 1.2938,-0.4431 0.355,0 0.6826,0.0773 0.9814,0.2288 0.2985,0.1535 0.5277,0.3612 0.6869,0.625 0.1577,0.2638 0.2381,0.543 0.2381,0.8403 0,0.2808 -0.0758,0.5369 -0.2273,0.7688 -0.1519,0.2307 -0.3746,0.4142 -0.6704,0.5507 0.385,0.0881 0.6838,0.2731 0.8977,0.5534 0.2123,0.2792 0.3184,0.6296 0.3184,1.0496 0,0.5688 -0.2061,1.051 -0.6219,1.4472 -0.4138,0.3957 -0.9387,0.593 -1.5725,0.593 -0.5719,0 -1.0465,-0.17 -1.4242,-0.5111 -0.3776,-0.34 -0.593,-0.7811 -0.6461,-1.3241zm5.0612 0l0.7991 -0.1062c0.0927,0.4534 0.2489,0.7796 0.4689,0.9795 0.2211,0.2004 0.4899,0.3004 0.8068,0.3004 0.3761,0 0.6946,-0.1304 0.9538,-0.3911 0.258,-0.2608 0.3884,-0.5838 0.3884,-0.9692 0,-0.3672 -0.12,-0.6703 -0.3596,-0.9084 -0.2411,-0.2384 -0.5457,-0.358 -0.9161,-0.358 -0.1515,0 -0.3395,0.0304 -0.5641,0.0896l0.0896 -0.7022c0.053,0.0057 0.0953,0.0088 0.1288,0.0088 0.3396,0 0.6461,-0.0892 0.9192,-0.2669 0.273,-0.1773 0.4095,-0.4519 0.4095,-0.8219 0,-0.2926 -0.1003,-0.5368 -0.2988,-0.728 -0.1988,-0.1927 -0.4549,-0.2896 -0.7691,-0.2896 -0.3108,0 -0.57,0.0985 -0.7765,0.2927 -0.2077,0.1954 -0.3411,0.4896 -0.4004,0.8811l-0.7991 -0.1427c0.0969,-0.5369 0.3199,-0.9522 0.6657,-1.2464 0.3473,-0.2946 0.778,-0.4431 1.2937,-0.4431 0.355,0 0.6827,0.0773 0.9815,0.2288 0.2984,0.1535 0.5276,0.3612 0.6868,0.625 0.1577,0.2638 0.2381,0.543 0.2381,0.8403 0,0.2808 -0.0758,0.5369 -0.2273,0.7688 -0.1519,0.2307 -0.3746,0.4142 -0.6703,0.5507 0.385,0.0881 0.6838,0.2731 0.8976,0.5534 0.2123,0.2792 0.3184,0.6296 0.3184,1.0496 0,0.5688 -0.2061,1.051 -0.6218,1.4472 -0.4138,0.3957 -0.9388,0.593 -1.5726,0.593 -0.5719,0 -1.0465,-0.17 -1.4241,-0.5111 -0.3777,-0.34 -0.593,-0.7811 -0.6461,-1.3241zm9.2062 -3.1986l-0.795 0.0619c-0.0711,-0.3138 -0.1711,-0.5427 -0.3015,-0.6838 -0.2169,-0.2292 -0.4838,-0.3427 -0.8011,-0.3427 -0.2546,0 -0.4776,0.0712 -0.6703,0.2139 -0.2515,0.1834 -0.4503,0.4518 -0.5961,0.8037 -0.1438,0.3519 -0.2196,0.8538 -0.2258,1.5061 0.1927,-0.2927 0.4277,-0.5111 0.7065,-0.6538 0.2777,-0.1412 0.5704,-0.2123 0.8753,-0.2123 0.5338,0 0.9873,0.1957 1.3619,0.5884 0.3745,0.3927 0.563,0.8995 0.563,1.5214 0,0.4092 -0.0896,0.7884 -0.2658,1.1403 -0.1757,0.3504 -0.4184,0.6203 -0.7264,0.8069 -0.3077,0.1865 -0.6565,0.2792 -1.048,0.2792 -0.6673,0 -1.2103,-0.2442 -1.6303,-0.7357 -0.4219,-0.49 -0.6311,-1.2984 -0.6311,-2.4237 0,-1.2587 0.2323,-2.1733 0.6976,-2.7452 0.405,-0.4972 0.9511,-0.7476 1.6395,-0.7476 0.5111,0 0.9315,0.1442 1.2592,0.4323 0.3276,0.2865 0.523,0.6842 0.5884,1.1907zm-3.2655 2.807c0,0.2762 0.0592,0.54 0.1761,0.7919 0.1165,0.2519 0.2804,0.4431 0.4896,0.575 0.2111,0.1319 0.4323,0.1984 0.663,0.1984 0.3381,0 0.6276,-0.1365 0.8703,-0.4096 0.2427,-0.2726 0.3642,-0.643 0.3642,-1.1099 0,-0.4507 -0.12,-0.8053 -0.3596,-1.0649 -0.2396,-0.2592 -0.5415,-0.388 -0.9053,-0.388 -0.3626,0 -0.6688,0.1288 -0.9207,0.388 -0.2519,0.2596 -0.3776,0.5992 -0.3776,1.0191zm4.1769 -1.101c0,-0.7703 0.0789,-1.3907 0.2381,-1.8595 0.1577,-0.4699 0.3942,-0.8326 0.7069,-1.0872 0.3122,-0.255 0.7053,-0.3823 1.1783,-0.3823 0.3504,0 0.6569,0.0712 0.9207,0.2123 0.2639,0.1396 0.4808,0.3427 0.6538,0.608 0.1712,0.2658 0.3062,0.5888 0.4035,0.9692 0.0984,0.3807 0.1469,0.8934 0.1469,1.5395 0,0.7645 -0.0789,1.3803 -0.235,1.8506 -0.1577,0.47 -0.3927,0.8326 -0.7053,1.0888 -0.3123,0.2565 -0.7069,0.3838 -1.1846,0.3838 -0.628,0 -1.1206,-0.2246 -1.4787,-0.675 -0.4292,-0.5415 -0.6446,-1.4256 -0.6446,-2.6482zm0.8219 0c0,1.0695 0.1261,1.7806 0.3761,2.1356 0.2504,0.3534 0.5584,0.5307 0.9253,0.5307 0.3685,0 0.6765,-0.1788 0.9269,-0.5338 0.25,-0.355 0.3761,-1.0661 0.3761,-2.1325 0,-1.0722 -0.1261,-1.7849 -0.3761,-2.1368 -0.2504,-0.3534 -0.5611,-0.5295 -0.9346,-0.5295 -0.3684,0 -0.6611,0.1565 -0.881,0.4672 -0.2746,0.3958 -0.4127,1.1299 -0.4127,2.1991zm6.8298 0.0396c0,-1.0815 0.2896,-1.9279 0.8704,-2.539 0.5811,-0.6111 1.3302,-0.9177 2.2494,-0.9177 0.6003,0 1.1434,0.1443 1.6256,0.4308 0.4823,0.2884 0.8511,0.6888 1.1042,1.203 0.2534,0.5126 0.3792,1.0964 0.3792,1.7471 0,0.6611 -0.1319,1.2526 -0.3988,1.773 -0.2669,0.5215 -0.6446,0.916 -1.133,1.1845 -0.49,0.2684 -1.0161,0.4019 -1.5818,0.4019 -0.6142,0 -1.1618,-0.1473 -1.6441,-0.4446 -0.4838,-0.2957 -0.8492,-0.7007 -1.098,-1.2134 -0.2488,-0.5111 -0.3731,-1.0537 -0.3731,-1.6256zm0.8888 0.0135c0,0.7857 0.2108,1.4029 0.6323,1.8548 0.423,0.4523 0.9526,0.678 1.5895,0.678 0.6491,0 1.1829,-0.2273 1.6018,-0.6838 0.4184,-0.4565 0.6291,-1.1041 0.6291,-1.9429 0,-0.5296 -0.0907,-0.9918 -0.2699,-1.388 -0.1789,-0.3957 -0.4412,-0.7022 -0.7857,-0.9203 -0.3458,-0.2169 -0.7323,-0.3261 -1.1615,-0.3261 -0.6115,0 -1.1361,0.2092 -1.576,0.6292 -0.44,0.4188 -0.6596,1.1195 -0.6596,2.0991zm7.0872 3.1593l-0.7415 0 0 -6.5141 0.7991 0 0 2.3237c0.3385,-0.4234 0.7692,-0.6357 1.2922,-0.6357 0.2912,0 0.5658,0.0592 0.8254,0.1761 0.2592,0.1165 0.4715,0.2819 0.6399,0.4927 0.1669,0.2126 0.2988,0.4672 0.3927,0.7676 0.0957,0.2988 0.1427,0.6188 0.1427,0.9584 0,0.8099 -0.2004,1.4349 -0.6008,1.8764 -0.3988,0.4411 -0.8795,0.6611 -1.4391,0.6611 -0.5569,0 -0.9934,-0.2319 -1.3106,-0.6977l0 0.5915zm-0.0089 -2.3948c0,0.5657 0.0773,0.9738 0.2304,1.2253 0.2519,0.4127 0.593,0.6188 1.0222,0.6188 0.3504,0 0.6523,-0.1515 0.9068,-0.4565 0.255,-0.3031 0.3823,-0.7553 0.3823,-1.3572 0,-0.6157 -0.1227,-1.0707 -0.3669,-1.3637 -0.2442,-0.2927 -0.5399,-0.4396 -0.8857,-0.4396 -0.3503,0 -0.6522,0.1515 -0.9072,0.4549 -0.2546,0.3035 -0.3819,0.7431 -0.3819,1.318zm7.5621 0.8749l0.8265 0.102c-0.1304,0.4838 -0.3715,0.8583 -0.7234,1.1253 -0.3535,0.2653 -0.8038,0.3988 -1.3515,0.3988 -0.6899,0 -1.2376,-0.2123 -1.641,-0.6369 -0.405,-0.425 -0.6065,-1.0207 -0.6065,-1.7883 0,-0.7946 0.2046,-1.4103 0.6127,-1.8487 0.4095,-0.4385 0.9387,-0.6584 1.591,-0.6584 0.6307,0 1.1464,0.2153 1.5453,0.6445 0.4003,0.4292 0.6007,1.0346 0.6007,1.8126 0,0.0484 -0.0016,0.12 -0.0046,0.2138l-3.5186 0c0.0288,0.5188 0.1758,0.9161 0.44,1.1907 0.2638,0.2761 0.5915,0.4138 0.9857,0.4138 0.2926,0 0.543,-0.0773 0.7507,-0.2319 0.2076,-0.1531 0.3715,-0.3988 0.493,-0.7373zm-2.6256 -1.2937l2.6344 0c-0.0346,-0.3957 -0.1365,-0.6946 -0.3015,-0.8915 -0.2549,-0.308 -0.5857,-0.4626 -0.9907,-0.4626 -0.3669,0 -0.6761,0.1227 -0.9264,0.3684 -0.2504,0.2458 -0.3885,0.575 -0.4158,0.9857zm4.4485 2.8136l0 -4.7185 0.7188 0 0 0.7146c0.1839,-0.3338 0.3535,-0.5553 0.5096,-0.6615 0.155,-0.1061 0.3261,-0.1607 0.5126,-0.1607 0.27,0 0.5431,0.0865 0.8223,0.258l-0.2761 0.743c-0.1943,-0.1169 -0.3896,-0.1742 -0.5854,-0.1742 -0.1761,0 -0.3323,0.0531 -0.4719,0.1577 -0.1392,0.1061 -0.238,0.2515 -0.2972,0.438 -0.0893,0.2839 -0.1335,0.5946 -0.1335,0.933l0 2.4706 -0.7992 0z"/>
   <path id="_846699208" class="fil1" d="M217.941 141.02c-0.2973,0.2515 -0.5823,0.4292 -0.8553,0.5338 -0.2746,0.103 -0.5688,0.1546 -0.8826,0.1546 -0.5188,0 -0.9161,-0.1258 -1.1953,-0.3792 -0.2773,-0.2531 -0.4169,-0.5777 -0.4169,-0.9707 0,-0.2319 0.0515,-0.4427 0.1577,-0.6338 0.1046,-0.1912 0.2426,-0.3442 0.4126,-0.4596 0.1712,-0.1154 0.3623,-0.2034 0.5761,-0.2623 0.1562,-0.0411 0.3931,-0.0819 0.71,-0.12 0.6461,-0.0773 1.1222,-0.1684 1.4272,-0.2761 0.0031,-0.1092 0.0046,-0.1788 0.0046,-0.2077 0,-0.3261 -0.0762,-0.5565 -0.2277,-0.6884 -0.203,-0.1823 -0.508,-0.2715 -0.9099,-0.2715 -0.3761,0 -0.6538,0.065 -0.8342,0.1969 -0.1788,0.1319 -0.3111,0.3657 -0.3973,0.7007l-0.781 -0.1077c0.0711,-0.3334 0.188,-0.6049 0.3503,-0.8099 0.1623,-0.2061 0.3988,-0.3654 0.7065,-0.4761 0.308,-0.1108 0.6646,-0.1669 1.0711,-0.1669 0.4034,0 0.7295,0.0484 0.981,0.1426 0.2519,0.0954 0.4369,0.2139 0.5565,0.3581 0.1185,0.1438 0.2004,0.3246 0.2489,0.5442 0.0257,0.1365 0.0396,0.3823 0.0396,0.7372l0 1.0661c0,0.7449 0.0165,1.2149 0.0515,1.4107 0.0335,0.1972 0.1015,0.3868 0.2015,0.5672l-0.8357 0c-0.0819,-0.1654 -0.1365,-0.3596 -0.1592,-0.5822zm-0.0665 -1.7868c-0.2912,0.12 -0.7265,0.22 -1.3061,0.3034 -0.3288,0.0469 -0.5626,0.1 -0.6976,0.1592 -0.1365,0.0593 -0.2427,0.1454 -0.3154,0.2608 -0.0742,0.1138 -0.1123,0.2396 -0.1123,0.3792 0,0.2138 0.0819,0.3915 0.2427,0.5338 0.1608,0.1411 0.3973,0.2123 0.7084,0.2123 0.3077,0 0.5823,-0.0666 0.8219,-0.2015 0.2396,-0.135 0.4172,-0.32 0.5295,-0.5538 0.0862,-0.1804 0.1289,-0.4473 0.1289,-0.7992l0 -0.2942zm-1.5561 -2.9363l0.5915 -1.2438 1.048 0 -0.9768 1.2438 -0.6627 0zm6.1334 5.3053l0 -4.7185 0.7142 0 0 0.6615c0.1488,-0.2307 0.3457,-0.4172 0.5915,-0.5568 0.2457,-0.1408 0.5265,-0.2123 0.8403,-0.2123 0.3488,0 0.6353,0.073 0.8584,0.2184 0.2246,0.1458 0.3823,0.3473 0.4734,0.6084 0.3746,-0.5507 0.8599,-0.8268 1.4572,-0.8268 0.4688,0 0.8284,0.1303 1.0799,0.3899 0.2519,0.2592 0.3777,0.6581 0.3777,1.1965l0 3.2397 -0.7946 0 0 -2.9728c0,-0.32 -0.0257,-0.5504 -0.0773,-0.6915 -0.053,-0.1396 -0.1473,-0.2531 -0.2823,-0.3396 -0.1365,-0.085 -0.2972,-0.1288 -0.4807,-0.1288 -0.3323,0 -0.6065,0.1103 -0.8265,0.3319 -0.2184,0.2199 -0.3292,0.5734 -0.3292,1.0587l0 2.7421 -0.7991 0 0 -3.0651c0,-0.3565 -0.0654,-0.6234 -0.1958,-0.8007 -0.1304,-0.1777 -0.3427,-0.2669 -0.6399,-0.2669 -0.2246,0 -0.4323,0.0588 -0.6235,0.1788 -0.1911,0.1181 -0.3307,0.2911 -0.4157,0.5188 -0.0865,0.2288 -0.1288,0.558 -0.1288,0.9872l0 2.4479 -0.7992 0zm7.5833 -5.5934l0 -0.9207 0.8007 0 0 0.9207 -0.8007 0zm0 5.5934l0 -4.7185 0.8007 0 0 4.7185 -0.8007 0zm1.6987 -1.4091l0.7899 -0.1242c0.0442,0.3169 0.1685,0.5596 0.3715,0.7295 0.2019,0.1685 0.4854,0.2531 0.8511,0.2531 0.3669,0 0.6399,-0.0758 0.8172,-0.2242 0.1777,-0.1504 0.2673,-0.3261 0.2673,-0.5265 0,-0.1819 -0.0792,-0.3231 -0.2369,-0.4277 -0.1092,-0.0711 -0.3819,-0.1607 -0.8172,-0.27 -0.5857,-0.1484 -0.9934,-0.2761 -1.2195,-0.3849 -0.2262,-0.1077 -0.3989,-0.2581 -0.5158,-0.4492 -0.1169,-0.1912 -0.1757,-0.4019 -0.1757,-0.6323 0,-0.2107 0.0484,-0.4049 0.1454,-0.5842 0.0957,-0.1803 0.2276,-0.3288 0.393,-0.4472 0.1242,-0.0912 0.2942,-0.17 0.508,-0.2335 0.2154,-0.0638 0.4458,-0.0957 0.6915,-0.0957 0.37,0 0.6946,0.0546 0.9753,0.1607 0.2804,0.1062 0.4869,0.2504 0.6204,0.4323 0.1334,0.1834 0.2246,0.4261 0.2746,0.7311l-0.7811 0.1077c-0.0366,-0.2427 -0.1396,-0.4323 -0.3096,-0.5688 -0.17,-0.1366 -0.4112,-0.2046 -0.7219,-0.2046 -0.3669,0 -0.6296,0.0607 -0.7857,0.1819 -0.1577,0.1215 -0.2365,0.2638 -0.2365,0.4261 0,0.1046 0.0334,0.1973 0.0984,0.2807 0.0654,0.0866 0.1669,0.1562 0.3065,0.2139 0.0804,0.0288 0.3154,0.0969 0.7069,0.203 0.5657,0.1519 0.9599,0.2746 1.183,0.3715 0.2242,0.0958 0.4003,0.237 0.5276,0.4204 0.1273,0.1834 0.1912,0.4111 0.1912,0.6838 0,0.2673 -0.0789,0.5173 -0.2335,0.7538 -0.1565,0.2353 -0.3807,0.4173 -0.6734,0.5461 -0.2926,0.1288 -0.6249,0.1927 -0.9949,0.1927 -0.6146,0 -1.0814,-0.1273 -1.403,-0.3823 -0.3215,-0.2546 -0.5264,-0.6323 -0.6141,-1.133zm4.873 -4.1843l0 -0.9207 0.8007 0 0 0.9207 -0.8007 0zm0 5.5934l0 -4.7185 0.8007 0 0 4.7185 -0.8007 0zm1.7199 -2.3598c0,-0.8738 0.2427,-1.5214 0.7296,-1.9414 0.4049,-0.3488 0.8991,-0.5249 1.4833,-0.5249 0.6488,0 1.1799,0.2123 1.591,0.6388 0.4123,0.4245 0.6173,1.0114 0.6173,1.7606 0,0.6084 -0.0912,1.0861 -0.2731,1.4333 -0.1823,0.3489 -0.4476,0.6188 -0.7949,0.8115 -0.3488,0.1927 -0.728,0.2881 -1.1403,0.2881 -0.6599,0 -1.1937,-0.2108 -1.6018,-0.6354 -0.408,-0.4234 -0.6111,-1.033 -0.6111,-1.8306zm0.8219 0c0,0.605 0.1319,1.0568 0.3961,1.3572 0.2638,0.3019 0.5957,0.4519 0.9949,0.4519 0.3973,0 0.728,-0.1515 0.9919,-0.4534 0.2622,-0.3015 0.3942,-0.7627 0.3942,-1.3815 0,-0.5841 -0.132,-1.0268 -0.3973,-1.3272 -0.2654,-0.3003 -0.5946,-0.4503 -0.9888,-0.4503 -0.3992,0 -0.7311,0.15 -0.9949,0.4488 -0.2642,0.2988 -0.3961,0.7507 -0.3961,1.3545zm4.5381 2.3598l0 -4.7185 0.7188 0 0 0.6704c0.3472,-0.5184 0.8476,-0.778 1.5014,-0.778 0.2853,0 0.5461,0.0515 0.7841,0.1534 0.2396,0.1031 0.4173,0.2365 0.5354,0.4034 0.12,0.165 0.2019,0.3623 0.2504,0.59 0.0288,0.1484 0.0438,0.408 0.0438,0.778l0 2.9013 -0.8007 0 0 -2.8709c0,-0.3246 -0.0304,-0.5688 -0.0927,-0.7311 -0.0619,-0.1608 -0.1727,-0.2896 -0.3304,-0.3854 -0.1592,-0.0969 -0.3442,-0.1453 -0.5584,-0.1453 -0.3411,0 -0.6338,0.1088 -0.8826,0.3242 -0.2473,0.2169 -0.37,0.6265 -0.37,1.2318l0 2.5767 -0.7991 0zm8.2901 -1.5199l0.8265 0.102c-0.1304,0.4838 -0.3716,0.8583 -0.7235,1.1253 -0.3534,0.2653 -0.8037,0.3988 -1.3514,0.3988 -0.6899,0 -1.2376,-0.2123 -1.641,-0.6369 -0.405,-0.425 -0.6065,-1.0207 -0.6065,-1.7883 0,-0.7946 0.2046,-1.4103 0.6126,-1.8487 0.4096,-0.4385 0.9388,-0.6584 1.5911,-0.6584 0.6307,0 1.1464,0.2153 1.5452,0.6445 0.4004,0.4292 0.6008,1.0346 0.6008,1.8126 0,0.0484 -0.0016,0.12 -0.0047,0.2138l-3.5185 0c0.0288,0.5188 0.1757,0.9161 0.4399,1.1907 0.2639,0.2761 0.5915,0.4138 0.9857,0.4138 0.2927,0 0.5431,-0.0773 0.7507,-0.2319 0.2077,-0.1531 0.3716,-0.3988 0.4931,-0.7373zm-2.6256 -1.2937l2.6344 0c-0.0346,-0.3957 -0.1365,-0.6946 -0.3015,-0.8915 -0.255,-0.308 -0.5857,-0.4626 -0.9907,-0.4626 -0.3669,0 -0.6761,0.1227 -0.9264,0.3684 -0.2504,0.2458 -0.3885,0.575 -0.4158,0.9857zm4.1378 1.4045l0.7899 -0.1242c0.0442,0.3169 0.1685,0.5596 0.3715,0.7295 0.2019,0.1685 0.4854,0.2531 0.8511,0.2531 0.3669,0 0.64,-0.0758 0.8172,-0.2242 0.1777,-0.1504 0.2673,-0.3261 0.2673,-0.5265 0,-0.1819 -0.0792,-0.3231 -0.2369,-0.4277 -0.1092,-0.0711 -0.3819,-0.1607 -0.8172,-0.27 -0.5857,-0.1484 -0.9934,-0.2761 -1.2195,-0.3849 -0.2262,-0.1077 -0.3989,-0.2581 -0.5158,-0.4492 -0.1169,-0.1912 -0.1757,-0.4019 -0.1757,-0.6323 0,-0.2107 0.0484,-0.4049 0.1454,-0.5842 0.0957,-0.1803 0.2276,-0.3288 0.393,-0.4472 0.1242,-0.0912 0.2942,-0.17 0.508,-0.2335 0.2154,-0.0638 0.4458,-0.0957 0.6915,-0.0957 0.37,0 0.6946,0.0546 0.9753,0.1607 0.2804,0.1062 0.4869,0.2504 0.6204,0.4323 0.1334,0.1834 0.2246,0.4261 0.2746,0.7311l-0.7811 0.1077c-0.0366,-0.2427 -0.1396,-0.4323 -0.3096,-0.5688 -0.17,-0.1366 -0.4111,-0.2046 -0.7219,-0.2046 -0.3669,0 -0.6296,0.0607 -0.7857,0.1819 -0.1577,0.1215 -0.2365,0.2638 -0.2365,0.4261 0,0.1046 0.0334,0.1973 0.0984,0.2807 0.0654,0.0866 0.1669,0.1562 0.3065,0.2139 0.0804,0.0288 0.3154,0.0969 0.7069,0.203 0.5657,0.1519 0.9599,0.2746 1.183,0.3715 0.2242,0.0958 0.4004,0.237 0.5277,0.4204 0.1272,0.1834 0.1911,0.4111 0.1911,0.6838 0,0.2673 -0.0789,0.5173 -0.2335,0.7538 -0.1565,0.2353 -0.3807,0.4173 -0.6734,0.5461 -0.2926,0.1288 -0.6249,0.1927 -0.9949,0.1927 -0.6146,0 -1.0814,-0.1273 -1.4029,-0.3823 -0.3216,-0.2546 -0.5265,-0.6323 -0.6142,-1.133z"/>
  </g>
 </g>
</svg>
