<?xml version="1.0" encoding="UTF-8" standalone="no"?>
<!-- Created with Inkscape (http://www.inkscape.org/) -->

<svg
   xmlns:dc="http://purl.org/dc/elements/1.1/"
   xmlns:cc="http://creativecommons.org/ns#"
   xmlns:rdf="http://www.w3.org/1999/02/22-rdf-syntax-ns#"
   xmlns:svg="http://www.w3.org/2000/svg"
   xmlns="http://www.w3.org/2000/svg"
   xmlns:sodipodi="http://sodipodi.sourceforge.net/DTD/sodipodi-0.dtd"
   xmlns:inkscape="http://www.inkscape.org/namespaces/inkscape"
   width="210mm"
   height="297mm"
   id="svg4598"
   version="1.1"
   inkscape:version="0.48.4 r9939"
   sodipodi:docname="Documento nuevo 2">
  <defs
     id="defs4600" />
  <sodipodi:namedview
     id="base"
     pagecolor="#ffffff"
     bordercolor="#666666"
     borderopacity="1.0"
     inkscape:pageopacity="0.0"
     inkscape:pageshadow="2"
     inkscape:zoom="0.35"
     inkscape:cx="350"
     inkscape:cy="520"
     inkscape:document-units="px"
     inkscape:current-layer="layer1"
     showgrid="false"
     inkscape:window-width="1366"
     inkscape:window-height="716"
     inkscape:window-x="-8"
     inkscape:window-y="-8"
     inkscape:window-maximized="1" />
  <metadata
     id="metadata4603">
    <rdf:RDF>
      <cc:Work
         rdf:about="">
        <dc:format>image/svg+xml</dc:format>
        <dc:type
           rdf:resource="http://purl.org/dc/dcmitype/StillImage" />
        <dc:title></dc:title>
      </cc:Work>
    </rdf:RDF>
  </metadata>
  <g
     inkscape:label="Capa 1"
     inkscape:groupmode="layer"
     id="layer1">
    <g
       transform="matrix(3.9201464,0,0,3.9201464,-727.8988,-1089.3841)"
       id="g8269"
       inkscape:export-filename="D:\Dropbox\Oberá en Cortos\6--mailing\becarios\organizadores-300.png"
       inkscape:export-xdpi="300.36316"
       inkscape:export-ydpi="300.36316">
      <path
         inkscape:connector-curvature="0"
         d="m 316.00958,459.5756 1.33021,-3.54751 h 0.50393 l 1.40841,3.54664 h -0.52565 l -0.39707,-1.0739 -1.45098,8.7e-4 -0.38316,1.0739 h -0.48569 z m 0.99657,-1.4588 h 1.17903 l -0.35623,-0.97919 c -0.11208,-0.30323 -0.19549,-0.54651 -0.24588,-0.73939 -0.0495,0.23198 -0.11208,0.45267 -0.19202,0.67944 l -0.3849,1.03914 z m -2.84809,-2.08611 0.43964,0 0,3.55013 -0.46831,0 -1.82371,-2.78901 0,2.78901 -0.44138,0 0,-3.55013 0.47526,0.002 1.8185,2.78293 z m -4.57275,3.55186 0.002,-3.55012 0.4631,0 -0.009,3.54925 z m -3.17478,0 0.003,-3.12612 -1.14167,0 0,-0.41965 2.74904,-0.003 0,0.41965 -1.14862,0.003 -0.003,3.12612 z m -3.11135,-3.54577 0.43269,0 0,3.54577 -0.46658,0.006 -1.8185,-2.7864 -0.007,2.7864 -0.43616,-0.003 0,-3.54404 0.47352,0.004 1.82198,2.77859 z m -6.53288,3.55185 0.005,-3.54143 2.50663,-8.7e-4 -0.002,0.41531 -2.04353,0.003 0,1.08259 1.9106,-0.003 0,0.42053 -1.9106,0.006 -0.003,1.20249 2.12782,0 -0.005,0.41617 z m -3.17131,-1.38407 v -0.41792 l 1.46749,-0.004 v 1.31457 c -0.22416,0.18767 -0.45788,0.32147 -0.69768,0.41704 -0.24241,0.0912 -0.48743,0.13989 -0.74026,0.13989 -0.34146,-8.7e-4 -0.64817,-0.0721 -0.9262,-0.22416 -0.27977,-0.14771 -0.48916,-0.36145 -0.63339,-0.64817 -0.14075,-0.27977 -0.20679,-0.59516 -0.20679,-0.94444 0.002,-0.34406 0.066,-0.66554 0.20679,-0.96268 0.14249,-0.29976 0.34754,-0.52305 0.61254,-0.66641 0.265,-0.14944 0.56996,-0.22416 0.91664,-0.22156 0.24762,-0.003 0.47178,0.0417 0.67509,0.12512 0.20331,0.0791 0.36839,0.19896 0.47874,0.34493 0.11729,0.1451 0.20331,0.34493 0.26326,0.57866 l -0.41097,0.1225 c -0.0573,-0.18419 -0.11903,-0.32842 -0.19723,-0.42834 -0.0765,-0.0982 -0.1868,-0.1868 -0.33276,-0.24762 -0.14423,-0.0617 -0.30063,-0.0938 -0.477,-0.0938 -0.20853,0 -0.39012,0.0322 -0.54303,0.0999 -0.15292,0.0626 -0.2763,0.15205 -0.37187,0.25805 -0.093,0.106 -0.16595,0.22329 -0.21548,0.34928 -0.093,0.21981 -0.13728,0.4544 -0.13728,0.71072 0,0.31539 0.0547,0.58039 0.15987,0.79847 0.1034,0.21113 0.26153,0.36578 0.46484,0.47526 0.20157,0.0973 0.42052,0.15292 0.64642,0.15292 0.19897,-0.003 0.39707,-0.0426 0.58734,-0.12077 0.18681,-0.0721 0.33104,-0.15987 0.42748,-0.2511 v -0.65598 h -1.01656 z m -6.13494,1.39711 0.006,-3.54925 1.53786,-0.005 c 0.30584,0.005 0.5413,0.033 0.7029,0.0991 0.15639,0.0608 0.28846,0.17203 0.38664,0.33538 0.0904,0.16074 0.14162,0.34319 0.14162,0.53521 0,0.25197 -0.0808,0.46831 -0.2398,0.63947 -0.15987,0.17551 -0.40836,0.28238 -0.73505,0.33103 0.11903,0.0582 0.20853,0.11209 0.27456,0.17551 0.1338,0.12425 0.26152,0.27977 0.37882,0.46484 l 0.59777,0.96963 h -0.57344 l -0.45963,-0.73852 c -0.12685,-0.2146 -0.24067,-0.37534 -0.32668,-0.48742 -0.086,-0.11382 -0.16682,-0.19115 -0.23112,-0.23894 -0.0721,-0.0426 -0.14336,-0.0738 -0.20852,-0.0904 -0.0521,-0.0139 -0.13989,-0.0217 -0.26066,-0.0217 h -0.52826 l -0.003,1.57957 h -0.45962 z m 0.46309,-1.98272 h 0.98441 c 0.20939,0 0.3736,-0.0208 0.49524,-0.0695 0.11469,-0.0452 0.20679,-0.11729 0.26848,-0.20852 0.0591,-0.099 0.0912,-0.20592 0.0912,-0.32321 0,-0.16595 -0.0556,-0.30236 -0.17725,-0.40749 -0.1199,-0.11382 -0.30931,-0.16769 -0.56562,-0.16769 h -1.09736 v 1.17642 z m -5.10275,1.98619 1.33281,-3.54751 h 0.50307 l 1.41101,3.54404 h -0.52392 l -0.40141,-1.07477 -1.45271,8.7e-4 -0.37795,1.0739 -0.4909,0.003 z m 0.99917,-1.46227 h 1.1799 l -0.36057,-0.9818 c -0.10861,-0.29889 -0.19028,-0.54564 -0.24502,-0.73766 -0.0478,0.22677 -0.10947,0.45615 -0.19201,0.68118 l -0.3823,1.03828 z m -4.54844,-0.0434 1.30588,0 0,0.44137 -1.30588,0 z m -5.53369,0.36665 0.43529,-0.0365 c 0.0156,0.17464 0.066,0.32582 0.1451,0.43877 0.0721,0.11469 0.18507,0.20418 0.34494,0.27282 0.1616,0.0704 0.3345,0.106 0.52913,0.106 0.17724,-0.002 0.33363,-0.0287 0.4657,-0.0791 0.13554,-0.0565 0.23459,-0.12859 0.30323,-0.21982 0.066,-0.0947 0.0956,-0.19375 0.0956,-0.30496 0,-0.10948 -0.0295,-0.21113 -0.093,-0.28846 -0.0634,-0.086 -0.16681,-0.15292 -0.31104,-0.21461 -0.0982,-0.0322 -0.30236,-0.0938 -0.61689,-0.16855 -0.31887,-0.0817 -0.54998,-0.15292 -0.67249,-0.22243 -0.16855,-0.0895 -0.28932,-0.19984 -0.36752,-0.33016 -0.0825,-0.1312 -0.12425,-0.2763 -0.12425,-0.44138 0,-0.17638 0.0469,-0.34233 0.14858,-0.50219 0.0999,-0.15727 0.24588,-0.27109 0.43529,-0.35363 0.19289,-0.0808 0.40315,-0.12511 0.63861,-0.12511 0.25631,0 0.48308,0.0443 0.6777,0.12772 0.19549,0.0851 0.34841,0.212 0.45614,0.37795 0.10427,0.16161 0.159,0.34754 0.16769,0.5552 l -0.43877,0.0339 c -0.0235,-0.22156 -0.10339,-0.38924 -0.24067,-0.50567 -0.13901,-0.11903 -0.33972,-0.17638 -0.60559,-0.17029 -0.27716,0 -0.48134,0.0521 -0.60819,0.15118 -0.12598,0.10426 -0.18507,0.23545 -0.18507,0.38055 0,0.12598 0.0417,0.23025 0.1312,0.31279 0.0869,0.0834 0.31887,0.16508 0.69334,0.2537 0.37187,0.086 0.62644,0.16074 0.76633,0.22677 0.20244,0.0921 0.35014,0.21374 0.44485,0.35797 0.0956,0.14857 0.14597,0.31713 0.14597,0.50654 0,0.18941 -0.0539,0.36405 -0.16248,0.53347 -0.10426,0.1703 -0.2537,0.2928 -0.45528,0.39011 -0.19636,0.0938 -0.42139,0.13468 -0.66467,0.13468 -0.318,0 -0.57952,-0.0408 -0.79326,-0.13468 -0.21113,-0.0904 -0.37534,-0.23459 -0.49698,-0.42052 -0.12077,-0.19028 -0.18506,-0.40488 -0.18854,-0.64208 m -4.08272,1.14951 0.003,-3.54838 2.50403,-0.004 0,0.41879 -2.04528,0.005 0,1.08172 1.91234,-0.002 0,0.41531 -1.91234,0.008 -8.7e-4,1.20683 2.12521,0 0,0.41618 z m -2.23816,-3.54838 0.43616,0.002 -8.7e-4,3.54578 -0.46744,0 -1.82198,-2.78293 -0.003,2.7838 -0.44051,0 0.003,-3.5423 0.47004,0 1.82024,2.78119 z m -7.21841,1.82632 c 0.003,-0.58734 0.15727,-1.04697 0.46831,-1.38321 0.3041,-0.33451 0.70725,-0.49785 1.19641,-0.50133 0.32061,0 0.6082,0.0808 0.86451,0.23112 0.25804,0.159 0.45527,0.37969 0.58908,0.65772 0.1338,0.27977 0.2007,0.59603 0.2007,0.95399 0.002,0.35276 -0.0721,0.67684 -0.21113,0.96356 -0.14597,0.2789 -0.34406,0.49698 -0.60472,0.64295 -0.26326,0.14336 -0.54303,0.21547 -0.84105,0.21895 -0.32668,-0.003 -0.62209,-0.0773 -0.87753,-0.23807 -0.25805,-0.1616 -0.45615,-0.38229 -0.583,-0.65772 -0.13641,-0.28064 -0.1981,-0.57691 -0.20158,-0.88796 m 0.47353,0.006 c 0,0.42574 0.1086,0.76459 0.33798,1.00526 0.22243,0.2511 0.50393,0.37187 0.84365,0.37274 0.34928,-8.7e-4 0.63253,-0.12164 0.85408,-0.37361 0.2233,-0.24762 0.33538,-0.60124 0.33885,-1.05304 0,-0.2902 -0.0443,-0.54304 -0.14336,-0.75677 -0.0982,-0.21635 -0.23545,-0.38577 -0.41618,-0.50307 -0.18419,-0.11729 -0.39272,-0.17464 -0.62296,-0.17464 -0.32321,0 -0.60124,0.1173 -0.83931,0.34146 -0.23459,0.2259 -0.35015,0.61167 -0.35275,1.14167 m -2.61959,1.72475 0.003,-3.54925 0.45962,0 -0.006,3.54577 z m -4.48847,-1.1408 0.43529,-0.0374 c 0.0182,0.17464 0.0678,0.32495 0.14162,0.43442 0.0747,0.11556 0.19289,0.20766 0.35102,0.27977 0.15639,0.0686 0.33451,0.10079 0.53,0.10687 0.17724,0 0.32929,-0.0295 0.46657,-0.0825 0.13467,-0.0565 0.23285,-0.13033 0.29715,-0.22243 0.0652,-0.0921 0.0956,-0.19288 0.0999,-0.29888 -0.004,-0.11729 -0.033,-0.21287 -0.0938,-0.29715 -0.0652,-0.0808 -0.16856,-0.15205 -0.31453,-0.21026 -0.0912,-0.0356 -0.29888,-0.0904 -0.61775,-0.16682 -0.31887,-0.0843 -0.54303,-0.15639 -0.66988,-0.22329 -0.16248,-0.0895 -0.29107,-0.19984 -0.36926,-0.33451 -0.0817,-0.13033 -0.12077,-0.27456 -0.12077,-0.43095 0,-0.18941 0.0504,-0.35536 0.15205,-0.51001 0.0956,-0.15727 0.24241,-0.26935 0.43529,-0.35189 0.18854,-0.0817 0.3988,-0.11903 0.636,-0.12077 0.25544,0 0.48308,0.0443 0.67683,0.12685 0.19897,0.0782 0.34841,0.20505 0.45093,0.36927 0.10774,0.16681 0.16596,0.35535 0.17117,0.55867 l -0.43616,0.0339 c -0.0261,-0.22329 -0.1034,-0.39185 -0.24154,-0.50567 -0.13555,-0.11469 -0.33886,-0.17029 -0.60472,-0.17203 -0.2789,0.002 -0.48308,0.0521 -0.60907,0.15726 -0.12598,0.10166 -0.19028,0.2259 -0.19288,0.37621 0,0.12946 0.0487,0.23285 0.13901,0.31279 0.086,0.0851 0.31974,0.16682 0.69074,0.25544 0.37447,0.0817 0.63165,0.16074 0.76806,0.22503 0.20244,0.0956 0.35102,0.21635 0.44833,0.36144 0.0964,0.14249 0.14336,0.31018 0.14336,0.50133 0,0.19115 -0.0539,0.36926 -0.15813,0.53782 -0.10513,0.16682 -0.25892,0.29454 -0.45528,0.3875 -0.1981,0.0921 -0.424,0.13555 -0.66901,0.13555 -0.31626,0 -0.57692,-0.046 -0.79066,-0.13641 -0.212,-0.0921 -0.37968,-0.23372 -0.49872,-0.42313 -0.12164,-0.18941 -0.18332,-0.39881 -0.19114,-0.636 m -2.1261,-2.40325 0.45962,0 0,3.54751 -0.45962,0 z m -5.1488,3.55098 0.003,-3.55099 h 0.68987 l 0.81846,2.51184 c 0.0747,0.23372 0.12945,0.41618 0.16421,0.52653 0.0408,-0.12685 0.0999,-0.31366 0.18593,-0.56649 l 0.84018,-2.47188 0.61515,-8.7e-4 -0.009,3.54751 h -0.4379 v -2.96799 l -1.01134,2.97234 h -0.41618 l -1.00005,-3.01665 -0.003,3.01752 -0.43964,-8.7e-4 z m 78.28424,-6.42254 2.02442,-5.39816 h 0.75503 l 2.14519,5.39816 -0.79239,-8.7e-4 -0.60212,-1.63778 -2.21469,0.003 -0.5804,1.63517 h -0.73504 z m 1.5118,-2.22078 1.79504,-0.003 -0.54998,-1.49094 c -0.16161,-0.45354 -0.28846,-0.83062 -0.37013,-1.12429 -0.0765,0.3484 -0.17464,0.69942 -0.29541,1.03827 l -0.57952,1.57957 z m 0.34145,-3.50494 0.47526,-1.03219 h 0.85148 l -0.79239,1.03132 -0.53435,8.7e-4 z m -6.58153,5.73354 0.005,-5.40338 h 2.33373 c 0.46657,0 0.82106,0.046 1.06868,0.14945 0.24068,0.0886 0.43617,0.26586 0.58387,0.5074 0.14249,0.24154 0.21895,0.51871 0.21374,0.81151 0.002,0.37969 -0.12251,0.70637 -0.35971,0.9679 -0.23719,0.26326 -0.61427,0.43095 -1.1182,0.49698 0.18506,0.0982 0.32234,0.18767 0.42052,0.27282 0.20157,0.18767 0.39359,0.42834 0.56996,0.72114 l 0.9149,1.4727 h -0.87058 l -0.69595,-1.13037 c -0.20505,-0.32234 -0.37361,-0.57083 -0.50394,-0.742 -0.13206,-0.1729 -0.24588,-0.29627 -0.35449,-0.36231 -0.10513,-0.0652 -0.21026,-0.11729 -0.31713,-0.14336 -0.0765,-0.0174 -0.20505,-0.0217 -0.38664,-0.0217 h -0.8115 v 2.39976 l -0.69247,0.003 z m 0.69768,-3.02186 1.49529,-0.004 c 0.31887,8.7e-4 0.57344,-0.0339 0.75156,-0.0982 0.17637,-0.0721 0.31365,-0.17725 0.40923,-0.32061 0.0912,-0.15465 0.13901,-0.31452 0.13901,-0.48569 0,-0.25109 -0.093,-0.46222 -0.27195,-0.6247 -0.17985,-0.16769 -0.4631,-0.24675 -0.85842,-0.24675 l -1.66472,0.002 v 1.77854 z m -5.6119,3.02186 0.007,-5.39643 3.81165,-0.002 -0.005,0.64208 -3.10874,0.002 -0.003,1.64213 2.91673,-8.7e-4 0.002,0.63861 -2.91847,0 -0.002,1.83414 3.23733,-0.003 -0.003,0.64295 z m -4.94462,0.007 0.003,-5.39816 h 1.97316 c 0.40228,0 0.72636,0.0547 0.96877,0.15813 0.24241,0.11034 0.43095,0.27803 0.56996,0.50567 0.14076,0.2259 0.20679,0.46223 0.20679,0.71246 0,0.23198 -0.0626,0.44311 -0.1868,0.64989 -0.12251,0.20071 -0.30584,0.37013 -0.55346,0.49699 0.31887,0.0938 0.56301,0.25544 0.74026,0.48221 0.16595,0.23546 0.25457,0.50567 0.25457,0.8228 0,0.24762 -0.0547,0.48308 -0.1616,0.70464 -0.10166,0.21547 -0.23459,0.3849 -0.38317,0.50045 -0.15291,0.12338 -0.3458,0.20679 -0.57691,0.27109 -0.23112,0.0608 -0.51436,0.0904 -0.85061,0.0904 l -2.00443,0.003 z m 0.69681,-3.14263 h 1.13733 c 0.30844,0.004 0.52739,-0.0174 0.6638,-0.0617 0.17638,-0.0487 0.31018,-0.14249 0.3988,-0.26673 0.0904,-0.12164 0.1338,-0.2789 0.1338,-0.46831 0,-0.17551 -0.0356,-0.33364 -0.1225,-0.47092 -0.0851,-0.13293 -0.20331,-0.22677 -0.36144,-0.27369 -0.15466,-0.053 -0.42053,-0.0765 -0.79761,-0.0765 l -1.05044,-8.7e-4 -0.002,1.61867 z m 0,2.50055 h 1.31197 c 0.22764,0 0.38316,-0.01 0.47352,-0.0269 0.16421,-0.0295 0.29888,-0.0773 0.40402,-0.14945 0.11381,-0.0626 0.19983,-0.16942 0.26673,-0.30149 0.0765,-0.13032 0.10513,-0.28324 0.10513,-0.45267 0,-0.20418 -0.0513,-0.37708 -0.15465,-0.52478 -0.10166,-0.15292 -0.24415,-0.25284 -0.42053,-0.31279 -0.17985,-0.0617 -0.4379,-0.0904 -0.77067,-0.0904 l -1.21465,0.003 v 1.85499 z m -6.60586,-1.98793 c 0.005,-0.89318 0.23893,-1.59607 0.70464,-2.10088 0.47178,-0.51175 1.07737,-0.76024 1.82111,-0.76024 0.48742,-0.003 0.92445,0.11816 1.31196,0.35449 0.39185,0.2372 0.69247,0.56823 0.89578,0.9957 0.20158,0.41966 0.3041,0.90969 0.3041,1.44577 0,0.54824 -0.11034,1.0348 -0.32408,1.47009 -0.21548,0.43008 -0.52305,0.75677 -0.9149,0.98267 -0.40228,0.22069 -0.82454,0.33103 -1.27982,0.33103 -0.49872,0 -0.94009,-0.1225 -1.32847,-0.36578 -0.39532,-0.24849 -0.68899,-0.57779 -0.89057,-1.00352 -0.19983,-0.42661 -0.29975,-0.8732 -0.29975,-1.34933 m 0.71419,0.0104 c 0,0.65077 0.17464,1.15731 0.50915,1.53439 0.34754,0.37447 0.77241,0.56475 1.28763,0.56041 0.5274,0.003 0.96008,-0.18941 1.29633,-0.56215 0.34319,-0.37969 0.51436,-0.91751 0.51436,-1.61345 0,-0.44051 -0.073,-0.81846 -0.21548,-1.14862 -0.1477,-0.32756 -0.35796,-0.58213 -0.63947,-0.76112 -0.27629,-0.18159 -0.59082,-0.27195 -0.9401,-0.2676 -0.4935,-0.004 -0.92185,0.17377 -1.27634,0.52218 -0.3597,0.34145 -0.53086,0.92445 -0.53608,1.73596 m -7.44952,2.62656 0.005,-5.39382 3.80817,-0.005 0,0.6386 -3.11049,0.006 0,1.64038 2.90978,-0.002 0,0.63773 -2.91499,0.002 0,1.83675 3.23386,-0.004 -0.003,0.64382 z m -5.32518,0.004 v -5.39556 l 1.81416,-0.003 c 0.41271,0 0.72462,0.0252 0.93836,0.0738 0.30236,0.0756 0.56128,0.20679 0.77241,0.38838 0.27977,0.24067 0.48742,0.54911 0.6247,0.92011 0.1338,0.37361 0.20679,0.80369 0.20679,1.28677 -0.002,0.41096 -0.0478,0.7698 -0.14249,1.08954 -0.0947,0.31539 -0.21374,0.57431 -0.36145,0.78457 -0.14422,0.20592 -0.30757,0.37013 -0.48221,0.48655 -0.1729,0.12077 -0.37708,0.212 -0.62644,0.27022 -0.24588,0.0652 -0.52565,0.0938 -0.84713,0.0982 h -1.8967 z m 0.69422,-0.63774 1.12863,-0.006 c 0.34407,0.006 0.61775,-0.0304 0.81933,-0.0947 0.19549,-0.0669 0.35275,-0.16508 0.47004,-0.2815 0.16595,-0.16943 0.2902,-0.39533 0.38838,-0.68553 0.0904,-0.28498 0.13554,-0.63078 0.13554,-1.03567 0,-0.56562 -0.0869,-0.99657 -0.26847,-1.30066 -0.17986,-0.30323 -0.40576,-0.50307 -0.66033,-0.60472 -0.18854,-0.0739 -0.49003,-0.11122 -0.90273,-0.11122 h -1.11126 v 4.12009 z m -8.05598,0.64903 8.7e-4,-5.40164 h 1.81242 c 0.41183,-0.006 0.72462,0.0243 0.94009,0.0756 0.3015,0.0738 0.55954,0.19897 0.76981,0.38403 0.28324,0.24241 0.48829,0.54738 0.6247,0.92446 0.13641,0.37447 0.20592,0.7976 0.20592,1.27982 0,0.41531 -0.0487,0.77588 -0.14163,1.09214 -0.0912,0.31452 -0.21547,0.57605 -0.36144,0.78283 -0.1451,0.21287 -0.30496,0.37187 -0.4796,0.48917 -0.17117,0.11729 -0.38056,0.212 -0.62992,0.26934 -0.24415,0.0652 -0.52913,0.0973 -0.84191,0.10339 h -1.89931 z m 0.69247,-0.64469 1.12516,-8.6e-4 c 0.34841,0 0.62123,-0.0339 0.8202,-0.0982 0.1981,-0.073 0.3597,-0.15987 0.47352,-0.28064 0.16508,-0.16769 0.29541,-0.40054 0.38664,-0.68292 0.0912,-0.28498 0.14162,-0.63513 0.14162,-1.04088 0.003,-0.56388 -0.093,-0.99136 -0.27108,-1.29546 -0.18246,-0.30409 -0.40141,-0.50827 -0.65946,-0.60906 -0.1868,-0.0738 -0.49003,-0.11121 -0.90881,-0.11208 l -1.10431,8.7e-4 -0.003,4.11921 z m -6.18186,0.64904 2.02529,-5.40251 0.75937,-0.003 2.14258,5.39903 h -0.79326 l -0.60385,-1.63778 -2.21296,8.7e-4 -0.57952,1.63952 -0.73765,0.004 z m 1.51701,-2.22947 h 1.79244 l -0.5413,-1.48661 c -0.1729,-0.45614 -0.29801,-0.83235 -0.38229,-1.13211 -0.0704,0.35102 -0.16769,0.70203 -0.29194,1.04089 l -0.57691,1.57783 z m -6.25659,2.23294 0.005,-5.40338 h 1.81503 c 0.40662,0 0.71941,0.0252 0.93749,0.0799 0.30149,0.0686 0.55867,0.19549 0.7698,0.38229 0.2789,0.23894 0.48656,0.54911 0.61949,0.92359 0.14075,0.37013 0.20939,0.795 0.20939,1.28416 0,0.4101 -0.0469,0.77154 -0.13988,1.08606 -0.0973,0.31453 -0.21548,0.57866 -0.35884,0.7837 -0.14336,0.2094 -0.30844,0.37535 -0.48047,0.49177 -0.17898,0.12338 -0.38577,0.20592 -0.63165,0.27022 -0.24502,0.0634 -0.5274,0.093 -0.84366,0.0973 l -1.90191,0.004 z m 0.69508,-0.64642 h 1.1269 c 0.35014,0 0.61862,-0.0339 0.82019,-0.0982 0.19723,-0.0669 0.35449,-0.16074 0.47613,-0.28325 0.159,-0.1616 0.28933,-0.39359 0.3823,-0.68291 0.0947,-0.28151 0.13641,-0.62645 0.14162,-1.03394 -0.002,-0.56649 -0.0921,-0.99657 -0.27195,-1.29893 -0.18072,-0.30583 -0.40141,-0.51262 -0.66033,-0.60732 -0.18332,-0.0704 -0.48916,-0.11295 -0.90447,-0.11295 l -1.11039,0.004 v 4.11314 z m -2.61784,0.64642 0,-5.39816 0.70029,-0.005 -0.01,5.40338 z m -4.24607,0 0.004,-5.39643 0.69682,0 -0.003,4.75522 2.59265,0 0,0.64121 z m -5.45377,0.003 2.02181,-5.39904 0.75851,8.7e-4 2.14779,5.39643 -0.79673,-0.002 -0.60212,-1.63691 -2.21296,0.008 -0.57952,1.63083 -0.73678,0.002 z m 1.5144,-2.21905 1.79331,-0.003 -0.5439,-1.49095 c -0.17377,-0.4518 -0.29976,-0.83062 -0.38317,-1.12864 -0.066,0.3571 -0.16855,0.7003 -0.28932,1.04002 l -0.57692,1.58217 z m -5.3052,2.22513 0.004,-5.40077 h 1.98706 c 0.35014,0 0.61775,0.0174 0.79847,0.0478 0.25979,0.0452 0.48047,0.12773 0.65251,0.25545 0.18072,0.1225 0.31886,0.29714 0.42226,0.52217 0.10774,0.22156 0.15987,0.46658 0.15987,0.73331 0,0.45528 -0.14249,0.85148 -0.42835,1.17121 -0.28324,0.31018 -0.80281,0.47353 -1.54829,0.47092 l -1.3528,0.005 v 2.19559 h -0.69508 z m 0.69856,-2.83419 h 1.36583 c 0.44485,-0.003 0.7698,-0.0904 0.96095,-0.26152 0.18941,-0.17204 0.28759,-0.40836 0.28759,-0.71767 0,-0.23112 -0.0617,-0.41879 -0.1703,-0.58387 -0.11208,-0.15813 -0.25891,-0.26848 -0.4405,-0.31887 -0.11643,-0.0287 -0.33625,-0.0452 -0.65425,-0.0452 h -1.34932 v 1.92711 z m -2.62306,2.83419 0.003,-5.39469 0.70116,-0.005 -0.007,5.3999 z m -1.67775,-1.89236 0.69595,0.18072 c -0.1451,0.58387 -0.40749,1.03046 -0.78631,1.3389 -0.38316,0.31105 -0.84713,0.46049 -1.39711,0.46049 -0.56649,0 -1.02959,-0.11121 -1.38668,-0.34928 -0.35276,-0.23545 -0.62384,-0.58386 -0.80977,-1.03219 -0.18767,-0.44311 -0.27803,-0.93054 -0.27629,-1.44663 -0.002,-0.55954 0.10339,-1.04957 0.31278,-1.47184 0.20939,-0.41531 0.50915,-0.73417 0.89665,-0.95139 0.38664,-0.21721 0.81325,-0.32842 1.27895,-0.32842 0.52826,0 0.96877,0.13988 1.33195,0.4127 0.36057,0.27717 0.60993,0.66293 0.74808,1.15992 l -0.68553,0.16421 c -0.12424,-0.38751 -0.30235,-0.6777 -0.53086,-0.85321 -0.23285,-0.17898 -0.52739,-0.27195 -0.88188,-0.27195 -0.40402,0 -0.74461,0.10426 -1.01569,0.30236 -0.27369,0.19723 -0.46136,0.46396 -0.57518,0.79847 -0.11034,0.33712 -0.16682,0.6777 -0.16682,1.03393 0,0.46223 0.0669,0.85843 0.19636,1.20597 0.13207,0.34232 0.3319,0.59603 0.61167,0.76632 0.27195,0.16595 0.57344,0.25284 0.89666,0.25284 0.38924,8.7e-4 0.71853,-0.11817 0.99396,-0.34581 0.27195,-0.23632 0.45875,-0.57691 0.54911,-1.02611 m -4.9831,-3.50074 -0.006,5.39817 -0.69595,-7.7e-4 0.006,-5.39816 z m -2.65669,0.005 0.66727,0 -0.003,5.39208 -0.71594,0 -2.76381,-4.22956 -0.005,4.23478 -0.66814,0 0.005,-5.3973 0.7168,0 2.76468,4.23564 z m -5.33561,0.004 h 0.69247 l -8.7e-4,3.1157 c 0,0.54216 -0.06,0.97137 -0.18159,1.2885 -0.1199,0.31627 -0.3319,0.5804 -0.64642,0.77849 -0.31192,0.20071 -0.72375,0.30063 -1.22942,0.30236 -0.49264,-0.002 -0.89839,-0.086 -1.21205,-0.26152 -0.31192,-0.1729 -0.53869,-0.42661 -0.67162,-0.75677 -0.13293,-0.33103 -0.1981,-0.77849 -0.1981,-1.35019 l 0.003,-3.11657 h 0.69247 l -8.7e-4,3.10962 c 0,0.46918 0.0434,0.81063 0.12685,1.0374 0.0825,0.21982 0.22938,0.39359 0.43617,0.50568 0.20591,0.12424 0.46223,0.18506 0.76111,0.18506 0.51088,0 0.87841,-0.1199 1.09649,-0.35883 0.21721,-0.23546 0.32495,-0.69595 0.32495,-1.36931 l 0.007,-3.10962 z m -9.61382,5.40599 0.002,-5.40164 1.04957,-0.003 1.2442,3.82033 c 0.11469,0.35189 0.2007,0.62297 0.25457,0.79935 0.0582,-0.20071 0.15205,-0.48743 0.27803,-0.86885 l 1.2746,-3.75257 0.94097,0.002 -0.006,5.3973 h -0.67771 l 0.004,-4.51889 -1.54134,4.51976 h -0.62731 l -1.51875,-4.59101 -0.002,4.59101 -0.67509,0.006 z"
         style="fill:#241f1f"
         id="path318" />
      <g
         id="g8242">
        <path
           style="fill:#e97c04;fill-rule:evenodd;stroke:none"
           inkscape:connector-curvature="0"
           clip-rule="evenodd"
           d="m 279.12256,375.34843 c 17.98693,-0.0156 32.55841,14.82518 32.54625,33.13359 -0.0174,18.31188 -14.61406,33.17355 -32.60185,33.18659 -17.97911,0.013 -32.55668,-14.82519 -32.54191,-33.13446 0.0174,-18.31014 14.61058,-33.17095 32.59751,-33.18572"
           id="path320" />
        <path
           style="fill:#259bd7;fill-rule:evenodd"
           inkscape:connector-curvature="0"
           clip-rule="evenodd"
           d="m 278.95661,379.89339 c 15.56892,-0.0139 28.25934,12.91024 28.24544,28.76154 -0.0139,15.84521 -12.72083,28.78586 -28.29062,28.79803 -15.56718,0.0174 -28.25934,-12.90503 -28.24718,-28.75285 0.0156,-15.85477 12.7217,-28.79716 28.29236,-28.80672"
           id="path324" />
        <path
           style="font-size:medium;font-style:normal;font-variant:normal;font-weight:normal;font-stretch:normal;text-indent:0;text-align:start;text-decoration:none;line-height:normal;letter-spacing:normal;word-spacing:normal;text-transform:none;direction:ltr;block-progression:tb;writing-mode:lr-tb;text-anchor:start;baseline-shift:baseline;color:#000000;fill:#000000;fill-opacity:1;fill-rule:evenodd;stroke:none;stroke-width:0.69999999;marker:none;visibility:visible;display:inline;overflow:visible;enable-background:accumulate;font-family:Sans;-inkscape-font-specification:Sans"
           d="m 279.125,375 c -18.17955,0.0149 -32.91992,15.03532 -32.9375,33.53125 -0.0149,18.4952 14.70318,33.51314 32.875,33.5 18.18043,-0.0132 32.95117,-15.06481 32.96875,-33.5625 C 312.04353,389.97451 297.30461,374.98423 279.125,375 z m 0,0.6875 c 17.79425,-0.0154 32.19954,14.65867 32.1875,32.78125 -0.0172,18.12607 -14.45485,32.83085 -32.25,32.84375 -17.7864,0.0129 -32.20212,-14.65791 -32.1875,-32.78125 0.0172,-18.12435 14.45569,-32.82914 32.25,-32.84375 z"
           id="path10389"
           inkscape:connector-curvature="0" />
        <path
           style="fill:#ffe900;fill-rule:evenodd;stroke:none"
           inkscape:connector-curvature="0"
           clip-rule="evenodd"
           d="m 279.15123,388.44634 0.003,-8.51386 c 1.77854,-0.0791 3.73953,0.21982 5.47549,0.53087 l -0.97311,5.015 c 3.4476,0.65424 5.64926,1.58131 8.24452,3.51884 l 2.81507,-4.22087 c 2.83766,2.1113 5.81347,4.79692 7.71278,7.81183 l -4.14876,2.84114 c 1.78201,2.56397 2.8507,5.53196 3.51624,8.41741 l 4.82646,-0.99135 c 0.78074,3.22854 0.67857,7.94389 0.13206,11.14995 l -4.89423,-1.01916 c -0.59082,2.97581 -1.85326,5.83606 -3.42761,8.50169 l 4.23738,2.92281 c -2.18255,3.40068 -4.71785,5.55282 -7.80749,7.97344 l -2.75425,-4.26171 c -2.51706,1.80634 -5.07148,2.81942 -8.43653,3.5701 l 1.00005,5.19659 c -1.34151,0.30063 -4.31384,0.60907 -5.60496,0.52305 l 0.0356,-8.28448 0.0478,-40.68129"
           id="path508"
           sodipodi:nodetypes="ccccccccccccccccccccc" />
        <g
           id="g8174">
          <g
             id="g8168">
            <path
               inkscape:connector-curvature="0"
               style="fill:#259bd7;fill-rule:evenodd"
               d="m 285.625,389.625 -0.0312,38.34375 c 2.71355,-0.91865 5.01627,-2.32132 6.90625,-4.0625 l 0.0312,-30.28125 c -1.87726,-1.70609 -4.16044,-3.09151 -6.875,-4 -0.009,-0.003 -0.0219,0.003 -0.0312,0 z"
               transform="translate(0,-0.0014209)"
               id="polygon430" />
            <path
               inkscape:connector-curvature="0"
               style="fill:#db0e15;fill-rule:evenodd;stroke:none"
               d="M 279.15625,388.46875 279.125,429.125 c 2.34948,-0.10392 4.50263,-0.50427 6.4375,-1.15625 l 0.0312,-38.375 c -1.7338,-0.57405 -3.64256,-0.93937 -5.7187,-1.09375 l -0.71875,-0.0312 z"
               transform="translate(0,-0.0014209)"
               id="polygon434" />
            <path
               inkscape:connector-curvature="0"
               style="fill:#ffffff;fill-rule:evenodd"
               d="M 287.9375,390.53125 287.90625,427 c 0.79695,-0.38674 1.57022,-0.83873 2.28125,-1.3125 l 0.0312,-33.875 c -0.71465,-0.46767 -1.47781,-0.89944 -2.28125,-1.28125 z"
               id="polygon438"
               transform="translate(0,-0.0014209)" />
          </g>
          <path
             inkscape:connector-curvature="0"
             id="path462"
             transform="translate(0,-0.0014209)"
             d="m 295.125,396.625 c -5.12187,12.17779 5.43261,7.88703 -1.5625,26.0625 0.18733,-0.15886 0.35826,-0.30815 0.53125,-0.46875 5.96688,-7.02778 6.42063,-17.89551 1.21875,-25.40625 -0.0657,-0.0584 -0.11916,-0.13074 -0.1875,-0.1875 z"
             style="fill:#db0e15;fill-rule:evenodd;stroke:none" />
        </g>
        <path
           style="fill:#ffe900;fill-rule:evenodd;stroke:none"
           d="m 279.125,380.1875 -2.40625,3.15625 -1.90625,2.53125 4.3125,2.5 z m -5.40625,0.4375 -0.0312,0.0312 0,0.0312 0.0312,0 z m -0.0312,0.0625 -1.71875,3.5 2.71875,1.59375 z m -5.03125,1.59375 -1.875,6.96875 0.21875,0.0312 2.34375,0.3125 2.40625,0.3125 z m -5.03125,2.5625 -0.25,3.96875 3.125,0.40625 z m -4.1875,3.4375 0.53125,4.09375 0.3125,2.5625 0.0937,0.75 0,0.0312 0.59375,4.6875 c 0.49262,-1.10378 1.07981,-2.13696 1.75,-3.125 0.0293,-0.0432 0.0663,-0.081 0.0937,-0.125 l 0,-0.0312 c 0.72441,-1.04781 1.53655,-2.0166 2.4375,-2.90625 z m 11.21875,2.15625 c -0.34554,0.16403 -0.69708,0.31649 -1.03125,0.5 0.3313,-0.18348 0.68898,-0.33539 1.03125,-0.5 z m -1.03125,0.5 c -0.45271,0.24861 -0.88298,0.52442 -1.3125,0.8125 0.42945,-0.28343 0.86123,-0.56258 1.3125,-0.8125 z m -13.71875,1.71875 1.28125,3.8125 3.0625,-0.84375 z m -2.65625,4.90625 1.9375,3.46875 1.59375,2.8125 0,0.0312 3.96875,-3.125 z m -1.625,5.28125 2.59375,3.03125 2.53125,-1.96875 z m 8.21875,0.8125 c -0.0901,0.34189 -0.17714,0.68262 -0.25,1.03125 0.0711,-0.35198 0.16131,-0.68613 0.25,-1.03125 z m -0.4375,2.03125 c -0.10771,0.68236 -0.182,1.35946 -0.21875,2.0625 0.0351,-0.69238 0.1172,-1.39003 0.21875,-2.0625 z m -8.4375,2.75 3.15625,2.46875 2.5625,2 0.0937,0.0625 0.0312,0.0312 3.59375,2.8125 c -0.39538,-1.09302 -0.69948,-2.23402 -0.90625,-3.40625 -0.0271,-0.14493 -0.0385,-0.29151 -0.0625,-0.4375 -0.16028,-1.03934 -0.28209,-2.10209 -0.28125,-3.1875 10e-5,-0.10612 -0.002,-0.20676 0,-0.3125 z m 5.65625,4.59375 -5.21875,1.0625 3.59375,1.8125 z m 3.9375,3.1875 -7.5,3.15625 3.84375,1.0625 0.59375,0.15625 2.5625,0.71875 -0.0312,0.0312 0.0625,0 0.59375,-4.71875 c -0.0542,-0.13205 -0.0734,-0.2728 -0.125,-0.40625 z m -0.46875,5.15625 -4.46875,3 4.03125,0.28125 z m 4.75,1.59375 -1.875,1.90625 -3.84375,3.9375 -0.0312,0.0312 4.0625,-0.53125 3.1875,-0.4375 0.0312,0 2.8125,-0.375 1.6875,-0.21875 c -2.27219,-1.04907 -4.31125,-2.51801 -6.03125,-4.3125 z m 1.53125,4.90625 -2.90625,4.4375 3.75,-1.28125 z m 5,-0.375 -3.0625,7.5 3.5,-2.0625 2.8125,-1.65625 0.0312,0 -2.71875,-3.5625 c -0.18585,-0.073 -0.37939,-0.14033 -0.5625,-0.21875 z m 3.3125,3.8125 -1.0625,5.3125 3.03125,-2.6875 z"
           transform="translate(0,-0.0014209)"
           id="polygon332"
           inkscape:connector-curvature="0"
           sodipodi:nodetypes="cccccccccccccccccccccccccccccccccccccccccccccccccccccccccccccccccccccccccccccccccccccccccccccccccccccccccccccccccc" />
        <path
           style="fill:#008a38;fill-rule:evenodd"
           inkscape:connector-curvature="0"
           clip-rule="evenodd"
           d="m 279.1243,408.77569 -0.0156,20.31632 c -11.01962,0.0122 -19.94705,-9.08296 -19.93837,-20.30068 0.0104,-11.21685 8.95263,-20.32153 19.96878,-20.33109 l -0.0148,20.31545 z"
           id="path520" />
        <path
           inkscape:connector-curvature="0"
           style="fill:#db0e15;fill-rule:evenodd;stroke:none"
           d="m 273.6875,380.65625 1,5.125 -6.0625,-3.53125 3.125,7.65625 c 1.14893,-0.46805 2.35144,-0.81729 3.59375,-1.0625 0.57904,-0.11429 1.15437,-0.21912 1.75,-0.28125 0.0304,-0.003 0.0634,0.003 0.0937,0 0.6411,-0.0639 1.28017,-0.0933 1.9375,-0.0937 l 0,-0.0937 -4.3125,-2.5 1.90625,-2.53125 -3.03125,-2.6875 z m -1.9375,9.25 -4.96875,-0.65625 0.8125,-2.96875 -3.96875,-1.40625 2.84375,4.34375 -7.03125,-0.9375 0,0.0312 5.8125,5.9375 0,0.0312 c 1.85848,-1.83907 4.05405,-3.34733 6.5,-4.34375 l -0.0625,0 c 0.0215,-0.009 0.041,-0.0225 0.0625,-0.0312 z m -11.78125,2.46875 -4.0625,0.28125 4.34375,2.96875 -7.03125,1.9375 7.53125,3.1875 -3.96875,3.125 -1.59375,-2.84375 -3.59375,1.8125 5.15625,1.0625 -5.78125,4.53125 8.1875,0.0312 c 0.0442,-2.7626 0.66333,-5.39029 1.6875,-7.78125 0.0387,-0.0948 0.0823,-0.18583 0.125,-0.28125 l -0.59375,-4.6875 -0.40625,-3.34375 z m -5.84375,18.53125 -2.71875,3.1875 5.21875,-1.0625 -3.59375,6.375 7.53125,-3.1875 c -0.0476,-0.12325 -0.0795,-0.25062 -0.125,-0.375 l -0.0312,-0.0312 -3.59375,-2.8125 -0.125,-0.0937 -2.5625,-2 z m 6.5625,5.71875 -0.59375,4.71875 -3.1875,-0.90625 -1.3125,3.96875 4.5,-3.03125 -0.96875,7.4375 5.71875,-5.84375 c -0.39119,-0.40168 -0.76782,-0.81587 -1.125,-1.25 -0.0327,-0.0403 -0.0614,-0.0844 -0.0937,-0.125 -0.0143,-0.0179 -0.0176,-0.0441 -0.0312,-0.0625 -0.0967,-0.12205 -0.18732,-0.25064 -0.28125,-0.375 -0.45056,-0.59654 -0.86574,-1.2286 -1.25,-1.875 -0.12052,-0.19795 -0.26112,-0.39148 -0.375,-0.59375 -0.067,-0.12204 -0.12293,-0.25142 -0.1875,-0.375 -0.28603,-0.5342 -0.54728,-1.06179 -0.78125,-1.625 -0.009,-0.0215 -0.0224,-0.0409 -0.0312,-0.0625 z m 10.1875,10.65625 -1.6875,0.21875 -2.8125,0.375 1.90625,7.1875 3.09375,-7.5625 c -0.16784,-0.0719 -0.33454,-0.14236 -0.5,-0.21875 z m -4.5,0.59375 -3.21875,0.4375 0.28125,4.0625 2.9375,-4.5 z m 5.5625,-0.15625 2.71875,3.5625 -2.84375,1.65625 1.8125,3.71875 1.0625,-5.34375 4.40625,5.84375 0,-8.0625 c -2.53344,0.003 -4.92714,-0.49994 -7.15625,-1.375 z"
           transform="translate(0,-0.0014209)"
           id="polygon356" />
        <path
           inkscape:connector-curvature="0"
           style="fill:#db0e15;fill-rule:evenodd;stroke:none"
           d="M 289.90625,382.09375 288,386.71875 c 1.34111,0.56105 2.57862,1.29009 3.90625,2.28125 l 1.75,-2.625 1.03125,-1.59375 c -1.802,-1.17817 -2.85328,-1.87773 -4.78125,-2.6875 z M 305,397.5 l -4.5625,1.9375 c 0.59131,1.45155 1.00393,2.93297 1.34375,4.40625 l 4.84375,-1 C 306.14627,400.73418 305.82454,399.45491 305,397.5 z m -4.5,19.90625 c -0.5811,1.39786 -1.28709,2.78086 -2.0625,4.09375 l 4.21875,2.90625 c 1.07042,-1.79331 1.7015,-2.98598 2.53125,-5.03125 L 300.5,417.40625 z M 288.09375,430.375 c -1.33824,0.54763 -2.77515,0.94863 -4.40625,1.3125 l 1,5.1875 c 1.98084,-0.41569 3.35975,-0.88793 5.28125,-1.75 l -1.875,-4.75 z"
           transform="translate(0,-0.0014209)"
           id="path478" />
        <path
           style="fill:#db0e15;fill-rule:evenodd;stroke:none"
           inkscape:connector-curvature="0"
           clip-rule="evenodd"
           d="m 279.01309,429.11981 c -2.29811,0.0217 -4.83428,-0.52826 -7.2158,-1.40928 -2.42583,-3.84379 -3.16261,-5.23655 -2.76816,-7.27401 2.21123,-5.79957 -0.23372,-11.08913 1.15818,-14.23176 0.6751,3.45021 1.96186,4.29038 2.4684,6.18274 1.37018,3.99497 -1.01742,7.81791 6.35738,16.73231"
           id="path524" />
        <path
           style="font-size:medium;font-style:normal;font-variant:normal;font-weight:normal;font-stretch:normal;text-indent:0;text-align:start;text-decoration:none;line-height:normal;letter-spacing:normal;word-spacing:normal;text-transform:none;direction:ltr;block-progression:tb;writing-mode:lr-tb;text-anchor:start;baseline-shift:baseline;color:#000000;fill:#000000;fill-opacity:1;fill-rule:evenodd;stroke:none;stroke-width:0.40000001;marker:none;visibility:visible;display:inline;overflow:visible;enable-background:accumulate;font-family:Sans;-inkscape-font-specification:Sans"
           d="m 270,406.125 c -0.73034,1.64895 -0.44165,3.78533 -0.28125,6.21875 0.14686,2.22796 0.0445,5.38056 -0.62284,7.30999 -0.66736,1.92943 -0.37833,2.71921 0.0603,3.81496 0.43867,1.09575 1.25489,2.42036 2.46875,4.34375 0.0159,0.0251 0.0374,0.0466 0.0625,0.0625 0.009,0.0115 0.0197,0.022 0.0312,0.0312 2.39945,0.88765 4.94985,1.42826 7.28125,1.40625 l 0,-0.1875 0.15625,-0.125 c -6.39757,-7.73317 -5.5433,-12.54072 -5.94115,-15.10982 -0.39784,-2.56911 -0.97833,-3.04573 -1.55885,-4.10888 -0.58052,-1.06315 -0.94771,-1.92039 -1.28125,-3.625 -0.0524,-0.26476 -0.37115,-0.13669 -0.37495,-0.0312 z m 0.16797,0.84766 c 0.3184,1.2025 0.76552,2.28727 1.14453,2.99609 0.47402,0.88651 0.91201,1.55629 1.15625,2.46875 1.31296,3.82813 -0.85819,7.78512 6.125,16.4375 -2.13968,-0.0399 -4.44748,-0.50203 -6.65625,-1.3125 -1.19418,-1.89325 -1.9822,-3.20142 -2.40625,-4.25 -0.24017,-0.59389 -0.36743,-1.10628 -0.39906,-1.61629 -0.0725,-0.82645 0.16775,-1.45228 0.41415,-2.19537 0.77101,-2.57553 0.66258,-5.15175 0.57866,-7.18829 -0.0839,-2.03654 -0.3838,-3.79171 0.043,-5.33989 z"
           id="path4230"
           inkscape:connector-curvature="0"
           sodipodi:nodetypes="cszzcccccczzcccccccscczccc" />
        <path
           style="fill:#000000;fill-rule:evenodd"
           inkscape:connector-curvature="0"
           clip-rule="evenodd"
           d="m 308.49229,405.19429 0.0964,0.5187 c -0.17291,0.0504 -0.29715,0.12686 -0.3684,0.22677 -0.073,0.11035 -0.10339,0.24068 -0.0904,0.40923 0.0174,0.16682 0.066,0.29889 0.14423,0.38577 0.0765,0.0765 0.16769,0.11382 0.265,0.10513 0.0608,-0.007 0.11035,-0.0287 0.15639,-0.0721 0.0408,-0.0426 0.0695,-0.10861 0.0965,-0.20331 0.0122,-0.0704 0.0408,-0.21461 0.0747,-0.44225 0.0495,-0.29367 0.11555,-0.51175 0.20852,-0.6386 0.1338,-0.17551 0.30062,-0.27195 0.51089,-0.29194 0.13554,-0.0113 0.26152,0.0182 0.3849,0.0843 0.12424,0.0652 0.22416,0.16943 0.29714,0.31105 0.0695,0.13989 0.11904,0.31105 0.13381,0.5187 0.0321,0.33712 -0.0217,0.59169 -0.15118,0.77936 -0.12859,0.17725 -0.31366,0.28933 -0.5552,0.31887 l -0.0713,-0.53608 c 0.13381,-0.0365 0.22591,-0.0921 0.27804,-0.17638 0.0547,-0.0799 0.073,-0.19636 0.0591,-0.35188 -0.0139,-0.15552 -0.053,-0.27456 -0.12598,-0.35797 -0.0443,-0.0547 -0.10514,-0.0817 -0.16422,-0.0747 -0.0695,0.007 -0.11903,0.0374 -0.15987,0.0964 -0.0478,0.0678 -0.093,0.24676 -0.13032,0.51089 -0.0408,0.26847 -0.0886,0.47005 -0.14249,0.60298 -0.0547,0.13207 -0.13728,0.23546 -0.24068,0.31974 -0.11034,0.0834 -0.24762,0.12946 -0.41096,0.14683 -0.14771,0.0104 -0.29715,-0.0174 -0.4379,-0.0904 -0.13554,-0.0773 -0.24589,-0.18767 -0.32408,-0.33451 -0.0782,-0.15204 -0.12859,-0.34493 -0.14423,-0.57691 -0.0287,-0.34146 0.0235,-0.60559 0.16334,-0.80108 0.13902,-0.19462 0.35449,-0.33016 0.64816,-0.38664 m -1.21204,-2.23121 2.59612,-0.51522 0.37013,1.95404 -0.43616,0.0877 -0.27195,-1.42752 -0.57692,0.11643 0.25458,1.32586 -0.4379,0.0895 -0.2511,-1.32587 -0.70725,0.13641 0.27804,1.47704 -0.43617,0.0851 -0.38142,-2.00357 z m -0.58474,-2.67345 2.57614,-0.59863 0.11903,0.51001 -1.47965,1.47878 1.72033,-0.40575 0.11034,0.49611 -2.5744,0.60212 -0.12077,-0.52479 1.43881,-1.45619 -1.67862,0.39793 -0.11121,-0.49959 z m 0.43269,-2.76468 c -0.28325,0.0973 -0.47352,0.23633 -0.5717,0.42574 -0.1034,0.17898 -0.12077,0.38056 -0.053,0.57952 0.0678,0.20592 0.19896,0.34667 0.38663,0.424 0.18854,0.0886 0.42922,0.0782 0.72463,-0.0261 0.2815,-0.10079 0.47526,-0.23981 0.56822,-0.41618 0.1034,-0.18159 0.11556,-0.37013 0.0478,-0.58474 -0.0765,-0.21113 -0.20331,-0.35536 -0.38838,-0.43529 -0.18854,-0.0773 -0.42573,-0.0678 -0.71419,0.033 m -0.19549,-0.52391 c 0.25631,-0.0921 0.48395,-0.12599 0.68205,-0.11295 0.14596,0.0148 0.28845,0.053 0.42052,0.12337 0.1338,0.0608 0.24415,0.14163 0.33624,0.24415 0.12077,0.13641 0.21722,0.30931 0.28325,0.51523 0.12598,0.37273 0.11729,0.70985 -0.0374,1.01829 -0.15466,0.30844 -0.43443,0.5326 -0.83844,0.67249 -0.40576,0.14249 -0.75851,0.1477 -1.06087,0 -0.30583,-0.1451 -0.51783,-0.40141 -0.64121,-0.77849 -0.13033,-0.37621 -0.11729,-0.71767 0.0322,-1.01655 0.15031,-0.30584 0.43008,-0.52653 0.82367,-0.66554 m -1.64908,-0.42574 2.39803,-1.14514 0.22416,0.49611 -2.39976,1.13472 -0.22243,-0.48569 z m -0.37708,-2.74383 0.28325,0.44572 c -0.13728,0.11035 -0.22243,0.22503 -0.2511,0.3571 -0.0252,0.11295 0,0.25457 0.073,0.3988 0.0799,0.15553 0.17116,0.25457 0.28151,0.29802 0.10339,0.0434 0.19983,0.0434 0.28672,-8.7e-4 0.053,-0.033 0.093,-0.0747 0.11208,-0.12685 0.0235,-0.0547 0.0235,-0.13033 0.0156,-0.23025 -0.0104,-0.0678 -0.046,-0.21026 -0.0982,-0.44137 -0.073,-0.28672 -0.0912,-0.51002 -0.053,-0.66294 0.053,-0.21287 0.16943,-0.3736 0.35623,-0.47352 0.11729,-0.0626 0.24588,-0.0904 0.38837,-0.0834 0.13381,0.0165 0.26674,0.0782 0.38838,0.17464 0.11903,0.0956 0.23111,0.24067 0.32756,0.42139 0.14944,0.29715 0.20331,0.55693 0.15291,0.78023 -0.0478,0.21547 -0.17637,0.39272 -0.38837,0.51349 l -0.27021,-0.46744 c 0.11034,-0.0869 0.16942,-0.17725 0.18854,-0.27021 0.0182,-0.10166 -0.009,-0.21548 -0.0782,-0.34841 -0.0695,-0.13902 -0.15987,-0.23546 -0.25631,-0.28499 -0.0626,-0.0278 -0.12425,-0.0278 -0.18333,0.003 -0.0556,0.0347 -0.0912,0.0799 -0.10513,0.15466 -0.0182,0.0851 0.007,0.25978 0.073,0.51957 0.0678,0.265 0.10514,0.46918 0.10861,0.6108 -0.003,0.14075 -0.0356,0.27195 -0.10513,0.39185 -0.0695,0.11903 -0.17638,0.21548 -0.32061,0.29367 -0.13554,0.0782 -0.2815,0.10948 -0.43616,0.0921 -0.15813,-0.0139 -0.30062,-0.0721 -0.42921,-0.18072 -0.12598,-0.11034 -0.24588,-0.26674 -0.35449,-0.47179 -0.15813,-0.30236 -0.21026,-0.56388 -0.15813,-0.79673 0.0565,-0.2372 0.20244,-0.44572 0.4518,-0.61515 m -1.24593,-0.3849 2.28942,-1.35193 0.26847,0.47266 -2.28942,1.34671 -0.26847,-0.46744 z m -1.71337,-2.56658 2.1365,-1.58304 0.47005,0.66119 -1.17903,1.47444 1.74291,-0.69161 0.46657,0.66033 -2.14171,1.57957 -0.28672,-0.40489 1.68383,-1.24593 -1.99575,0.81412 -0.30062,-0.4214 1.37973,-1.67948 -1.68817,1.24593 -0.28759,-0.40923 z m -2.24685,-2.70994 1.99401,-1.76985 1.28503,1.50659 -0.33624,0.29714 -0.93662,-1.09562 -0.44138,0.38838 0.86885,1.02263 -0.33798,0.29802 -0.86711,-1.02177 -0.5413,0.48048 0.96356,1.13732 -0.33451,0.29802 -1.31631,-1.54134 z m -0.0547,-3.12873 -1.19988,1.30414 0.29367,0.2763 c 0.10861,0.0973 0.19376,0.17029 0.25631,0.19983 0.073,0.0469 0.15118,0.0704 0.22938,0.0721 0.0782,0 0.16943,-0.0322 0.27456,-0.093 0.10513,-0.0634 0.22937,-0.1729 0.3736,-0.32408 0.13728,-0.14771 0.23112,-0.28238 0.28151,-0.38577 0.0495,-0.11034 0.066,-0.20766 0.0626,-0.29628 -0.007,-0.0886 -0.0356,-0.18246 -0.0964,-0.26587 -0.0426,-0.0608 -0.14423,-0.17203 -0.3041,-0.32321 l -0.17117,-0.16421 z m -0.0895,-0.70638 0.71594,0.67858 c 0.1616,0.14857 0.27195,0.28324 0.33276,0.38403 0.0817,0.14162 0.12599,0.29888 0.12599,0.45875 0.002,0.16508 -0.0356,0.32843 -0.10687,0.49351 -0.0782,0.16508 -0.19549,0.34406 -0.36492,0.52478 -0.14944,0.16161 -0.29888,0.28498 -0.44485,0.36057 -0.17811,0.0999 -0.35449,0.15205 -0.52478,0.15814 -0.12859,0 -0.27022,-0.033 -0.41445,-0.106 -0.11729,-0.0565 -0.2424,-0.14858 -0.38837,-0.28064 l -0.73505,-0.70464 1.8046,-1.96708 z m -2.91933,-0.25196 0.265,-1.03307 -0.85843,0.60733 0.59343,0.42574 z m 0.20591,1.44229 -0.47526,-0.34059 0.15466,-0.62992 -0.86364,-0.61862 -0.52478,0.37448 -0.46136,-0.3319 2.35893,-1.6039 0.46135,0.32755 -0.6499,2.8229 z m -2.83766,-1.97403 1.40319,-2.27899 0.45181,0.28759 -1.4032,2.27812 -0.4518,-0.28672 z m -0.35796,-1.39016 0.38663,0.38751 c -0.20505,0.22764 -0.41618,0.36057 -0.64816,0.40141 -0.22764,0.0452 -0.4631,-8.7e-4 -0.71941,-0.13381 -0.30844,-0.16247 -0.51609,-0.40227 -0.60558,-0.72288 -0.093,-0.32408 -0.0443,-0.6751 0.14249,-1.04957 0.20157,-0.3988 0.45962,-0.65511 0.76893,-0.77067 0.31539,-0.1199 0.63773,-0.093 0.96877,0.0765 0.28498,0.15205 0.47526,0.36231 0.57344,0.62731 0.0547,0.15465 0.0556,0.34406 0.0174,0.56649 l -0.5326,-0.13207 c 0.0391,-0.13641 0.0287,-0.265 -0.0235,-0.38055 -0.0513,-0.1173 -0.14075,-0.21374 -0.26674,-0.27543 -0.17811,-0.0895 -0.35101,-0.0991 -0.51957,-0.033 -0.1729,0.0712 -0.33451,0.2537 -0.47873,0.53955 -0.14945,0.3041 -0.20679,0.54738 -0.15987,0.73331 0.0391,0.17812 0.1477,0.31974 0.3206,0.40489 0.12599,0.0704 0.25458,0.0808 0.3849,0.0495 0.13294,-0.0356 0.26674,-0.13033 0.39099,-0.28846 m -4.34773,-0.99744 1.08085,-2.45537 0.47352,0.20853 0.265,2.09132 0.72462,-1.64039 0.4518,0.20505 -1.07911,2.45537 -0.48568,-0.21982 -0.27456,-2.04354 -0.69942,1.60303 -0.45702,-0.20418 z m -1.03393,-0.3319 0.81585,-2.55876 0.51088,0.16595 -0.82019,2.55963 -0.50654,-0.16682 z m -1.68123,-0.54737 -0.22676,-2.84201 0.55953,0.15118 0.13989,2.09827 1.13211,-1.75421 0.54824,0.14771 -1.60042,2.35371 -0.55259,-0.15465 z m -2.77684,-2.00357 c -0.0513,0.29801 -0.0208,0.53347 0.0843,0.71506 0.11034,0.18246 0.27021,0.28846 0.47787,0.32495 0.20939,0.0391 0.39706,-0.005 0.55867,-0.13901 0.15639,-0.12686 0.2676,-0.34581 0.31973,-0.65425 0.0521,-0.30583 0.0287,-0.54216 -0.0765,-0.71767 -0.10427,-0.17116 -0.26587,-0.27369 -0.48395,-0.31452 -0.21722,-0.0434 -0.40489,0.004 -0.56128,0.13554 -0.16161,0.12338 -0.26848,0.33885 -0.31887,0.6499 M 283.26003,378.2 c 0.0504,-0.27456 0.12685,-0.49004 0.24067,-0.66033 0.0825,-0.12251 0.18332,-0.23285 0.3067,-0.32148 0.12077,-0.0869 0.24675,-0.15118 0.37534,-0.17811 0.17551,-0.04 0.36579,-0.04 0.57953,-8.7e-4 0.3849,0.0643 0.6664,0.24067 0.85581,0.52739 0.19028,0.27804 0.24676,0.63861 0.16769,1.06956 -0.0721,0.424 -0.24328,0.742 -0.51696,0.94444 -0.26761,0.19983 -0.5943,0.26413 -0.97746,0.19896 -0.38577,-0.0756 -0.67423,-0.24675 -0.85669,-0.52826 -0.18941,-0.2815 -0.24675,-0.62991 -0.17463,-1.0513 m -2.14172,-0.43443 0.39533,0.0278 c 0.25283,0.0122 0.41618,0.0165 0.48134,0 0.0669,-0.0174 0.11556,-0.0513 0.159,-0.10513 0.0365,-0.0547 0.0617,-0.11555 0.0634,-0.19896 0.009,-0.0895 -0.009,-0.16335 -0.0539,-0.22591 -0.0417,-0.0556 -0.10687,-0.0973 -0.19115,-0.11468 -0.0391,-0.013 -0.17551,-0.0226 -0.39185,-0.0391 l -0.41271,-0.0295 -0.0495,0.68552 z m -0.64034,1.50832 0.19028,-2.68648 1.11994,0.0808 c 0.28586,0.0174 0.48482,0.0591 0.61081,0.11556 0.11642,0.0608 0.21895,0.15292 0.28845,0.2789 0.0669,0.1312 0.0965,0.27195 0.0843,0.43269 -0.0156,0.20157 -0.0869,0.3597 -0.212,0.48829 -0.12337,0.11816 -0.30496,0.18854 -0.53782,0.20853 0.10948,0.0756 0.19984,0.15813 0.27022,0.24414 0.0669,0.0895 0.15813,0.24067 0.27282,0.45528 l 0.28498,0.54824 -0.63426,-0.0426 -0.34494,-0.61428 c -0.1225,-0.21895 -0.20852,-0.35709 -0.2537,-0.41531 -0.0478,-0.0539 -0.0982,-0.0956 -0.15379,-0.12077 -0.053,-0.0261 -0.14075,-0.04 -0.26586,-0.0487 l -0.10687,-0.0104 -0.0756,1.11908 -0.53695,-0.033 z m -1.88888,-2.27378 -0.0156,0.75503 0.29541,0.0122 c 0.212,0 0.35275,-0.013 0.424,-0.0382 0.0712,-0.0295 0.12772,-0.066 0.16421,-0.12772 0.0426,-0.0608 0.0634,-0.12859 0.0669,-0.2094 0,-0.0947 -0.0243,-0.1729 -0.0791,-0.24414 -0.0556,-0.0634 -0.12773,-0.10513 -0.21548,-0.1199 -0.0634,-0.013 -0.18854,-0.0182 -0.38056,-0.0269 h -0.25978 z m -0.57257,2.22339 0.0495,-2.6917 0.85582,0.0174 c 0.32321,0.003 0.53434,0.0183 0.63252,0.0504 0.14684,0.0417 0.27195,0.1312 0.37708,0.27195 0.0964,0.13728 0.1451,0.31366 0.14162,0.52131 0,0.16422 -0.033,0.30671 -0.0973,0.41705 -0.0617,0.11121 -0.13293,0.20331 -0.2285,0.25979 -0.0912,0.0678 -0.18073,0.10687 -0.27804,0.12337 -0.12685,0.0252 -0.31278,0.0356 -0.55258,0.0296 l -0.34841,-0.004 -0.0183,1.01742 -0.53347,-0.0122 z m -9.49132,0.88101 -0.6916,-0.80108 0.0182,1.06174 0.67336,-0.26066 z m 1.29198,0.63253 -0.54129,0.2146 -0.43008,-0.48916 -0.98615,0.38577 0.008,0.6499 -0.52478,0.21113 0.0104,-2.8898 0.52826,-0.20244 1.9358,2.12 z m -4.85687,0.46309 0.34667,-0.19027 c 0.22938,-0.11643 0.371,-0.19984 0.4127,-0.24763 0.0513,-0.0504 0.0747,-0.11295 0.0834,-0.17029 0.006,-0.0626 -0.005,-0.13207 -0.0408,-0.20244 -0.0365,-0.0825 -0.0904,-0.14076 -0.15987,-0.16422 -0.066,-0.0313 -0.14162,-0.0313 -0.22677,0 -0.0391,0.0122 -0.15726,0.0721 -0.35102,0.17291 l -0.37099,0.18767 0.3067,0.61427 z m 0.212,1.62823 -1.19641,-2.3989 1.00005,-0.51957 c 0.25283,-0.13033 0.44659,-0.20592 0.57952,-0.21895 0.13641,-0.0156 0.26761,0.009 0.39272,0.0851 0.12251,0.0721 0.21635,0.18246 0.29107,0.32669 0.0851,0.17377 0.10947,0.35275 0.066,0.52478 -0.0478,0.1703 -0.16508,0.32756 -0.3571,0.46484 0.13467,0.0104 0.25197,0.0278 0.35536,0.066 0.10426,0.0417 0.26066,0.12511 0.46571,0.24675 l 0.52131,0.32235 -0.56563,0.29454 -0.60645,-0.34494 c -0.21808,-0.11729 -0.35971,-0.19549 -0.42835,-0.21808 -0.0669,-0.0261 -0.13467,-0.0408 -0.18941,-0.0261 -0.0634,0.002 -0.14509,0.0434 -0.25631,0.0956 l -0.0938,0.0486 0.49698,1.00439 -0.47526,0.24676 z m -2.10522,1.29111 -1.40146,-2.27465 1.66298,-1.06087 0.23633,0.3849 -1.21118,0.77067 0.30757,0.50568 1.12864,-0.71767 0.23459,0.38924 -1.12256,0.71246 0.37709,0.62036 1.25201,-0.79848 0.23459,0.38577 -1.6986,1.08259 z m -2.37978,0.25805 0.40314,0.59255 0.40228,-0.28672 c 0.15552,-0.11555 0.25892,-0.19114 0.29454,-0.22937 0.0547,-0.0582 0.0886,-0.12686 0.0982,-0.19897 0.006,-0.0765 -0.0122,-0.15552 -0.0695,-0.23198 -0.0478,-0.0704 -0.0964,-0.11295 -0.16421,-0.13728 -0.0599,-0.0208 -0.13207,-0.0226 -0.20505,-8.7e-4 -0.0712,0.0139 -0.21026,0.099 -0.40488,0.24502 l -0.35449,0.24762 z m -0.60472,-0.86711 0.35014,0.50393 0.28846,-0.20505 c 0.1703,-0.1199 0.27282,-0.19723 0.30931,-0.23459 0.0695,-0.0608 0.11469,-0.12946 0.12251,-0.20505 0.0156,-0.0686 -0.003,-0.1477 -0.053,-0.21808 -0.0487,-0.0643 -0.10339,-0.10687 -0.16856,-0.12685 -0.066,-0.0183 -0.13727,0 -0.21721,0.0487 -0.0478,0.0174 -0.17638,0.10774 -0.38142,0.25284 l -0.25023,0.1842 z m -0.68726,-0.06 0.8645,-0.61775 c 0.17203,-0.12077 0.30584,-0.20592 0.40141,-0.2511 0.0912,-0.0469 0.18593,-0.0695 0.28759,-0.0695 0.0991,-0.003 0.19723,0.0191 0.28933,0.0695 0.0991,0.0443 0.17898,0.10861 0.24762,0.20245 0.0686,0.10687 0.10774,0.21895 0.11295,0.34319 0.003,0.12599 -0.0278,0.24241 -0.0895,0.35189 0.15639,-0.0539 0.3041,-0.0573 0.43703,-0.013 0.14162,0.0356 0.25023,0.12686 0.33885,0.25284 0.0695,0.10252 0.11208,0.21721 0.12946,0.34493 0.02,0.12599 0.009,0.24676 -0.0287,0.35971 -0.0426,0.11208 -0.11469,0.21721 -0.2233,0.31278 -0.0652,0.0582 -0.2398,0.19115 -0.51349,0.38664 l -0.73939,0.52739 -1.5144,-2.19993 z m -1.18772,2.82203 c 0.19462,0.23111 0.39272,0.36144 0.59516,0.39359 0.20592,0.0287 0.39272,-0.0261 0.5552,-0.16335 0.16247,-0.14596 0.24849,-0.31626 0.25109,-0.52478 0.009,-0.20679 -0.0843,-0.42834 -0.28237,-0.66988 -0.1981,-0.23546 -0.39012,-0.37013 -0.58995,-0.40141 -0.19897,-0.0278 -0.38056,0.0313 -0.54911,0.1755 -0.16943,0.14336 -0.25632,0.318 -0.2624,0.52392 -0.004,0.20592 0.086,0.42834 0.28238,0.66641 m -0.40749,0.3736 c -0.17116,-0.212 -0.28933,-0.41444 -0.3432,-0.60732 -0.0391,-0.14249 -0.0556,-0.29107 -0.0434,-0.44225 0.01,-0.15031 0.0469,-0.28672 0.10687,-0.41183 0.0791,-0.16161 0.20418,-0.30844 0.37447,-0.4492 0.29541,-0.25544 0.6108,-0.36926 0.94705,-0.33624 0.33364,0.0391 0.63774,0.22069 0.91837,0.55259 0.26935,0.33972 0.39881,0.66901 0.37361,1.01481 -0.0269,0.33538 -0.1842,0.63426 -0.48221,0.88971 -0.30236,0.25196 -0.61515,0.37013 -0.94966,0.3319 -0.32929,-0.0304 -0.63339,-0.21548 -0.90186,-0.54217 m -1.3806,3.6205 -1.99401,-1.75855 1.28502,-1.50832 0.33972,0.29801 -0.93488,1.10083 0.43877,0.38838 0.87146,-1.02177 0.33451,0.29628 -0.86972,1.02177 0.54563,0.48134 0.9679,-1.13385 0.3293,0.29628 -1.3137,1.5396 z m -3.04272,0.45441 1.41275,1.0461 0.23807,-0.32843 c 0.0869,-0.12338 0.1451,-0.21113 0.16856,-0.27716 0.0339,-0.0851 0.0426,-0.16595 0.0382,-0.23807 -0.007,-0.0843 -0.0495,-0.17029 -0.12598,-0.27369 -0.0738,-0.0964 -0.19462,-0.21113 -0.3571,-0.33711 -0.17029,-0.12338 -0.30236,-0.19549 -0.41183,-0.23546 -0.11208,-0.033 -0.212,-0.0391 -0.29802,-0.0243 -0.0904,0.0183 -0.17029,0.06 -0.24849,0.12773 -0.0565,0.0487 -0.1477,0.16421 -0.27803,0.3458 l -0.13815,0.19462 z m -0.67249,0.17464 0.57258,-0.80021 c 0.12945,-0.18767 0.24067,-0.31192 0.33537,-0.3849 0.12772,-0.10426 0.27369,-0.16335 0.43182,-0.1842 0.16074,-0.0252 0.32582,-0.01 0.49438,0.0478 0.16768,0.0539 0.35622,0.15118 0.55606,0.30236 0.17638,0.13293 0.31192,0.26673 0.40662,0.40141 0.1199,0.16421 0.18767,0.34059 0.21374,0.51522 0.0156,0.13033 0.002,0.27195 -0.0521,0.4353 -0.0382,0.11556 -0.11817,0.25718 -0.23372,0.42226 l -0.58995,0.82454 -2.13477,-1.57957 z m -1.39624,3.30597 1.54742,0.83236 0.18333,-0.3597 c 0.0721,-0.12772 0.11382,-0.23112 0.1312,-0.29889 0.0217,-0.0895 0.0217,-0.16942 0.002,-0.24675 -0.0182,-0.0756 -0.0747,-0.15987 -0.15814,-0.24675 -0.0886,-0.0886 -0.22155,-0.18594 -0.39967,-0.27804 -0.18419,-0.0973 -0.33103,-0.15726 -0.44311,-0.18072 -0.11208,-0.0182 -0.21026,-0.0113 -0.29802,0.0174 -0.0834,0.0295 -0.15813,0.0817 -0.22416,0.16334 -0.0487,0.0565 -0.12685,0.18246 -0.22937,0.3849 l -0.11122,0.21287 z m -0.64816,0.26413 0.46136,-0.87754 c 0.10426,-0.19375 0.19549,-0.33711 0.27977,-0.42573 0.11295,-0.1173 0.24849,-0.19897 0.40575,-0.24154 0.15466,-0.0443 0.318,-0.0556 0.4909,-0.0261 0.18072,0.0313 0.37621,0.10513 0.59603,0.22417 0.19202,0.10165 0.34494,0.21634 0.45702,0.34145 0.14075,0.14945 0.22937,0.31105 0.27629,0.47526 0.04,0.12773 0.0435,0.27195 0.0156,0.44051 -0.0261,0.12077 -0.0799,0.27195 -0.17551,0.4492 l -0.47352,0.90534 -2.33373,-1.26505 z m 0.88623,1.99314 -1.03915,-0.0851 0.73766,0.75329 0.30149,-0.66815 z m 1.36757,-0.4544 -0.24936,0.53695 -0.63948,-0.0478 -0.44659,0.97485 0.4492,0.45875 -0.23893,0.52652 -1.95578,-2.09132 0.23719,-0.51957 2.84375,0.16161 z m -3.75865,3.54403 1.65082,0.57431 0.13032,-0.38055 c 0.0513,-0.14336 0.0782,-0.24589 0.0799,-0.31539 0.0104,-0.0938 -0.002,-0.17812 -0.0287,-0.2485 -0.0322,-0.073 -0.0947,-0.14336 -0.1981,-0.21808 -0.0999,-0.0712 -0.25023,-0.14336 -0.44138,-0.21287 -0.19201,-0.0704 -0.34667,-0.0947 -0.46136,-0.0982 -0.11555,0 -0.21026,0.0165 -0.28759,0.0565 -0.0817,0.0417 -0.14683,0.10774 -0.20244,0.19897 -0.0374,0.0643 -0.0956,0.2007 -0.16682,0.40922 l -0.0747,0.23459 z m -0.60037,0.36058 0.31887,-0.93315 c 0.0686,-0.21287 0.14336,-0.36839 0.2146,-0.46918 0.0904,-0.13641 0.212,-0.23545 0.3571,-0.30496 0.14683,-0.0695 0.30844,-0.0982 0.48742,-0.10253 0.18072,0 0.38577,0.0443 0.61602,0.12685 0.20505,0.0695 0.37708,0.16335 0.50827,0.265 0.15987,0.12773 0.2763,0.27022 0.34668,0.42313 0.0573,0.12164 0.0834,0.265 0.0808,0.43182 -0.006,0.12512 -0.0391,0.28499 -0.10513,0.47526 l -0.32843,0.9679 -2.4962,-0.88014 z m -0.65338,2.89674 0.13033,-0.52913 1.39016,0.34928 c 0.21721,0.0608 0.36318,0.0886 0.43269,0.0912 0.11121,8.7e-4 0.21026,-0.0304 0.29193,-0.10079 0.0851,-0.0669 0.14423,-0.16855 0.17985,-0.318 0.0365,-0.15378 0.0365,-0.27542 -0.004,-0.36665 -0.0452,-0.0886 -0.10426,-0.15552 -0.18854,-0.19028 -0.0834,-0.0365 -0.22764,-0.0834 -0.43269,-0.13467 l -1.41796,-0.35623 0.13032,-0.52826 1.34846,0.33972 c 0.30757,0.0817 0.52044,0.14684 0.64208,0.20852 0.1199,0.0643 0.21287,0.13815 0.28498,0.23546 0.066,0.0999 0.10861,0.22156 0.13294,0.35971 0.0182,0.14944 0.003,0.31886 -0.046,0.52478 -0.0634,0.25023 -0.13989,0.43008 -0.22677,0.54998 -0.0869,0.10948 -0.18594,0.19028 -0.29367,0.24415 -0.10774,0.0539 -0.21548,0.0773 -0.31626,0.0765 -0.15987,-0.005 -0.38056,-0.033 -0.66902,-0.11469 l -1.36844,-0.34059 z m 2.43278,1.66819 -2.61697,-0.37186 0.0738,-0.53435 2.61958,0.36926 -0.0765,0.53695 z m -1.09909,0.88623 0.20678,-0.50654 c 0.28238,0.10426 0.48482,0.25892 0.60733,0.45354 0.12338,0.20157 0.16856,0.44485 0.14597,0.73331 -0.0313,0.3571 -0.17725,0.63861 -0.43443,0.84626 -0.25718,0.20939 -0.59603,0.29106 -1.0096,0.26066 -0.43703,-0.0426 -0.76893,-0.1842 -0.98962,-0.43877 -0.22243,-0.25458 -0.31974,-0.56563 -0.28325,-0.93923 0.0278,-0.32582 0.1451,-0.58908 0.35276,-0.77588 0.12511,-0.11209 0.29367,-0.19202 0.50653,-0.23286 l 0.0834,0.55259 c -0.14336,0.0148 -0.25544,0.073 -0.34319,0.16856 -0.0878,0.0869 -0.13989,0.20679 -0.14857,0.35188 -0.0191,0.19984 0.0382,0.36405 0.16681,0.50481 0.1312,0.13554 0.35363,0.21895 0.66641,0.24241 0.33017,0.0313 0.57344,-0.0148 0.72289,-0.11817 0.15639,-0.11121 0.23893,-0.26065 0.25544,-0.45267 0.0113,-0.15118 -0.0208,-0.27456 -0.10426,-0.38924 -0.0791,-0.10427 -0.21374,-0.19636 -0.40141,-0.26066"
           id="path482" />
        <path
           style="font-size:medium;font-style:normal;font-variant:normal;font-weight:normal;font-stretch:normal;text-indent:0;text-align:start;text-decoration:none;line-height:normal;letter-spacing:normal;word-spacing:normal;text-transform:none;direction:ltr;block-progression:tb;writing-mode:lr-tb;text-anchor:start;baseline-shift:baseline;color:#000000;fill:#000000;fill-opacity:1;fill-rule:evenodd;stroke:none;stroke-width:0.45500001;marker:none;visibility:visible;display:inline;overflow:visible;enable-background:accumulate;font-family:Sans;-inkscape-font-specification:Sans"
           d="m 294,397.34375 c -0.20137,0.01 -0.39933,0.0201 -0.5625,0.0625 -0.16317,0.0424 -0.28615,0.10846 -0.40625,0.1875 -0.1201,0.079 -0.24885,0.18745 -0.28125,0.34375 -0.004,0.0218 7.6e-4,0.0412 0,0.0625 -0.12974,0.17102 -0.1056,0.20031 0.0625,0.5625 0.1681,0.36219 0.74548,0.81467 1.1562,0.9686 0.41072,0.15393 0.69363,0.27097 1.03125,0.3437 0.33762,0.0727 0.64107,0.13486 0.90625,0.3124 L 296,400.25 c -0.20236,-0.0377 -0.39637,-0.0745 -0.625,-0.0937 -0.32057,-0.0256 -0.6465,-0.0152 -0.9375,0 -0.291,0.0152 -0.54709,0.035 -0.78125,0.0937 -0.23416,0.0588 -0.43007,0.14624 -0.59375,0.25 -0.16368,0.10376 -0.3025,0.24596 -0.34375,0.4375 -0.0204,0.12537 -0.0549,-0.0652 -0.0312,0.34375 0.0237,0.40899 0.32596,0.76522 0.6562,1.03125 0.33024,0.26603 0.84313,0.40872 1.25,0.5623 0.80483,0.24851 1.63636,0.40193 2.28125,0.781 -0.27521,-0.0894 -0.56098,-0.15811 -0.875,-0.21875 -0.3825,-0.0733 -0.74579,-0.11544 -1.09375,-0.125 -0.34796,-0.01 -0.68057,0.0135 -0.96875,0.0625 -0.28818,0.049 -0.54552,0.13547 -0.75,0.25 -0.48741,0.19425 -0.52457,0.34337 -0.51022,0.89035 0.0143,0.54699 0.50824,1.26863 1.35397,1.7033 0.84573,0.43467 2.32469,0.40952 3.1875,0.9059 -0.0928,-0.004 -0.18387,4.6e-4 -0.28125,0 -0.36916,-0.002 -0.76881,0.0218 -1.1875,0.0937 -0.83744,0.13995 -1.60106,0.39775 -2.15625,0.71875 -0.27759,0.1605 -0.46612,0.24793 -0.6875,0.53125 -0.22138,0.28332 -0.31436,0.50645 -0.2813,0.9375 0.14629,0.61134 0.17322,0.76649 0.9374,1.21875 0.76418,0.45226 3.81329,1.09026 3.8125,1.4057 -0.20171,-0.0324 -0.41752,-0.059 -0.65625,-0.0625 -0.32649,-0.005 -0.68986,0.0109 -1.0625,0.0625 -0.74556,0.1035 -1.43565,0.29871 -1.9375,0.5625 -0.25093,0.13189 -0.43847,0.27116 -0.59375,0.4375 -0.3724,0.38335 -0.27764,0.79696 -0.25005,1.03125 0.0276,0.23429 0.0697,0.42652 0.13154,0.60683 0.36513,1.15221 1.16997,1.33499 2.41988,1.76433 0.51854,0.19016 0.73374,0.3739 0.82343,0.53474 -0.17137,-0.0192 -0.35909,-0.0307 -0.5625,-0.0312 -0.23722,-5.9e-4 -0.26337,-0.003 -0.75,0.0312 -0.48663,0.0344 -1.32555,0.17176 -1.84375,0.5625 -0.5182,0.39074 -0.14999,0.7324 0.0625,0.8125 0.21249,0.0801 1.3537,0.17617 1.90625,0.12505 0.55255,-0.0511 1.01301,-0.16308 1.375,-0.3125 0.181,-0.0747 0.31831,-0.15125 0.4375,-0.25 0.11919,-0.0987 0.22753,-0.28896 0.21875,-0.4375 -0.0235,-0.20138 -0.046,-0.22538 -0.18715,-0.46695 -0.53519,-0.74338 -1.49742,-1.01771 -2.21875,-1.2812 -0.72133,-0.26349 -1.3115,-0.93271 -1.24975,-1.406 0.11024,0.046 0.24559,0.0932 0.375,0.125 0.51765,0.12723 1.19312,0.16608 1.9375,0.0625 0.74717,-0.10046 1.4039,-0.32878 1.90625,-0.59375 0.25118,-0.13248 0.46988,-0.27104 0.625,-0.4375 0.15512,-0.16646 0.31957,0.383 0.25,-0.59375 -0.0696,-0.97675 -1.753,-1.63446 -2.6249,-1.87465 -0.8719,-0.24019 -2.27683,-0.65962 -2.40625,-1.0309 0.0701,0.0231 0.14063,0.045 0.21875,0.0625 0.58395,0.13108 1.35098,0.11088 2.1875,-0.0312 0.83843,-0.14175 1.60103,-0.39614 2.15625,-0.71875 0.27761,-0.16131 0.52075,-0.33698 0.6875,-0.53125 0.16675,-0.19427 0.39968,0.27012 0.25,-0.65625 -0.14968,-0.92637 -1.93584,-1.59389 -3.25035,-1.8446 -1.31451,-0.25071 -1.47274,-0.39405 -1.96875,-0.7811 0.42244,0.20199 0.95723,0.3608 1.53125,0.46875 1.324,0.26363 2.94466,0.17589 3.25,-0.65625 0.30534,-0.83214 -0.0464,-0.77188 -0.2811,-1.12495 -0.23466,-0.35307 -0.58624,-0.58688 -0.9375,-0.8125 -0.91533,-0.45648 -1.83516,-0.65986 -2.85109,-0.9804 -0.44094,-0.13835 -0.63124,-0.29349 -0.86766,-0.4567 0.3835,0.13988 0.84661,0.23604 1.375,0.28125 0.63861,0.054 1.21874,0.0236 1.6875,-0.0937 0.23438,-0.0587 0.46084,-0.14618 0.625,-0.25 0.16416,-0.10382 0.30115,-0.24627 0.34375,-0.4375 0.0452,-0.47768 -0.0913,-0.60313 -0.4687,-0.96875 -0.37738,-0.36562 -0.78556,-0.58977 -1.28125,-0.78115 -0.49569,-0.19138 -1.07662,-0.26761 -1.48047,-0.42173 -0.40384,-0.15411 -0.68235,-0.33783 -0.86343,-0.48547 0.2312,0.0781 0.48176,0.13023 0.78125,0.15625 0.43661,0.0395 0.86048,-0.008 1.1875,-0.0937 0.16351,-0.0428 0.28606,-0.10765 0.40625,-0.1875 0.12019,-0.0799 0.25052,-0.18609 0.28125,-0.34375 0.0335,-0.15645 -0.0326,-0.2989 -0.125,-0.40625 -0.0924,-0.10735 -0.23094,-0.17925 -0.375,-0.25 -0.28811,-0.1415 -0.65534,-0.2459 -1.09375,-0.28125 -0.21884,-0.019 -0.42363,-0.01 -0.625,0 z m 0.0312,0.4375 c 0.17642,-0.0115 0.36647,-0.017 0.5625,0 0.39135,0.0315 0.72276,0.14453 0.9375,0.25 0.10737,0.0527 0.18651,0.0876 0.21875,0.125 0.0322,0.0374 -0.001,0.0374 0,0.0312 10e-4,-0.006 -0.003,0.0232 -0.0625,0.0625 -0.0591,0.0393 -0.15163,0.091 -0.28125,0.125 -0.25923,0.0679 -0.61033,0.0977 -1,0.0625 -0.39249,-0.0341 -0.75416,-0.11391 -0.96875,-0.21875 -0.10729,-0.0524 -0.18607,-0.11847 -0.21875,-0.15625 -0.0327,-0.0378 5.1e-4,-0.034 0,-0.0312 -0.001,0.006 0.003,-0.0235 0.0625,-0.0625 0.0593,-0.039 0.15172,-0.0914 0.28125,-0.125 0.12953,-0.0337 0.29233,-0.051 0.46875,-0.0625 z m 0.4375,2.8125 c 0.25766,-0.0246 0.54484,-0.0239 0.84375,0 0.59597,0.0503 1.12935,0.18363 1.46875,0.34375 0.1697,0.0801 0.28082,0.18005 0.34375,0.25 0.0629,0.07 0.0679,0.0984 0.0625,0.125 -0.006,0.0251 -0.021,0.0905 -0.125,0.15625 -0.10399,0.0658 -0.26696,0.1057 -0.46875,0.15625 -0.40357,0.10109 -0.96821,0.14406 -1.5625,0.0937 -0.59821,-0.0512 -1.12945,-0.15341 -1.46875,-0.3125 -0.16965,-0.0795 -0.2816,-0.18078 -0.34375,-0.25 -0.031,-0.0346 -0.0227,-0.0433 -0.0312,-0.0625 -0.003,-0.008 10e-4,-0.0249 0,-0.0312 -0.002,-0.009 -0.033,-0.023 -0.0312,-0.0312 0.005,-0.0244 0.0531,-0.0908 0.15625,-0.15625 0.10319,-0.0654 0.26708,-0.10564 0.46875,-0.15625 0.20168,-0.0506 0.42984,-0.10043 0.6875,-0.125 z m 0.40625,3.1875 c 0.32376,0.009 0.67219,0.0562 1.03125,0.125 0.71945,0.13892 1.35312,0.37009 1.75,0.625 0.19844,0.12746 0.33211,0.26464 0.40625,0.375 0.0741,0.11036 0.0826,0.18243 0.0625,0.25 -0.0188,0.0646 -0.0797,0.14071 -0.21875,0.21875 -0.13906,0.078 -0.3415,0.14438 -0.59375,0.1875 -0.5045,0.0863 -1.189,0.0771 -1.90625,-0.0625 -0.71776,-0.13497 -1.35329,-0.36914 -1.75,-0.625 -0.19836,-0.12793 -0.33164,-0.26392 -0.40625,-0.375 -0.0219,-0.0326 -0.0199,-0.067 -0.0312,-0.0937 l 0.0312,-0.25 c 0.0349,-0.0368 0.0867,-0.0861 0.15625,-0.125 0.13902,-0.0779 0.34161,-0.14462 0.59375,-0.1875 0.25214,-0.0429 0.55124,-0.0716 0.875,-0.0625 z m 2.03125,3.78125 c 0.33859,0.003 0.65562,0.038 0.90625,0.0937 0.25064,0.0557 0.44451,0.13201 0.5625,0.21875 0.0221,0.0163 0.0441,0.0154 0.0625,0.0312 0.006,0.005 -0.006,0.026 0,0.0312 -0.0652,0.097 0.0503,0.0754 0.0625,0.0937 0.0207,0.0329 0.0609,0.0605 0.0625,0.0937 0.004,0.086 -0.0369,0.20473 -0.15625,0.34375 -0.11933,0.13902 -0.3162,0.29438 -0.5625,0.4375 -0.4926,0.28623 -1.20934,0.52257 -2,0.65625 -0.7891,0.13411 -1.49919,0.14372 -2,0.0312 -0.2504,-0.0562 -0.44476,-0.16295 -0.5625,-0.25 -0.11774,-0.087 -0.15254,-0.16645 -0.15625,-0.25 -0.004,-0.0867 0.0375,-0.17401 0.15625,-0.3125 0.11876,-0.13849 0.28515,-0.29521 0.53125,-0.4375 0.49221,-0.28459 1.21008,-0.5555 2,-0.6875 0.39499,-0.0679 0.75516,-0.0968 1.09375,-0.0937 z m -0.21875,4.84375 c 0.29552,0.006 0.5627,0.0399 0.78125,0.0937 0.21854,0.0538 0.40197,0.14421 0.5,0.21875 0.098,0.0745 0.12389,0.12836 0.125,0.1875 10e-4,0.0599 -0.0514,0.13751 -0.15625,0.25 -0.10483,0.11249 -0.24923,0.22796 -0.46875,0.34375 -0.43905,0.23158 -1.08092,0.43708 -1.78125,0.53125 -0.69791,0.0971 -1.39706,0.0572 -1.78125,-0.0312 -0.38419,-0.0884 -0.4559,-0.28799 -0.59365,-0.375 -10e-4,-0.0618 0.0202,-0.16901 0.125,-0.28125 0.10477,-0.11224 0.28066,-0.22846 0.5,-0.34375 0.43869,-0.23059 1.08104,-0.43405 1.78125,-0.53125 0.34938,-0.0484 0.67323,-0.0689 0.96875,-0.0625 z m -1,4.96875 c 0.21804,10e-4 0.40473,0.006 0.5625,0.0312 0.15777,0.0254 0.28061,0.0602 0.34375,0.0937 -0.006,0.005 0.008,0.0247 0,0.0312 -0.063,0.0522 -0.18981,0.12396 -0.34375,0.1875 -0.30788,0.12709 -0.74806,0.25118 -1.25,0.3125 -0.50368,0.0618 -0.96558,0.0505 -1.28125,0 -0.15783,-0.0252 -0.28023,-0.06 -0.34375,-0.0937 0.005,-0.007 -0.0316,-0.005 0,-0.0312 0.0633,-0.0523 0.18966,-0.12394 0.34375,-0.1875 0.30817,-0.12712 0.74614,-0.2503 1.25,-0.3125 0.25131,-0.0306 0.50071,-0.0326 0.71875,-0.0312 z"
           transform="translate(0,-0.0014209)"
           id="path544"
           inkscape:connector-curvature="0"
           sodipodi:nodetypes="ssccczzzsccscsczzcccssczzcccszczccccczcccczzzzcccczccccszzccccszzcczzccccssczzzcccccsccssscccccccccccssccccccccccccccsscccccccssccccsscccccccccccccscssccccsccscczcsccccccccccsccccc" />
        <polygon
           transform="matrix(0.86884984,0,0,0.86884984,-228.67412,-240.7165)"
           id="polygon8193"
           points="574.433,741.094 571.459,742.83 573.167,739.8 571.438,736.758 574.423,738.518 577.401,736.779 575.697,739.811 577.427,742.853 "
           clip-rule="evenodd"
           style="fill:#db0e15;fill-rule:evenodd;stroke:none" />
        <path
           inkscape:connector-curvature="0"
           style="fill:#ffe900;fill-rule:evenodd;stroke:none"
           d="m 270.4375,398.34233 -0.78125,2.90625 -2.875,0.8125 2.875,0.8125 0.75,2.90625 0.78125,-2.90625 2.875,-0.8125 -2.875,-0.8125 -0.75,-2.90625 z"
           id="polygon582" />
        <path
           style="font-size:medium;font-style:normal;font-variant:normal;font-weight:normal;font-stretch:normal;text-indent:0;text-align:start;text-decoration:none;line-height:normal;letter-spacing:normal;word-spacing:normal;text-transform:none;direction:ltr;block-progression:tb;writing-mode:lr-tb;text-anchor:start;baseline-shift:baseline;color:#000000;fill:#000000;fill-opacity:1;fill-rule:evenodd;stroke:none;stroke-width:0.44999999;marker:none;visibility:visible;display:inline;overflow:visible;enable-background:accumulate;font-family:Sans;-inkscape-font-specification:Sans"
           d="m 279.125,379.71875 c -15.65855,0.01 -28.45306,13.05906 -28.46875,29 -0.0122,15.92346 12.76539,28.90648 28.40625,28.90625 l 0.0312,0 c 1.30431,0.0808 4.01651,-0.20538 5.4375,-0.5 0.13282,-0.004 0.24816,-0.062 0.375,-0.0937 0.96034,-0.20699 1.79344,-0.43891 2.625,-0.71875 0.36895,-0.11751 0.73133,-0.24273 1.09375,-0.375 0.0727,-0.0285 0.14518,-0.0641 0.21875,-0.0937 5.65775,-2.11958 10.48139,-6.0244 13.8125,-11.03125 0.0994,-0.1601 0.18056,-0.30106 0.2811,-0.4687 2.89136,-4.52866 4.58868,-9.91057 4.59375,-15.6875 0.006,-6.47462 -2.10361,-12.45159 -5.65625,-17.28125 -0.009,-0.0118 -0.0226,-0.0195 -0.0312,-0.0312 -2.51596,-3.40955 -6.38969,-6.72582 -9.46875,-8.25 -3.07906,-1.52418 -5.89561,-2.50679 -7.5,-2.78125 -1.60439,-0.27446 -4.25141,-0.63257 -5.71875,-0.59375 z m -0.34375,0.5625 -2.09375,2.75 -2.59375,-2.3125 c 1.52016,-0.27664 3.09511,-0.42045 4.6875,-0.4375 z m 0.5625,0 c 1.7168,0.0159 3.39943,0.18356 5.03125,0.5 l -0.93745,4.84375 0.1875,0.0625 c 1.59116,0.30195 3.46843,0.86252 4.125,1.125 0.65657,0.26248 -0.13865,-0.0475 0.28115,0.1249 0.98961,0.4012 2.26118,1.20074 2.78125,1.5312 0.52007,0.33046 0.77492,0.54307 1.1562,0.8125 l 2.74995,-4.1874 c 0.72337,0.5246 1.4018,1.05202 2.0625,1.59375 0.6607,0.54173 1.36437,1.18243 2,1.8125 1.27126,1.26013 2.42045,2.62828 3.34375,4.0625 l -4.125,2.8125 0.125,0.15625 c 0.8305,1.19493 1.70224,2.92815 2.0625,3.8125 0.36026,0.88435 0.18235,0.51769 0.46885,1.3125 0.2865,0.79481 0.71185,2.2946 0.9686,3.4374 l 4.84365,-1 c 0.71462,3.12236 0.63352,7.56821 0.125,10.6875 l -4.875,-1.0312 c -0.60159,2.84314 -2.04757,6.36408 -3.5624,8.7812 l 4.21875,2.9374 c -2.09964,3.21106 -4.51295,5.30307 -7.46875,7.625 l -2.75,-4.25 c -2.72319,1.90802 -5.84573,3.11241 -8.71865,3.6874 l 0.99995,5.1875 c -1.31408,0.27186 -3.85326,0.51691 -5.125,0.46875 7.2e-4,-0.0104 7.2e-4,-0.0208 0,-0.0312 l 0,-7.8125 c 2.29586,-0.11689 4.40808,-0.51453 6.3125,-1.15625 l 0.15625,-0.0625 0,-0.0625 c 8.76659,-3.03116 13.27408,-11.11109 13.34375,-19.21875 0.0428,-4.98002 -1.58427,-9.95497 -4.90625,-13.78125 -2.86151,-3.29591 -7.42886,-5.94923 -12.375,-6.53125 -4.94614,-0.58202 -1.69719,-0.20888 -2.5,-0.28125 z m -0.4375,0.5625 0,7.15625 -3.75,-2.1875 1.75,-2.34375 0.0312,-0.0312 c 7.2e-4,-0.0104 7.2e-4,-0.0208 0,-0.0312 z m -5.59375,0.0312 c 0.0201,-0.004 0.0424,0.004 0.0625,0 l -1.53125,3 -2.875,-1.65625 c 1.40653,-0.5524 2.8402,-1.02489 4.34375,-1.34375 z m 11.4375,0 c 1.68763,0.26527 3.40764,0.91144 4.84375,1.5 L 287.875,386.5 c -1.19821,-0.47981 -2.48734,-0.85941 -4,-1.15625 z m -10.71875,0.375 2.375,2.125 -1.5625,2.09375 z m -0.4375,0.15625 0.78125,3.9375 -2.09375,-1.25 z m -5.21875,1.03125 -0.9375,3.53125 -3.46875,-1.1875 c 1.39204,-0.90202 2.86374,-1.69707 4.40625,-2.34375 z m 21.5625,0.0625 c 1.55778,0.66398 3.03602,1.44993 4.4375,2.375 l -2.5312,3.8437 c -1.25949,-0.90364 -2.31815,-1.48306 -3.59375,-2.0936 z m -20.8125,0.3125 9.375,5.46875 c -0.44707,0.0134 -0.90073,0.0183 -1.34375,0.0625 0.0151,-0.001 -0.0179,-0.007 -0.0937,0 -0.60686,0.0633 -1.1688,0.16653 -1.75,0.28125 -1.18021,0.23295 -2.33745,0.5678 -3.4375,1 z m -0.4375,0.21875 2.6875,6.59375 -2,-0.25 -2.3125,-0.3125 z m -5.28125,2.125 -0.21875,3.40625 -3.4375,-0.46875 c 1.13214,-1.08274 2.36078,-2.05402 3.65625,-2.9375 z m 0.8125,0.15625 3.09375,1.125 -0.71875,2.53125 z m -0.40625,0.25 2.1875,3.375 -2.40625,-0.3125 z m -4.53125,3 0.4375,3.59375 -3.6875,0.28125 c 0.96891,-1.38965 2.05852,-2.68207 3.25,-3.875 z m 0.78125,0.0312 11,1.4375 c -0.12052,0.0542 -0.22452,0.13092 -0.34375,0.1875 -0.017,0.008 -0.0455,-0.008 -0.0625,0 -0.0104,-7.2e-4 -0.0208,-7.2e-4 -0.0312,0 -0.0104,-7.2e-4 -0.0208,-7.2e-4 -0.0312,0 -0.0104,-7.2e-4 -0.0208,-7.2e-4 -0.0312,0 -0.3081,0.14818 -0.64956,0.32991 -0.96875,0.5 -0.0164,0.009 -0.0462,-0.009 -0.0625,0 -7.2e-4,0.0104 -7.2e-4,0.0208 0,0.0312 -0.008,0.004 -0.0231,-0.005 -0.0312,0 -0.0114,0.009 -0.022,0.0199 -0.0312,0.0312 -0.0128,0.007 -0.0186,0.0242 -0.0312,0.0312 -0.43219,0.24353 -0.84336,0.48162 -1.25,0.75 -0.0246,0.0165 -0.046,0.0379 -0.0625,0.0625 -7.2e-4,0.0104 -7.2e-4,0.0208 0,0.0312 -0.0114,0.009 -0.022,0.0199 -0.0312,0.0312 -0.98869,0.66739 -1.92331,1.42318 -2.78125,2.25 z m 18.875,0.0937 -0.0312,40.1875 c -2.40891,-0.0217 -4.68131,-0.51485 -6.8125,-1.34375 -0.009,-0.004 -0.0222,0.004 -0.0312,0 -0.009,-0.0114 -0.0199,-0.022 -0.0312,-0.0312 -0.009,-0.004 -0.0218,0.004 -0.0312,0 -0.14817,-0.0562 -0.29784,-0.10334 -0.4375,-0.15625 -0.009,-0.003 -0.0226,0.003 -0.0312,0 7.2e-4,-0.0104 7.2e-4,-0.0208 0,-0.0312 -0.009,-0.003 -0.0227,0.004 -0.0312,0 7.2e-4,-0.0104 7.2e-4,-0.0208 0,-0.0312 -0.0104,-7.2e-4 -0.0208,-7.2e-4 -0.0312,0 -0.009,-0.004 -0.0224,0.004 -0.0312,0 -0.12555,-0.0537 -0.25265,-0.1015 -0.375,-0.15625 -0.009,-0.004 -0.0227,0.004 -0.0312,0 7.2e-4,-0.0104 7.2e-4,-0.0208 0,-0.0312 -0.009,-0.004 -0.0227,0.004 -0.0312,0 -0.009,-0.0114 -0.0199,-0.022 -0.0312,-0.0312 -0.008,-0.004 -0.0229,0.004 -0.0312,0 -2.20906,-1.02364 -4.19333,-2.44871 -5.875,-4.1875 -0.005,-0.005 -0.026,0.005 -0.0312,0 7.2e-4,-0.0104 7.2e-4,-0.0208 0,-0.0312 -0.0101,-0.0105 -0.0211,-0.0208 -0.0312,-0.0312 -0.009,-0.0114 -0.0199,-0.022 -0.0312,-0.0312 -0.005,-0.005 -0.0265,0.005 -0.0312,0 7.2e-4,-0.0104 7.2e-4,-0.0208 0,-0.0312 -0.36368,-0.37937 -0.69753,-0.78188 -1.03125,-1.1875 -0.0226,-0.0279 -0.0525,-0.0731 -0.0937,-0.125 0.0428,0.0535 0.0337,0.0562 -0.0312,-0.0312 7.2e-4,-0.0104 7.2e-4,-0.0208 0,-0.0312 -0.0914,-0.11531 -0.18428,-0.21536 -0.28125,-0.34375 -0.44449,-0.5885 -0.86923,-1.23448 -1.25,-1.875 -0.12714,-0.20882 -0.26996,-0.40718 -0.375,-0.59375 -0.0601,-0.1094 -0.11772,-0.2102 -0.1875,-0.34375 -0.28382,-0.53007 -0.51974,-1.07071 -0.75,-1.625 -0.004,-0.0102 -0.0279,0.008 -0.0312,0 7.2e-4,-0.0104 7.2e-4,-0.0208 0,-0.0312 7.2e-4,-0.0104 7.2e-4,-0.0208 0,-0.0312 -0.004,-0.009 -0.0279,-0.0217 -0.0312,-0.0312 7.2e-4,-0.0104 7.2e-4,-0.0208 0,-0.0312 -0.0246,-0.0777 -0.0566,-0.17031 -0.0937,-0.28125 7.2e-4,-0.0104 7.2e-4,-0.0208 0,-0.0312 7.2e-4,-0.0104 7.2e-4,-0.0208 0,-0.0312 7.2e-4,-0.0104 7.2e-4,-0.0208 0,-0.0312 -0.001,-0.003 -0.0303,0.003 -0.0312,0 7.2e-4,-0.0104 7.2e-4,-0.0208 0,-0.0312 -0.0322,-0.094 -0.0519,-0.19764 -0.0937,-0.3125 -0.009,-0.0114 -0.0199,-0.022 -0.0312,-0.0312 7.2e-4,-0.0104 7.2e-4,-0.0208 0,-0.0312 -10e-4,-0.003 -0.0303,0.003 -0.0312,0 -0.37997,-1.06114 -0.67453,-2.176 -0.875,-3.3125 -0.0241,-0.12902 -0.0364,-0.27884 -0.0625,-0.4375 -0.15937,-1.03341 -0.28208,-2.08798 -0.28125,-3.15625 7e-5,-0.0765 -7e-5,-0.14721 0,-0.21875 7.2e-4,-0.0104 7.2e-4,-0.0208 0,-0.0312 7.2e-4,-0.0104 7.2e-4,-0.0208 0,-0.0312 7.2e-4,-0.0104 7.2e-4,-0.0208 0,-0.0312 7.2e-4,-0.0104 7.2e-4,-0.0208 0,-0.0312 7.2e-4,-0.0104 7.2e-4,-0.0208 0,-0.0312 0.004,-0.1862 0.0224,-0.37764 0.0312,-0.5625 5e-4,-0.0102 -5.1e-4,-0.0211 0,-0.0312 7.2e-4,-0.0104 7.2e-4,-0.0208 0,-0.0312 7.2e-4,-0.0104 7.2e-4,-0.0208 0,-0.0312 0.0363,-0.69468 0.11214,-1.35587 0.21875,-2.03125 7.2e-4,-0.0104 7.2e-4,-0.0208 0,-0.0312 7.2e-4,-0.0104 7.2e-4,-0.0208 0,-0.0312 7.2e-4,-0.0104 7.2e-4,-0.0208 0,-0.0312 7.2e-4,-0.0104 7.2e-4,-0.0208 0,-0.0312 0.0426,-0.25434 0.10419,-0.49896 0.15625,-0.75 0.002,-0.01 -0.002,-0.0213 0,-0.0312 7.2e-4,-0.0104 7.2e-4,-0.0208 0,-0.0312 0.005,-0.022 0.0265,-0.0405 0.0312,-0.0625 0.0715,-0.34217 0.16019,-0.65921 0.25,-1 7.2e-4,-0.0104 7.2e-4,-0.0208 0,-0.0312 7.2e-4,-0.0104 7.2e-4,-0.0208 0,-0.0312 0.2666,-0.98579 0.60484,-1.95249 1,-2.875 0.0307,-0.075 0.0555,-0.16519 0.0937,-0.25 0.0114,-0.009 0.022,-0.0199 0.0312,-0.0312 7.2e-4,-0.0104 7.2e-4,-0.0208 0,-0.0312 0.48417,-1.08094 1.06051,-2.09208 1.71875,-3.0625 0.014,-0.0206 0.0487,-0.0526 0.0937,-0.125 7.2e-4,-0.0104 7.2e-4,-0.0208 0,-0.0312 0.008,-0.0122 0.0229,-0.0192 0.0312,-0.0312 7.2e-4,-0.0104 7.2e-4,-0.0208 0,-0.0312 0.67256,-0.96591 1.42485,-1.85889 2.25,-2.6875 0.0155,-0.0155 0.047,-0.0159 0.0625,-0.0312 0.0104,7.2e-4 0.0208,7.2e-4 0.0312,0 0.0114,-0.009 0.022,-0.0199 0.0312,-0.0312 0.91356,-0.90402 1.89911,-1.75224 2.96875,-2.46875 0.0104,7.2e-4 0.0208,7.2e-4 0.0312,0 0.012,-0.008 0.0193,-0.0233 0.0312,-0.0312 0.4185,-0.27826 0.84192,-0.53557 1.28125,-0.78125 0.0204,-0.0114 0.0421,-0.0199 0.0625,-0.0312 0.0943,-0.0523 0.18601,-0.10551 0.28125,-0.15625 0.24505,-0.13056 0.49913,-0.22379 0.75,-0.34375 0.0126,-0.006 0.0186,-0.0254 0.0312,-0.0312 0.32357,-0.15385 0.6673,-0.30197 1,-0.4375 7.2e-4,-0.0104 7.2e-4,-0.0208 0,-0.0312 0.0127,-0.005 0.0188,-0.0247 0.0312,-0.0312 0.0104,7.2e-4 0.0208,7.2e-4 0.0312,0 0.0104,7.2e-4 0.0208,7.2e-4 0.0312,0 1.10662,-0.44359 2.24102,-0.79509 3.4375,-1.03125 0.57688,-0.11386 1.1656,-0.22029 1.75,-0.28125 -0.0151,0.001 0.0179,0.007 0.0937,0 0.57097,-0.0569 1.13658,-0.0881 1.71875,-0.0937 z m 0.4375,0 0.46875,0.0312 0.0312,0 c 0.99532,0.0752 1.95721,0.1954 2.875,0.375 0.01,0.002 0.0213,-0.002 0.0312,0 0.90678,0.17868 1.76942,0.42152 2.59375,0.6875 l 0,19 -0.0312,19 c -1.81104,0.59535 -3.81958,0.97794 -6,1.09375 z m -19.625,0.25 5.1875,5.28125 c -0.8491,0.8567 -1.62218,1.78274 -2.3125,2.78125 -7.2e-4,0.0104 -7.2e-4,0.0208 0,0.0312 -0.0114,0.009 -0.022,0.0199 -0.0312,0.0312 -7.2e-4,0.0104 -7.2e-4,0.0208 0,0.0312 -0.0161,0.0199 -0.0375,0.0256 -0.0625,0.0625 -0.54368,0.80153 -1.00728,1.65606 -1.4375,2.53125 z m 26.09375,0.96875 c 0.64163,0.22323 1.2496,0.47603 1.84375,0.75 l 0,36.28125 c -0.60048,0.28476 -1.22558,0.55131 -1.875,0.78125 z m 2.34375,1 c 0.62384,0.30891 1.21281,0.63804 1.78125,1 l -0.0312,33.75 c -0.56282,0.36811 -1.1645,0.71735 -1.78125,1.03125 z m 2.28125,1.3125 c 0.6453,0.4399 1.24409,0.8997 1.8125,1.40625 l 0,30.1875 c -0.57939,0.52909 -1.18629,1.03862 -1.84375,1.5 z m -30.6875,0.375 0.3125,2.65625 -3.53125,-2.40625 z m -4.03125,0.25 1.15625,3.46875 -3.625,1 c 0.68996,-1.57129 1.52221,-3.0604 2.46875,-4.46875 z m 46.65625,0 c 0.94548,1.41393 1.75154,2.92194 2.4375,4.5 L 300.5,399.1875 c -0.53634,-1.2731 -1.18095,-2.52545 -1.96875,-3.6875 z m -46.0625,0.375 3.375,2.3125 -2.375,0.65625 z m 38.39362,3.7296 c -1.13621,2.8238 -1.42633,4.80377 -1.26862,6.36415 0.16589,1.64133 0.81623,2.83801 1.375,4.1875 0.55877,1.34949 1.04063,2.84721 0.96875,5.15625 -0.0671,2.15579 -0.63245,5.0312 -2.13593,9.08528 -0.10992,0.29639 -0.18404,0.6027 -0.27032,0.91467 -0.21122,0.22878 -0.4326,0.46811 -0.65625,0.6875 l 0.0312,-29.24995 c 0.40403,0.3882 0.79381,0.80129 1.15625,1.21875 0.3385,0.38988 0.66659,0.80523 0.96875,1.21875 -0.0631,0.136 -0.11516,0.28443 -0.16888,0.4171 z m -34.54987,-1.07335 0.5625,4.4375 0,0.0312 c -0.019,0.0419 -0.0429,0.0815 -0.0625,0.125 l -6.75,-2.875 z m 35.28125,1.5 c 2.20752,3.39656 3.28474,7.42618 3.25,11.46875 -0.0374,4.3468 -1.37159,8.66141 -3.96875,12.1875 -0.0171,0.0232 -0.0453,0.0394 -0.0625,0.0625 -0.18874,0.20554 -0.35647,0.42155 -0.5625,0.625 1.41909,-3.92084 2.05762,-6.86697 2.125,-9.03125 0.0741,-2.37974 -0.43143,-3.97059 -1,-5.34375 -0.56857,-1.37316 -1.18729,-2.54572 -1.34375,-4.09375 -0.14873,-1.47159 0.18334,-3.43466 1.30101,-6.21158 m -42.11351,0.74283 c 0.0104,7.2e-4 0.0208,7.2e-4 0.0312,0 l 1.75,3.15625 -3.3125,1.65625 c 0.37107,-1.6619 0.88679,-3.27253 1.53125,-4.8125 z m 51.78125,0 c 0.71989,1.74525 1.06815,3.01373 1.5,4.90625 l -4.4375,0.9375 c -0.32331,-1.42265 -0.77671,-2.72862 -1.25,-4.0625 z m -51.0625,0.28125 6.46875,2.75 -3.4375,2.6875 z m 1.28125,3.28125 1.28125,2.25 -4.09375,-0.84375 z m 5.28125,0.0312 c -0.25686,0.66724 -0.4651,1.36465 -0.65625,2.0625 -0.006,0.0221 -0.0254,0.0404 -0.0312,0.0625 -0.0114,0.009 -0.022,0.0199 -0.0312,0.0312 -0.0114,0.009 -0.022,0.0199 -0.0312,0.0312 -7.2e-4,0.0104 -7.2e-4,0.0208 0,0.0312 -0.0882,0.34339 -0.17704,0.7013 -0.25,1.0625 -7.2e-4,0.0104 -7.2e-4,0.0208 0,0.0312 -7.2e-4,0.0104 -7.2e-4,0.0208 0,0.0312 -7.2e-4,0.0104 -7.2e-4,0.0208 0,0.0312 -0.0506,0.24761 -0.0834,0.49921 -0.125,0.75 -0.002,0.0102 0.002,0.0211 0,0.0312 -0.0114,0.009 -0.022,0.0199 -0.0312,0.0312 -7.2e-4,0.0104 -7.2e-4,0.0208 0,0.0312 -0.0136,0.0191 -0.0242,0.0402 -0.0312,0.0625 -0.0412,0.26108 -0.063,0.51832 -0.0937,0.78125 -0.01,0.0842 -0.0224,0.16551 -0.0312,0.25 -0.0364,0.34834 -0.0752,0.7068 -0.0937,1.0625 -7.2e-4,0.0104 -7.2e-4,0.0208 0,0.0312 -7.2e-4,0.0104 -7.2e-4,0.0208 0,0.0312 0.009,0.0114 0.0199,0.022 0.0312,0.0312 -7.2e-4,0.0104 -7.2e-4,0.0208 0,0.0312 -7.2e-4,0.0104 -7.2e-4,0.0208 0,0.0312 -0.005,0.11509 -0.0281,0.22813 -0.0312,0.34375 l -7.375,-0.0312 z m -8.90625,1.65625 2.40625,2.84375 -2.96875,2.34375 -0.0312,0 c 0.0397,-1.77695 0.24508,-3.50281 0.59375,-5.1875 z m 0.8125,0.1875 3.9375,0.8125 -1.96875,1.53125 z m -1.40625,5.4375 c 0.0104,7.2e-4 0.0208,7.2e-4 0.0312,0 l 2.875,2.28125 -2.46875,2.90625 c -0.28544,-1.62501 -0.43882,-3.2932 -0.4375,-5 6e-5,-0.0625 -4.6e-4,-0.12506 0,-0.1875 z m 0.75,0 7.3125,0.0312 c 2e-4,0.031 3e-5,0.063 0,0.0937 -8.5e-4,1.10255 0.12006,2.17348 0.28125,3.21875 0.0219,0.13332 0.0324,0.27666 0.0625,0.4375 0.16889,0.95749 0.42446,1.87349 0.71875,2.78125 z m 2.53125,2.5625 2.125,1.65625 -4.25,0.875 z m 47.84375,2 4.48701,0.92248 c -0.33222,1.72691 -0.8112,3.39772 -1.4375,5 L 300.75,417.28105 c 0.53631,-1.31811 0.96233,-2.68271 1.25,-4.0625 z m -45.25,0.0312 3.46875,2.6875 0.0312,0.0312 c 0.007,0.0195 0.0263,0.0396 0.0312,0.0625 0.002,0.0102 -0.002,0.0213 0,0.0312 l -6.6875,2.84375 z m -0.5625,0.0937 -1.28125,2.25 -2.8125,-1.40625 z m -4.78125,1 3.28125,1.65625 -1.75,3.15625 -0.0625,0.0625 c -7.2e-4,0.0104 -7.2e-4,0.0208 0,0.0312 l -0.0312,0.0312 c -0.62122,-1.58648 -1.10577,-3.22718 -1.4375,-4.9375 z m 9,2.21875 c 0.0145,0.0416 0.0422,0.0716 0.0625,0.125 0.004,0.0115 -0.005,0.0195 0,0.0312 l -0.5625,4.3125 -6.125,-1.6875 z m 0.40625,0.84375 c 0.15879,0.33808 0.32262,0.66872 0.5,1 0.0594,0.11361 0.11356,0.27157 0.1875,0.40625 0.12272,0.21797 0.2611,0.40667 0.375,0.59375 0.38775,0.65228 0.79337,1.27042 1.25,1.875 0.0862,0.11407 0.18553,0.25281 0.28125,0.375 -0.0113,-0.0152 0.003,0.0326 0,0.0312 -0.008,-0.003 -0.0186,-4e-5 0.0312,0.0625 0.0233,0.0293 0.051,0.0723 0.0937,0.125 0.31499,0.38286 0.65959,0.73777 1,1.09375 l -5.09375,5.21875 z m 39.78125,0.25 4.3125,1.8125 c -0.7571,1.84441 -1.34933,3.03282 -2.3125,4.65625 l -3.90625,-2.71875 c 0.72793,-1.23298 1.33327,-2.50386 1.90625,-3.75 z m -47.625,1.96875 c 0.0104,7.2e-4 0.0208,7.2e-4 0.0312,0 0.0104,7.2e-4 0.0208,7.2e-4 0.0312,0 0.0104,7.2e-4 0.0208,7.2e-4 0.0312,0 l 0.0625,0 3.5,0.96875 -1.21875,3.6875 c -0.93857,-1.46393 -1.77412,-3.02454 -2.4375,-4.65625 z m 4.09375,1.09375 0.375,0.0937 2.15625,0.625 -3.5625,2.40625 z m 2.75,1.125 -0.34375,2.59375 -3.15625,-0.25 z m 5.03125,1.4375 c 1.54656,1.57925 3.36021,2.87413 5.34375,3.875 l -10.46875,1.375 z m -9.15625,1.3125 0.0312,0 3.6875,0.28125 -0.5,3.84375 c -1.2154,-1.25931 -2.34246,-2.62538 -3.3125,-4.09375 0.0104,7.2e-4 0.0208,7.2e-4 0.0312,0 0.0104,7.2e-4 0.0208,7.2e-4 0.0312,0 0.0114,-0.009 0.0222,-0.0199 0.0312,-0.0312 z m 15.09375,2.90625 0.0312,0 c 0.0868,0.0397 0.16385,0.0878 0.25,0.125 l -2.75,6.71875 -1.65625,-6.28125 z m 0.71875,0.3125 c 0.10724,0.0412 0.21124,0.0857 0.3125,0.125 l 0.0312,0 2.46875,3.28125 -5.53125,3.25 z m -5.59375,0.34375 -2.28125,3.5 -0.25,-3.15625 z m 6.65625,0 c 1.98527,0.69914 4.09491,1.10168 6.3125,1.125 l 0,7.21875 z m 19.46875,0.21875 2.56224,3.94311 c -1.42687,0.96967 -2.93798,1.83451 -4.53125,2.53125 l -1.71849,-4.41186 c 1.29299,-0.54726 2.49923,-1.22776 3.6875,-2.0625 z m -25.75,0.0625 0.65625,2.4375 -2.90625,1 z m -3.34375,0.125 0.28125,3.84375 c -1.44154,-0.99178 -2.76588,-2.10574 -4,-3.34375 z m 25.03125,2.0625 1.75,4.375 c -1.75596,0.77943 -3.07614,1.23531 -4.875,1.625 l -0.9375,-4.8125 c 1.43281,-0.31423 2.77964,-0.73536 4.0625,-1.1875 z m -20.90625,0.71875 0.96875,3.71875 c -1.57787,-0.67997 -3.08426,-1.52097 -4.5,-2.46875 0.0114,-0.009 0.022,-0.0199 0.0312,-0.0312 0.0114,-0.009 0.022,-0.0199 0.0312,-0.0312 0.0114,-0.009 0.022,-0.0199 0.0312,-0.0312 z m 7.3125,0.34375 -0.84375,4.25 -1.40625,-2.90625 z m 0.4375,0.15625 1.53125,2.0625 -2.375,2.125 z m -3.09375,1.40625 1.6875,3.5 c -1.71676,-0.35333 -3.37955,-0.87594 -4.96875,-1.53125 0.0114,-0.009 0.022,-0.0199 0.0312,-0.0312 l 0.0312,-0.0312 z m 4.90625,1 2.25,3 0,0.0625 c -1.7431,-0.008 -3.43753,-0.18285 -5.09375,-0.5 0.86893,-0.8768 1.90293,-1.72739 2.84375,-2.5625 z"
           transform="translate(0,-0.0014209)"
           id="path8133"
           inkscape:connector-curvature="0"
           sodipodi:nodetypes="ccccccccccccccsscccccccccczczcczsccczzccccccccccccccccsssccccccccccccccccccccccccccccccccccccccccsccccccccccccccccccccccccccccccccccccccccccccccccccccccccccccccccccccccccsccccccccccccccccccccccccccccccccccccccccccccccccccccccccccccccccccccccsccccccccccccccccccccccccccccccccccccccccccccccccccccccccsscscccccsccccccccccssscccccccccccccccccccccccccccccccccccccccccccccccccccccccccccccccccccccccccccccccccccccccccccccccccccccccccccccccccccccccccccccccccccccccccccccccccccccccccccccccccccccccccccccccccccccccccccccccccccccccccccccccccccccccccc" />
        <g
           id="g458"
           transform="matrix(0.86884984,0,0,0.86884984,-228.67412,-240.7165)">
          <path
             inkscape:connector-curvature="0"
             id="path460"
             style="fill:#ffe900"
             d="m 594.604,765.628 -0.527,1.324 h -0.676 l 1.722,-4.21 h 0.79 l 1.729,4.21 h -0.698 l -0.543,-1.324 h -1.797 z m 1.663,-0.424 -0.497,-1.213 c -0.114,-0.275 -0.189,-0.524 -0.264,-0.769 h -0.016 c -0.074,0.249 -0.157,0.506 -0.255,0.763 l -0.495,1.219 h 1.527 z m -2.482,-10.346 c 0.331,-0.059 0.804,-0.09 1.255,-0.09 0.699,0 1.151,0.107 1.466,0.344 0.256,0.188 0.398,0.477 0.398,0.801 0,0.555 -0.421,0.924 -0.955,1.074 v 0.021 c 0.391,0.109 0.624,0.41 0.744,0.848 0.166,0.588 0.287,0.993 0.393,1.157 h -0.678 c -0.082,-0.126 -0.195,-0.483 -0.338,-1.007 -0.151,-0.581 -0.421,-0.8 -1.015,-0.817 h -0.618 v 1.824 h -0.653 v -4.155 z m 0.653,1.917 h 0.671 c 0.697,0 1.142,-0.318 1.142,-0.799 0,-0.545 -0.474,-0.782 -1.165,-0.789 -0.316,0 -0.541,0.026 -0.648,0.051 v 1.537 z m 2.361,-7.793 h -1.97 v 1.518 h 2.195 v 0.456 h -2.85 v -4.21 h 2.737 v 0.456 h -2.083 v 1.329 h 1.97 v 0.451 z m -2.849,-10.677 c 0.285,-0.05 0.737,-0.089 1.195,-0.089 0.654,0 1.075,0.093 1.391,0.308 0.264,0.16 0.421,0.411 0.421,0.741 0,0.407 -0.322,0.763 -0.855,0.926 v 0.014 c 0.48,0.1 1.045,0.43 1.045,1.055 0,0.361 -0.173,0.637 -0.43,0.845 -0.354,0.269 -0.924,0.392 -1.751,0.392 -0.451,0 -0.797,-0.024 -1.015,-0.049 v -4.143 z m 0.654,1.722 h 0.594 c 0.692,0 1.099,-0.3 1.099,-0.705 0,-0.493 -0.452,-0.687 -1.113,-0.687 -0.301,0 -0.474,0.018 -0.58,0.037 v 1.355 z m 0,2.018 c 0.128,0.02 0.316,0.026 0.548,0.026 0.677,0 1.301,-0.207 1.301,-0.819 0,-0.575 -0.594,-0.813 -1.308,-0.813 h -0.542 v 1.606 z m 3.48,-9.743 c 0,1.447 -1.061,2.217 -2.351,2.217 -1.338,0 -2.279,-0.863 -2.279,-2.138 0,-1.336 1.001,-2.21 2.352,-2.21 1.384,0 2.278,0.88 2.278,2.131 z m -3.931,0.067 c 0,0.899 0.587,1.706 1.617,1.706 1.037,0 1.625,-0.793 1.625,-1.749 0,-0.838 -0.527,-1.712 -1.619,-1.712 -1.082,0 -1.623,0.831 -1.623,1.755 z" />
        </g>
        <path
           inkscape:connector-curvature="0"
           style="fill:#008a38;fill-rule:evenodd;stroke:none"
           d="m 294.03125,397.78125 c -0.17642,0.0115 -0.33922,0.0288 -0.46875,0.0625 -0.12953,0.0336 -0.22195,0.086 -0.28125,0.125 -0.0595,0.039 -0.0635,0.0685 -0.0625,0.0625 5.1e-4,-0.003 -0.0327,-0.007 0,0.0312 0.0327,0.0378 0.11146,0.10385 0.21875,0.15625 0.21459,0.10484 0.57626,0.18465 0.96875,0.21875 0.38967,0.0352 0.74077,0.005 1,-0.0625 0.12962,-0.034 0.22215,-0.0857 0.28125,-0.125 0.0595,-0.0393 0.0635,-0.0685 0.0625,-0.0625 -10e-4,0.006 0.0322,0.006 0,-0.0312 -0.0322,-0.0374 -0.11138,-0.0723 -0.21875,-0.125 -0.21474,-0.10547 -0.54615,-0.2185 -0.9375,-0.25 -0.19603,-0.017 -0.38608,-0.0115 -0.5625,0 z m 0.4375,2.8125 c -0.25766,0.0246 -0.48582,0.0744 -0.6875,0.125 -0.20167,0.0506 -0.36556,0.0908 -0.46875,0.15625 -0.10315,0.0654 -0.15125,0.13185 -0.15625,0.15625 -0.006,0.0276 4e-4,0.0558 0.0625,0.125 0.0621,0.0692 0.1741,0.1705 0.34375,0.25 0.3393,0.15909 0.87054,0.2613 1.46875,0.3125 0.59429,0.0503 1.15893,0.007 1.5625,-0.0937 0.20179,-0.0505 0.36476,-0.0904 0.46875,-0.15625 0.104,-0.0657 0.119,-0.13115 0.125,-0.15625 0.005,-0.0266 4e-4,-0.055 -0.0625,-0.125 -0.0629,-0.07 -0.17405,-0.1699 -0.34375,-0.25 -0.3394,-0.16012 -0.87278,-0.29345 -1.46875,-0.34375 -0.29891,-0.0239 -0.58609,-0.0246 -0.84375,0 z m 0.40625,3.1875 c -0.32376,-0.009 -0.62286,0.0196 -0.875,0.0625 -0.25214,0.0429 -0.45473,0.1096 -0.59375,0.1875 -0.13905,0.0779 -0.19955,0.15335 -0.21875,0.21875 -0.0195,0.0664 -0.0121,0.13892 0.0625,0.25 0.0746,0.11108 0.20789,0.24707 0.40625,0.375 0.39671,0.25586 1.03224,0.49003 1.75,0.625 0.71725,0.1396 1.40175,0.1488 1.90625,0.0625 0.25225,-0.0431 0.45469,-0.1095 0.59375,-0.1875 0.13905,-0.078 0.19995,-0.15415 0.21875,-0.21875 0.0201,-0.0676 0.0116,-0.13964 -0.0625,-0.25 -0.0741,-0.11036 -0.20781,-0.24754 -0.40625,-0.375 -0.39688,-0.25491 -1.03055,-0.48608 -1.75,-0.625 -0.35906,-0.0688 -0.70749,-0.11585 -1.03125,-0.125 z m 2.03125,3.78125 c -0.33859,-0.003 -0.69876,0.0258 -1.09375,0.0937 -0.78992,0.132 -1.50779,0.40291 -2,0.6875 -0.2461,0.14229 -0.41249,0.29901 -0.53125,0.4375 -0.11875,0.13849 -0.16025,0.2258 -0.15625,0.3125 0.004,0.0836 0.0385,0.163 0.15625,0.25 0.11774,0.087 0.3121,0.1938 0.5625,0.25 0.50081,0.11247 1.2109,0.10286 2,-0.0312 0.79066,-0.13368 1.5074,-0.37002 2,-0.65625 0.2463,-0.14312 0.44317,-0.29848 0.5625,-0.4375 0.11935,-0.13902 0.16025,-0.25775 0.15625,-0.34375 -0.004,-0.083 -0.0695,-0.1633 -0.1875,-0.25 -0.11799,-0.0867 -0.31186,-0.16305 -0.5625,-0.21875 -0.25063,-0.0557 -0.56766,-0.0907 -0.90625,-0.0937 z m -0.21875,4.84375 c -0.29552,-0.006 -0.61937,0.0141 -0.96875,0.0625 -0.70021,0.0972 -1.34256,0.30066 -1.78125,0.53125 -0.21934,0.11529 -0.39523,0.23151 -0.5,0.34375 -0.1048,0.11224 -0.126,0.21945 -0.125,0.28125 10e-4,0.0598 0.0271,0.113 0.125,0.1875 0.0979,0.0745 0.25036,0.1338 0.46875,0.1875 0.43679,0.1073 1.08334,0.12835 1.78125,0.0312 0.70033,-0.0942 1.3422,-0.29967 1.78125,-0.53125 0.21952,-0.11579 0.36392,-0.23126 0.46875,-0.34375 0.10485,-0.11249 0.15725,-0.1901 0.15625,-0.25 -10e-4,-0.0591 -0.027,-0.113 -0.125,-0.1875 -0.098,-0.0745 -0.28146,-0.16495 -0.5,-0.21875 -0.21855,-0.0538 -0.48573,-0.0873 -0.78125,-0.0937 z m -1,4.96875 c -0.21804,-10e-4 -0.46744,6e-4 -0.71875,0.0312 -0.50386,0.0622 -0.94183,0.18538 -1.25,0.3125 -0.15409,0.0636 -0.28045,0.1352 -0.34375,0.1875 -0.0316,0.0262 0.005,0.0242 0,0.0312 0.0635,0.0337 0.18592,0.0686 0.34375,0.0937 0.31567,0.0505 0.77757,0.0618 1.28125,0 0.50194,-0.0613 0.94212,-0.18541 1.25,-0.3125 0.15394,-0.0635 0.28075,-0.1353 0.34375,-0.1875 0.008,-0.007 -0.006,-0.0259 0,-0.0312 -0.0631,-0.0335 -0.18598,-0.0684 -0.34375,-0.0937 -0.15777,-0.0254 -0.34446,-0.0299 -0.5625,-0.0312 z"
           transform="translate(0,-0.0014209)"
           id="path528" />
        <path
           inkscape:connector-curvature="0"
           style="font-size:medium;font-style:normal;font-variant:normal;font-weight:normal;font-stretch:normal;text-indent:0;text-align:start;text-decoration:none;line-height:normal;letter-spacing:normal;word-spacing:normal;text-transform:none;direction:ltr;block-progression:tb;writing-mode:lr-tb;text-anchor:start;baseline-shift:baseline;color:#000000;fill:#000000;fill-opacity:1;fill-rule:evenodd;stroke:none;stroke-width:0.24169885;marker:none;visibility:visible;display:inline;overflow:visible;enable-background:accumulate;font-family:Sans;-inkscape-font-specification:Sans"
           d="m 270.4375,398.25 c -0.0398,-7.3e-4 -0.0746,0.0103 -0.0937,0.0625 l -0.5625,2.09375 -1.875,-1.0625 c -0.0453,-0.029 -0.0662,-0.0332 -0.0937,-0.0312 -0.0276,0.002 -0.0507,0.0129 -0.0625,0.0312 -0.0338,0.0529 -0.0229,0.14926 0,0.1875 l 1.0625,1.84375 -2.09375,0.59375 c -0.0705,0.0201 -0.0535,0.17222 0,0.1875 l 2.09375,0.59375 -1.0625,1.90625 c -0.0598,0.14975 0.0983,0.14973 0.15625,0.125 l 1.84375,-1.09375 0.5625,2.15625 c 0.0258,0.0989 0.1733,0.0523 0.1875,0 l 0.59375,-2.15625 1.875,1.125 c 0.13103,0.0532 0.19057,-0.0869 0.125,-0.1875 l -0.15625,-0.25 -0.90625,-1.625 2.0625,-0.59375 c 0.0898,-0.0259 0.0471,-0.17393 0,-0.1875 l -2.0625,-0.59375 1.03125,-1.84375 c 0.0927,-0.14544 -0.10648,-0.19241 -0.15625,-0.15625 l -1.8125,1.0625 -0.5625,-2.125 c -0.0168,-0.0533 -0.0539,-0.0618 -0.0937,-0.0625 z m 0.0937,0.8125 0.5625,2.1875 -0.5625,0.5625 0,-2.75 z m -0.1875,0.0312 0,2.71875 -0.59375,-0.59375 0.59375,-2.125 z m -1.84375,0.84375 1.21875,0.6875 -0.125,0.40625 -1.0937,-1.0937 z m 3.8125,0.0312 -1.0625,1.09375 -0.0937,-0.4375 1.15625,-0.65625 z m 0.25,0.0625 c 0,0 -0.39712,0.71131 -0.71875,1.28125 l -0.4375,-0.125 1.15625,-1.15625 z m -4.25,0.0312 1.125,1.125 -0.4375,0.125 -0.6875,-1.25 z m 1.3125,1.3125 0.5625,0.59375 -2.6875,0 2.125,-0.59375 z m 1.59375,0 2.125,0.59375 -2.6875,0 0.5625,-0.59375 z m -3.71875,0.78125 2.6875,0 -0.59375,0.59375 -2.09375,-0.59375 z m 3.15625,0 2.6875,0 -2.09375,0.59375 -0.59375,-0.59375 z m -0.1562,0.0939 0.59375,0.625 -0.59375,2.15625 0,-2.78125 z m -0.1875,0.0625 0,2.75 -0.5625,-2.15625 0.5625,-0.59375 z m -1.3125,0.5 0.40625,0.125 -1.0625,1.09375 L 269,402.8125 z m 2.84375,0 c 0.31226,0.5524 0.6875,1.25 0.6875,1.25 l -1.09375,-1.15625 0.40625,-0.0937 z m -0.5625,0.21875 1.1875,1.1875 -1.3125,-0.75 0.125,-0.4375 z m -1.6875,0.0312 0.0937,0.4375 -1.28125,0.75 1.1875,-1.1875 z"
           transform="translate(0,-0.0014209)"
           id="polygon8195" />
      </g>
    </g>
  </g>
</svg>
