<?xml version="1.0" encoding="UTF-8" standalone="no"?>
<!-- Created with Inkscape (http://www.inkscape.org/) -->

<svg
   xmlns:dc="http://purl.org/dc/elements/1.1/"
   xmlns:cc="http://creativecommons.org/ns#"
   xmlns:rdf="http://www.w3.org/1999/02/22-rdf-syntax-ns#"
   xmlns:svg="http://www.w3.org/2000/svg"
   xmlns="http://www.w3.org/2000/svg"
   xmlns:sodipodi="http://sodipodi.sourceforge.net/DTD/sodipodi-0.dtd"
   xmlns:inkscape="http://www.inkscape.org/namespaces/inkscape"
   width="210mm"
   height="297mm"
   id="svg4598"
   version="1.1"
   inkscape:version="0.48.4 r9939"
   sodipodi:docname="marca-subsecretaria-cultura-misiones.svg">
  <defs
     id="defs4600" />
  <sodipodi:namedview
     id="base"
     pagecolor="#ffffff"
     bordercolor="#666666"
     borderopacity="1.0"
     inkscape:pageopacity="0.0"
     inkscape:pageshadow="2"
     inkscape:zoom="0.35"
     inkscape:cx="350"
     inkscape:cy="520"
     inkscape:document-units="px"
     inkscape:current-layer="layer1"
     showgrid="false"
     inkscape:window-width="1366"
     inkscape:window-height="716"
     inkscape:window-x="-8"
     inkscape:window-y="-8"
     inkscape:window-maximized="1" />
  <metadata
     id="metadata4603">
    <rdf:RDF>
      <cc:Work
         rdf:about="">
        <dc:format>image/svg+xml</dc:format>
        <dc:type
           rdf:resource="http://purl.org/dc/dcmitype/StillImage" />
        <dc:title></dc:title>
      </cc:Work>
    </rdf:RDF>
  </metadata>
  <g
     inkscape:label="Capa 1"
     inkscape:groupmode="layer"
     id="layer1">
    <g
       id="g19628"
       transform="matrix(5.1831976,0,0,5.1831976,-1566.0965,-215.00652)">
      <path
         id="path774"
         d="m 425.11495,165.58996 0.62145,-0.0975 c 0.0348,0.24997 0.12847,0.44615 0.29048,0.58159 0.15568,0.13288 0.38224,0.1987 0.66639,0.1987 0.28795,0 0.50185,-0.0607 0.64172,-0.17782 0.14365,-0.12024 0.20883,-0.26137 0.20883,-0.41895 0,-0.14239 -0.0633,-0.25756 -0.18416,-0.34047 -0.0867,-0.0589 -0.30187,-0.13036 -0.64171,-0.21832 -0.46197,-0.11772 -0.77777,-0.22024 -0.9518,-0.30568 -0.18036,-0.0854 -0.31896,-0.20314 -0.40313,-0.35629 -0.0962,-0.15315 -0.14555,-0.32149 -0.14555,-0.50439 0,-0.16896 0.0417,-0.32211 0.11898,-0.46577 0.074,-0.14492 0.18035,-0.26326 0.30629,-0.36072 0.1,-0.0684 0.23099,-0.13481 0.40313,-0.18544 0.16454,-0.0487 0.34364,-0.0765 0.53791,-0.0765 0.29049,0 0.54236,0.0468 0.76259,0.1291 0.22466,0.0861 0.38287,0.20125 0.48729,0.34744 0.10255,0.14366 0.1753,0.33604 0.2139,0.58158 l -0.61195,0.0835 c -0.0272,-0.1905 -0.10885,-0.3449 -0.23986,-0.45439 -0.13353,-0.10508 -0.32022,-0.15884 -0.56829,-0.16201 -0.28669,0 -0.49046,0.0487 -0.6145,0.14809 -0.12467,0.0944 -0.18289,0.21138 -0.18923,0.34047 0.007,0.0842 0.0323,0.15758 0.0842,0.22403 0.0481,0.0651 0.12593,0.1234 0.23858,0.17087 0.0633,0.0209 0.24365,0.0779 0.54869,0.16074 0.44742,0.11898 0.75181,0.21771 0.93091,0.29491 0.17531,0.0747 0.31009,0.19112 0.41262,0.33667 0.10255,0.14239 0.14935,0.32213 0.14682,0.54362 0,0.21264 -0.0607,0.41263 -0.17909,0.60374 -0.12468,0.18543 -0.29935,0.33035 -0.5278,0.43413 -0.23226,0.10254 -0.49552,0.15315 -0.78346,0.15315 -0.48098,0.003 -0.8455,-0.10376 -1.09737,-0.30377 -0.25124,-0.20187 -0.40946,-0.50374 -0.48286,-0.90433 m -3.23703,-1.11761 2.05929,-0.002 c -0.0259,-0.31452 -0.10375,-0.55311 -0.23225,-0.70563 -0.19808,-0.25061 -0.46135,-0.36895 -0.77524,-0.36895 -0.28795,0 -0.53159,0.0949 -0.72524,0.2911 -0.19936,0.19746 -0.30757,0.45819 -0.32656,0.78538 m 2.05676,1.03281 0.64298,0.0779 c -0.1,0.3854 -0.28795,0.68663 -0.56514,0.89863 -0.27718,0.21201 -0.62777,0.31896 -1.05938,0.31896 -0.53792,0.003 -0.9689,-0.16707 -1.28406,-0.50565 -0.31642,-0.33984 -0.47211,-0.81447 -0.4759,-1.4258 0.007,-0.63412 0.16327,-1.12585 0.48224,-1.47392 0.31895,-0.35312 0.73789,-0.52842 1.24734,-0.52969 0.49553,0.001 0.89484,0.1715 1.21254,0.51452 0.31136,0.343 0.46704,0.8246 0.46451,1.44478 0,0.0398 0,0.0968 0,0.17023 l -2.75542,0.002 c 0.0209,0.41451 0.13859,0.73284 0.34237,0.94864 0.20757,0.22023 0.46324,0.3335 0.77397,0.3335 0.22593,-0.002 0.42527,-0.0645 0.58982,-0.18794 0.15948,-0.12151 0.28794,-0.3177 0.38666,-0.58603 m -6.49619,1.21697 0,-3.76418 0.56514,-0.001 0,0.53413 c 0.26959,-0.41135 0.66386,-0.61956 1.17646,-0.62019 0.22467,0 0.42781,0.0405 0.61324,0.11897 0.18795,0.0848 0.32971,0.19049 0.41894,0.32529 0.0937,0.13037 0.15821,0.28668 0.19555,0.46768 0.0235,0.11961 0.0374,0.32781 0.0374,0.62399 v 2.31052 l -0.63158,6.5e-4 0.007,-2.28776 c 0,-0.25884 -0.0284,-0.45312 -0.0728,-0.58286 -0.0468,-0.12909 -0.13606,-0.23225 -0.25821,-0.30882 -0.12466,-0.0765 -0.27085,-0.11455 -0.43603,-0.11455 -0.27085,0 -0.49678,0.0867 -0.69485,0.25884 -0.19429,0.1715 -0.28795,0.49931 -0.29048,0.98218 v 2.05297 l -0.62653,0.004 z m -3.55661,-1.88146 c 0,0.48287 0.10509,0.84549 0.3101,1.08408 0.20251,0.23985 0.46705,0.35946 0.77777,0.35946 0.31263,0.001 0.57083,-0.12277 0.78094,-0.36073 0.20251,-0.24238 0.30883,-0.6107 0.30756,-1.10368 0,-0.46326 -0.10509,-0.81828 -0.31263,-1.05877 -0.20504,-0.23921 -0.46324,-0.35756 -0.7765,-0.35819 -0.30756,0 -0.56704,0.11898 -0.77398,0.35756 -0.20694,0.24049 -0.31326,0.59742 -0.31326,1.08027 m -0.64107,0 c 0,-0.69549 0.18922,-1.21 0.57336,-1.54667 0.31642,-0.2772 0.70436,-0.42211 1.16065,-0.42211 0.50817,0 0.92079,0.17086 1.24607,0.51134 0.32276,0.33604 0.48097,0.80435 0.4797,1.40366 0,0.48223 -0.0677,0.86573 -0.2101,1.14292 -0.14492,0.27782 -0.35124,0.49551 -0.62653,0.6474 -0.27086,0.15441 -0.57209,0.231 -0.89358,0.231 -0.5145,0 -0.93472,-0.16961 -1.25304,-0.50502 -0.31833,-0.34047 -0.47653,-0.82776 -0.47653,-1.46252 m -1.34987,1.88526 0.007,-3.76355 0.62525,-0.003 -0.007,3.76418 -0.62525,0.003 z m 0.007,-4.46094 v -0.73538 l 0.62399,-0.001 0,0.73663 h -0.62525 z m -3.82051,3.34017 0.61957,-0.0993 c 0.031,0.2506 0.12846,0.44931 0.29047,0.58348 0.15568,0.13163 0.37717,0.19935 0.66386,0.19935 0.28668,0 0.50185,-0.0619 0.64172,-0.1791 0.13858,-0.1196 0.21009,-0.26136 0.21009,-0.41832 0,-0.14492 -0.0658,-0.25567 -0.18288,-0.34553 -0.0893,-0.0544 -0.30188,-0.1253 -0.64172,-0.21516 -0.45755,-0.11645 -0.78094,-0.21897 -0.95813,-0.3044 -0.17277,-0.0842 -0.30883,-0.20441 -0.40313,-0.3563 -0.0918,-0.15315 -0.13859,-0.3196 -0.13859,-0.50438 0,-0.1696 0.0386,-0.32149 0.11772,-0.46704 0.0716,-0.14493 0.17782,-0.26263 0.30882,-0.35567 0.0949,-0.0722 0.2272,-0.13479 0.39426,-0.18921 0.17088,-0.0513 0.35377,-0.0753 0.5449,-0.0753 0.28921,0 0.54107,0.0449 0.76384,0.12973 0.21896,0.0823 0.38097,0.19681 0.48349,0.34363 0.10376,0.14492 0.17657,0.34047 0.21138,0.58096 l -0.60818,0.0854 c -0.0311,-0.19301 -0.10763,-0.34299 -0.24237,-0.45122 -0.1348,-0.10763 -0.32149,-0.16327 -0.56387,-0.16327 -0.28921,0 -0.49299,0.0468 -0.61956,0.14493 -0.12215,0.0968 -0.18416,0.21263 -0.18416,0.3411 0,0.0835 0.0272,0.15822 0.0766,0.22276 0.0519,0.0697 0.131,0.12657 0.23858,0.17151 0.0645,0.0228 0.25189,0.0779 0.55248,0.1601 0.44616,0.12088 0.75879,0.2215 0.93092,0.29872 0.17277,0.0702 0.31137,0.18858 0.41009,0.33351 0.10375,0.14492 0.15188,0.32844 0.15188,0.54488 0,0.21263 -0.0633,0.41641 -0.18415,0.60248 -0.12341,0.18604 -0.29681,0.33287 -0.52653,0.43476 -0.22973,0.1032 -0.4892,0.15631 -0.78221,0.15631 -0.47969,0 -0.84422,-0.10122 -1.09419,-0.30377 -0.25757,-0.20567 -0.41578,-0.50817 -0.48097,-0.9056 m -1.33784,1.12204 0.008,-3.76229 h 0.63158 l -0.008,3.76101 -0.63159,0.001 z m 0.008,-4.46032 v -0.7322 l 0.62905,-6.5e-4 0,0.73285 h -0.63158 z m -5.88359,4.46601 0,-5.19442 1.01698,-0.002 1.20241,3.67812 c 0.11266,0.34111 0.19176,0.59995 0.24492,0.77334 0.0582,-0.19302 0.14935,-0.4702 0.27592,-0.83662 l 1.22393,-3.61484 h 0.9075 l -0.009,5.19316 h -0.64741 l 0,-4.34768 -1.48465,4.34957 h -0.61197 l -1.46821,-4.41854 -0.007,4.42044 h -0.64803 z m -5.52984,-2.23902 2.06182,-0.003 c -0.0298,-0.31326 -0.10376,-0.55058 -0.23225,-0.71132 -0.20125,-0.24239 -0.46198,-0.36768 -0.77778,-0.36768 -0.28793,0 -0.52779,0.0987 -0.72524,0.29616 -0.19934,0.19366 -0.3044,0.45692 -0.32655,0.786 m 2.05423,1.03092 0.64866,0.0804 c -0.1063,0.3854 -0.293,0.68348 -0.56955,0.89992 -0.27593,0.21199 -0.63159,0.31768 -1.05686,0.31832 -0.54109,-6.4e-4 -0.97269,-0.16834 -1.28911,-0.50945 -0.3139,-0.33604 -0.47084,-0.81321 -0.47084,-1.42517 0,-0.63349 0.16327,-1.12394 0.48349,-1.47644 0.31896,-0.34934 0.73537,-0.5221 1.24228,-0.52464 0.49553,0 0.89865,0.17278 1.21002,0.51452 0.31642,0.3411 0.47083,0.8246 0.47083,1.44352 0,0.0398 0,0.0974 -0.007,0.17087 h -2.75162 c 0.0196,0.41831 0.13479,0.73284 0.34237,0.95244 0.20125,0.21897 0.46324,0.32971 0.77144,0.32971 0.22403,0 0.42148,-0.0601 0.58348,-0.18795 0.16581,-0.12025 0.29555,-0.31643 0.39047,-0.58602 m -6.07851,-0.66259 c 0,0.48349 0.1,0.84295 0.3006,1.08154 0.20062,0.23859 0.43287,0.36135 0.7107,0.36135 0.26832,-0.003 0.50185,-0.11897 0.6898,-0.34807 0.19429,-0.22718 0.29174,-0.57398 0.29301,-1.04229 0,-0.51578 -0.0962,-0.89106 -0.29301,-1.13343 -0.19555,-0.24302 -0.43161,-0.36136 -0.71955,-0.36136 -0.27909,0 -0.5145,0.1177 -0.69614,0.34743 -0.18669,0.23352 -0.28541,0.59993 -0.28541,1.09483 m 1.97765,1.87576 0,-0.4702 c -0.23352,0.37084 -0.57462,0.55817 -1.03217,0.5569 -0.29428,10e-4 -0.56513,-0.0823 -0.80942,-0.24807 -0.25187,-0.16265 -0.43983,-0.39426 -0.57589,-0.69108 -0.1348,-0.29554 -0.20124,-0.63664 -0.20378,-1.02331 0,-0.37275 0.062,-0.71576 0.18543,-1.02143 0.12213,-0.30439 0.31009,-0.5436 0.55627,-0.70119 0.24492,-0.1658 0.51894,-0.24807 0.8246,-0.24934 0.2215,0.001 0.42149,0.0487 0.59425,0.14493 0.17404,0.093 0.31642,0.22275 0.42275,0.3759 l 0.007,-1.86753 h 0.62273 l -0.009,5.19505 h -0.58221 z m -5.97535,0.008 0.007,-5.19822 h 0.62399 l -0.007,5.19696 -0.62526,10e-4 z m -1.58592,-1.88779 c -0.22846,0.0944 -0.57083,0.17467 -1.02585,0.23986 -0.25567,0.0386 -0.4411,0.0816 -0.54741,0.12529 -0.1063,0.0525 -0.18669,0.11898 -0.24619,0.21201 -0.0557,0.0898 -0.0879,0.19303 -0.0854,0.30314 0,0.16961 0.0645,0.31009 0.18669,0.4221 0.12721,0.11519 0.31011,0.16961 0.55501,0.17024 0.24239,0 0.45755,-0.0538 0.64424,-0.16327 0.18796,-0.10442 0.32783,-0.25378 0.41642,-0.43793 0.0658,-0.14618 0.0975,-0.35883 0.0975,-0.63855 l 0.007,-0.23289 z m 0.0487,1.42392 c -0.23099,0.19808 -0.45501,0.343 -0.66892,0.42654 -0.21643,0.0816 -0.44742,0.1234 -0.6936,0.1234 -0.4044,0 -0.71702,-0.10121 -0.93662,-0.30313 -0.21644,-0.19935 -0.32275,-0.45882 -0.32275,-0.77397 0,-0.18417 0.0398,-0.35186 0.11961,-0.50629 0.0854,-0.15061 0.19428,-0.27592 0.32654,-0.36705 0.13354,-0.0924 0.28669,-0.16137 0.45249,-0.20567 0.12088,-0.0336 0.30377,-0.0677 0.55501,-0.0981 0.50691,-0.0619 0.87903,-0.13543 1.12014,-0.22213 0,-0.0854 0,-0.14429 0,-0.16517 0,-0.25884 -0.0582,-0.44362 -0.17783,-0.54678 -0.15947,-0.14809 -0.39806,-0.21833 -0.71321,-0.21833 -0.29049,0 -0.51071,0.0525 -0.65247,0.15694 -0.13733,0.10697 -0.24239,0.29364 -0.31263,0.55944 l -0.61197,-0.0823 c 0.0595,-0.26643 0.14936,-0.48477 0.27593,-0.64804 0.12594,-0.16517 0.31642,-0.293 0.55248,-0.38034 0.2449,-0.0874 0.52399,-0.13607 0.84295,-0.13607 0.31642,0 0.56957,0.0398 0.76511,0.11329 0.19998,0.0791 0.34364,0.1715 0.4354,0.28478 0.0987,0.11708 0.16075,0.2601 0.19998,0.43729 0.0158,0.10819 0.0284,0.30314 0.0284,0.58919 v 0.84738 c 0,0.59551 0.01,0.96952 0.0398,1.1252 0.0272,0.15569 0.0753,0.30757 0.15695,0.4525 l -0.65247,0.001 c -0.0721,-0.13163 -0.11006,-0.28669 -0.12973,-0.46388 m -6.37849,0.46768 0.007,-3.76293 h 0.5626 v 0.53476 c 0.27339,-0.41325 0.6626,-0.62525 1.17774,-0.62525 0.2215,0.003 0.42653,0.0424 0.61449,0.12594 0.18543,0.0848 0.32655,0.18858 0.41768,0.32211 0.0937,0.131 0.15821,0.28605 0.19555,0.46958 0.0235,0.11834 0.0361,0.32529 0.0361,0.62209 l -0.007,2.31306 h -0.62525 l 0,-2.29218 c 0,-0.25441 -0.0235,-0.45185 -0.074,-0.58095 -0.0481,-0.12847 -0.13607,-0.23163 -0.25567,-0.3063 -0.13226,-0.0791 -0.27213,-0.11582 -0.44109,-0.11582 -0.26581,0 -0.4968,0.0886 -0.68728,0.26074 -0.19681,0.1715 -0.29175,0.49615 -0.29301,0.97965 v 2.0555 h -0.63032 z m -3.54838,-1.87893 c -0.007,0.48286 0.1,0.84738 0.30314,1.08407 0.20884,0.23858 0.46957,0.35818 0.78093,0.35818 0.31263,0 0.56703,-0.12213 0.77777,-0.36198 0.20758,-0.24048 0.30884,-0.61007 0.30884,-1.10306 0,-0.46134 -0.10122,-0.81827 -0.30884,-1.05496 -0.21137,-0.24427 -0.4645,-0.36198 -0.77397,-0.36198 -0.31389,0 -0.57336,0.11834 -0.7784,0.36198 -0.20821,0.24048 -0.3082,0.59678 -0.30947,1.07775 m -0.64424,0 c 0,-0.69741 0.18669,-1.21255 0.56957,-1.54669 0.31642,-0.28161 0.70309,-0.42084 1.16191,-0.42275 0.50944,0 0.92459,0.17024 1.24735,0.51008 0.31895,0.33794 0.47969,0.80752 0.47969,1.40492 0,0.48604 -0.0689,0.86448 -0.21516,1.14104 -0.1424,0.27908 -0.34997,0.49552 -0.62146,0.65183 -0.27213,0.15062 -0.57083,0.22846 -0.89359,0.23036 -0.5164,-0.002 -0.93471,-0.17024 -1.25431,-0.50945 -0.31453,-0.3373 -0.474,-0.8208 -0.474,-1.45934 m -1.35049,1.88335 0,-3.76481 h 0.62905 l -0.007,3.76481 h -0.62525 z m 0,-4.46031 v -0.73411 l 0.62905,-0.002 0,0.736 h -0.62779 z m -1.15749,3.08134 0.61576,0.0848 c -0.0664,0.43034 -0.23604,0.77144 -0.51893,1.01256 -0.27719,0.24554 -0.6145,0.36958 -1.01951,0.36958 -0.50819,0.002 -0.91448,-0.17023 -1.21761,-0.50311 -0.31009,-0.33605 -0.46198,-0.8189 -0.46198,-1.44543 0,-0.40882 0.0645,-0.76637 0.19809,-1.07015 0.13099,-0.30376 0.3373,-0.53411 0.60816,-0.68663 0.26579,-0.15189 0.5626,-0.22846 0.88156,-0.22846 0.39933,0.001 0.72904,0.10066 0.98408,0.30946 0.25567,0.20821 0.41894,0.50058 0.49045,0.87965 l -0.60817,0.0987 c -0.0582,-0.25441 -0.16201,-0.4411 -0.30629,-0.5721 -0.14935,-0.12784 -0.32655,-0.19238 -0.5354,-0.19238 -0.31895,0 -0.57335,0.11644 -0.7727,0.34807 -0.19555,0.22972 -0.29806,0.5936 -0.29554,1.09229 0,0.50312 0.0949,0.87334 0.28542,1.10306 0.18796,0.23099 0.43856,0.34237 0.74296,0.34237 0.24871,0.003 0.45249,-0.0753 0.61957,-0.22783 0.16327,-0.15885 0.26705,-0.39426 0.31008,-0.71448 m -4.01921,-0.50628 c -0.22404,0.0968 -0.56831,0.17466 -1.01953,0.24174 -0.262,0.0398 -0.44362,0.0798 -0.54488,0.12721 -0.11018,0.0507 -0.19176,0.11834 -0.24618,0.21327 -0.062,0.0854 -0.0893,0.18922 -0.0893,0.29807 -0.006,0.17277 0.0619,0.31136 0.18796,0.42528 0.12721,0.1139 0.31136,0.17086 0.55502,0.17086 0.23984,0 0.45627,-0.0525 0.6455,-0.16201 0.18795,-0.10885 0.32655,-0.25441 0.41388,-0.4411 0.0677,-0.14491 0.1,-0.35755 0.1,-0.63791 l -0.002,-0.23541 z m 0.0519,1.4258 c -0.22846,0.20188 -0.45376,0.343 -0.66766,0.42717 -0.21516,0.0823 -0.44742,0.12152 -0.69486,0.12405 -0.40313,-0.003 -0.71449,-0.1 -0.93219,-0.3006 -0.22024,-0.20315 -0.32909,-0.46641 -0.33099,-0.77778 0,-0.18543 0.0442,-0.3506 0.12721,-0.50375 0.0816,-0.15188 0.1905,-0.27782 0.32149,-0.36768 0.13859,-0.0949 0.28668,-0.16581 0.45375,-0.20821 0.12341,-0.0336 0.30756,-0.0665 0.55628,-0.0968 0.50438,-0.0658 0.87903,-0.13669 1.11887,-0.22402 0.003,-0.0861 0.006,-0.14176 0.003,-0.1639 0.001,-0.25504 -0.0582,-0.44426 -0.1753,-0.54869 -0.16075,-0.14492 -0.40059,-0.21959 -0.71575,-0.21959 -0.29427,0.002 -0.5164,0.0544 -0.65246,0.16264 -0.14366,0.10376 -0.24618,0.28984 -0.31263,0.55691 l -0.61196,-0.083 c 0.0532,-0.26707 0.15061,-0.48731 0.27718,-0.64678 0.12594,-0.16643 0.31136,-0.29236 0.55247,-0.38287 0.23986,-0.0861 0.51768,-0.13353 0.83917,-0.13353 0.31642,0 0.56956,0.0393 0.76764,0.11518 0.19999,0.076 0.33984,0.16898 0.43731,0.28604 0.0937,0.11393 0.1582,0.25631 0.19554,0.4354 0.0171,0.10697 0.0272,0.30124 0.0272,0.58412 v 0.85182 c 0,0.59551 0.0133,0.96952 0.0417,1.12457 0.0247,0.15758 0.0791,0.30821 0.15567,0.44996 l -0.65245,0.003 c -0.0639,-0.131 -0.11075,-0.28541 -0.12912,-0.46452 m -7.48659,0.46895 0.007,-5.19379 h 0.6936 l 2.67505,4.07428 0.001,-4.07618 h 0.64867 l -10e-4,5.19316 h -0.69614 l -2.67378,-4.07935 -0.008,4.08188 h -0.64612 z m -5.60071,-1.87007 c 0,0.48096 0.1,0.83852 0.29808,1.08028 0.20503,0.23668 0.43729,0.35629 0.70942,0.35629 0.27212,0 0.50565,-0.11581 0.69613,-0.34301 0.19429,-0.22909 0.28668,-0.57589 0.28668,-1.04356 10e-4,-0.51641 -0.0924,-0.89485 -0.28921,-1.13471 -0.19555,-0.24237 -0.43541,-0.35945 -0.72208,-0.35945 -0.27465,0 -0.50818,0.11708 -0.6974,0.34806 -0.1848,0.23099 -0.28035,0.59552 -0.28162,1.0961 m 1.97891,1.8726 v -0.47084 c -0.23351,0.37085 -0.58095,0.55881 -1.03343,0.55944 -0.29428,-6.3e-4 -0.56261,-0.083 -0.81195,-0.24871 -0.24364,-0.16327 -0.43603,-0.39363 -0.57336,-0.69233 -0.1348,-0.29555 -0.20251,-0.63539 -0.20251,-1.02016 0,-0.3778 0.0619,-0.71955 0.18669,-1.02648 0.12214,-0.30439 0.3063,-0.53855 0.55628,-0.70183 0.24237,-0.162 0.51766,-0.24554 0.82459,-0.24554 0.2177,0 0.41895,0.0507 0.59425,0.14239 0.17277,0.0968 0.31136,0.22213 0.42274,0.37465 l 10e-4,-1.86374 0.62146,-6.3e-4 -0.001,5.19442 h -0.58476 z m -4.00087,-1.88463 c -0.22402,0.0962 -0.56702,0.17847 -1.01951,0.24365 -0.26073,0.0374 -0.43983,0.0798 -0.55248,0.12594 -0.10254,0.0507 -0.18542,0.11708 -0.24491,0.20884 -0.0544,0.0898 -0.0879,0.19175 -0.0879,0.30313 0,0.17151 0.0645,0.31074 0.19048,0.42465 0.12721,0.11075 0.3139,0.17023 0.55501,0.17023 0.24111,0 0.45882,-0.0525 0.64551,-0.1639 0.18542,-0.10509 0.32654,-0.25504 0.41135,-0.43983 0.069,-0.14303 0.10255,-0.35819 0.10255,-0.63666 v -0.23605 z m 0.052,1.42455 c -0.23099,0.19934 -0.45627,0.34237 -0.66893,0.42654 -0.21642,0.083 -0.44615,0.12594 -0.6898,0.12594 -0.40819,0 -0.72207,-0.10254 -0.94167,-0.30314 -0.21138,-0.20125 -0.32656,-0.46198 -0.32656,-0.77334 0,-0.18796 0.043,-0.35502 0.12848,-0.50691 0.0816,-0.14935 0.18796,-0.27656 0.32148,-0.36768 0.13734,-0.0924 0.28416,-0.16202 0.45376,-0.20884 0.11897,-0.0336 0.3063,-0.0677 0.55374,-0.0974 0.50691,-0.0614 0.88029,-0.1329 1.11761,-0.22087 0.006,-0.0893 0.008,-0.14365 0.008,-0.16328 0,-0.26135 -0.0582,-0.44615 -0.18036,-0.55247 -0.15948,-0.14428 -0.39807,-0.2158 -0.71323,-0.2158 -0.29427,6.3e-4 -0.51071,0.0544 -0.65372,0.15695 -0.13986,0.10818 -0.23986,0.2949 -0.31137,0.56197 l -0.6107,-0.0835 c 0.057,-0.26897 0.14555,-0.4854 0.27466,-0.65057 0.12847,-0.16265 0.31642,-0.29237 0.55628,-0.37718 0.24237,-0.0898 0.51893,-0.13669 0.83914,-0.13478 0.31263,0 0.56831,0.0361 0.7664,0.11327 0.19681,0.0753 0.34237,0.16834 0.43539,0.28478 0.0937,0.11391 0.15694,0.25947 0.19682,0.4354 0.0221,0.10885 0.0297,0.30377 0.0297,0.58791 v 0.84739 c 0,0.59551 0.0114,0.97016 0.0398,1.12584 0.0221,0.15821 0.0804,0.3082 0.15568,0.45249 l -0.65373,6.3e-4 c -0.0658,-0.13037 -0.10818,-0.28352 -0.12657,-0.46325 m -5.95609,-1.41125 c 0,0.48793 0.0962,0.84421 0.29807,1.08407 0.19999,0.23542 0.43287,0.35946 0.70689,0.35565 0.27339,0 0.50818,-0.11264 0.6974,-0.34173 0.19048,-0.22466 0.28921,-0.57462 0.28921,-1.0423 0,-0.51451 -0.0987,-0.89295 -0.29047,-1.13597 -0.19872,-0.24174 -0.4354,-0.36008 -0.72335,-0.36008 -0.28161,0 -0.51197,0.11771 -0.69866,0.34617 -0.18669,0.23351 -0.27909,0.59804 -0.27909,1.09419 m 1.97638,1.87892 0.003,-0.4759 c -0.23477,0.37402 -0.57968,0.56324 -1.03343,0.56324 -0.29933,0 -0.56704,-0.0823 -0.81448,-0.24682 -0.24744,-0.16769 -0.43729,-0.39741 -0.57209,-0.69233 -0.13861,-0.29744 -0.20758,-0.63854 -0.20758,-1.02711 0,-0.37211 0.0645,-0.71321 0.18796,-1.02395 0.12088,-0.3044 0.3101,-0.53792 0.55247,-0.69803 0.25061,-0.1658 0.52021,-0.24871 0.82841,-0.24934 0.22149,0 0.42021,0.0493 0.59551,0.14556 0.1715,0.0937 0.31389,0.21895 0.42527,0.37401 v -1.86755 l 0.62399,0.001 -0.006,5.19379 -0.58476,0.003 z m -3.97871,0.002 0.003,-3.75974 0.62777,-0.004 -0.003,3.76418 h -0.62778 z m 0.006,-4.46095 -10e-4,-0.73473 0.62905,-6.3e-4 v 0.73536 h -0.62779 z m -3.82304,3.34208 0.62272,-0.10188 c 0.0348,0.25567 0.12973,0.44806 0.28921,0.58222 0.15821,0.13606 0.3797,0.20441 0.66132,0.20441 0.29428,0 0.50439,-0.0626 0.64551,-0.18036 0.13734,-0.12087 0.21011,-0.2601 0.21011,-0.42084 -0.002,-0.14302 -0.0595,-0.25567 -0.18416,-0.3411 -0.0842,-0.057 -0.29934,-0.12657 -0.63918,-0.21518 -0.46008,-0.11835 -0.78093,-0.2177 -0.95812,-0.30567 -0.17531,-0.083 -0.31011,-0.20314 -0.40313,-0.35693 -0.0924,-0.1525 -0.13733,-0.31831 -0.13733,-0.50501 0,-0.16706 0.0398,-0.32212 0.11392,-0.46641 0.0716,-0.14429 0.17909,-0.26009 0.30502,-0.3563 0.1,-0.074 0.23353,-0.13541 0.39933,-0.18541 0.17278,-0.0532 0.34996,-0.0779 0.54616,-0.0779 0.28667,0 0.54107,0.0443 0.76131,0.131 0.2177,0.0816 0.38287,0.19682 0.48602,0.34237 0.10122,0.14493 0.17531,0.33922 0.21645,0.58159 l -0.61325,0.0886 c -0.0311,-0.19554 -0.10763,-0.34554 -0.2449,-0.45311 -0.13227,-0.10952 -0.31896,-0.16518 -0.5626,-0.16138 -0.29175,0 -0.49425,0.0456 -0.6183,0.14175 -0.12467,0.0981 -0.18416,0.21328 -0.18416,0.34111 0,0.0842 0.0259,0.15504 0.0804,0.2234 0.0493,0.0709 0.12593,0.1253 0.23353,0.17024 0.0633,0.0215 0.24996,0.0784 0.55373,0.16199 0.44363,0.11963 0.75246,0.21708 0.92839,0.29935 0.17657,0.0728 0.31136,0.18543 0.41388,0.33288 0.0987,0.14555 0.15062,0.32718 0.15062,0.54235 0,0.2101 -0.0619,0.41262 -0.18416,0.60184 -0.1234,0.18795 -0.29808,0.33604 -0.52906,0.43667 -0.23099,0.10309 -0.48792,0.15378 -0.77967,0.15378 -0.48223,0 -0.84802,-0.1 -1.09735,-0.30188 -0.25125,-0.20883 -0.41326,-0.5069 -0.48224,-0.90623 m -2.13269,1.12268 0.008,-3.75976 0.56133,-0.002 v 0.56766 c 0.14366,-0.2639 0.27782,-0.44045 0.39807,-0.52526 0.12024,-0.0848 0.2582,-0.12909 0.40312,-0.13037 0.21137,0.001 0.4278,0.0709 0.64297,0.20632 l -0.21137,0.59486 c -0.15948,-0.0962 -0.31009,-0.13985 -0.46324,-0.14111 -0.13733,0 -0.25947,0.043 -0.37085,0.1272 -0.10763,0.0854 -0.18669,0.19871 -0.23353,0.34744 -0.0702,0.22529 -0.10121,0.47779 -0.10121,0.74548 v 1.9688 h -0.63286 z m -3.47941,-2.23902 2.06308,-0.003 c -0.0272,-0.3158 -0.10509,-0.54995 -0.23605,-0.70626 -0.19998,-0.24808 -0.45501,-0.37023 -0.77524,-0.36896 -0.28921,-0.001 -0.52906,0.0981 -0.72904,0.29428 -0.19365,0.19491 -0.30124,0.45501 -0.32275,0.78473 m 2.05423,1.03028 0.6474,0.0829 c -0.10254,0.38287 -0.29174,0.68538 -0.56704,0.89486 -0.27718,0.21516 -0.62904,0.32211 -1.06064,0.32211 -0.54046,-0.002 -0.96763,-0.1715 -1.28279,-0.51071 -0.31642,-0.33414 -0.4721,-0.81384 -0.4721,-1.42581 0,-0.63474 0.15947,-1.12077 0.47843,-1.47263 0.32023,-0.3506 0.73663,-0.52653 1.24988,-0.52716 0.49171,-0.001 0.89484,0.17339 1.2062,0.51449 0.3139,0.34428 0.47338,0.82271 0.46958,1.44544 -0.001,0.0374 0,0.0949 -0.001,0.16897 l -2.75542,0.001 c 0.0196,0.41325 0.1348,0.73221 0.3411,0.95053 0.20759,0.22087 0.46452,0.32972 0.77272,0.32972 0.23098,0 0.42527,-0.0614 0.59108,-0.18606 0.16073,-0.1215 0.28794,-0.31895 0.38288,-0.58791 m -5.06469,1.21507 -1.40557,-3.76165 h 0.6588 l 0.79486,2.25294 c 0.0816,0.24364 0.16327,0.49868 0.23606,0.76005 0.0532,-0.19745 0.12972,-0.43793 0.23351,-0.71575 l 0.82081,-2.29914 0.64614,0.001 -1.40303,3.76165 -0.58158,6.3e-4 z m -2.61305,0 0.007,-3.75913 0.62652,-0.003 -0.002,3.76482 -0.63032,-0.003 z m 0.006,-4.45653 v -0.73599 h 0.62779 v 0.73599 h -0.62779 z m -3.97112,4.46096 0.006,-3.75849 h 0.56261 v 0.53096 c 0.27465,-0.41451 0.66132,-0.61829 1.17772,-0.62083 0.22404,0 0.42655,0.0405 0.60944,0.12024 0.18922,0.0835 0.32908,0.18923 0.42148,0.3253 0.0949,0.13226 0.15821,0.2873 0.19682,0.46767 0.0233,0.11771 0.0335,0.32781 0.0348,0.62146 l -0.001,2.30926 h -0.63159 l 0.006,-2.28584 c 0,-0.25695 -0.0247,-0.45187 -0.0728,-0.58287 -0.0468,-0.13036 -0.13481,-0.23035 -0.25822,-0.30693 -0.12466,-0.0765 -0.26832,-0.11455 -0.43602,-0.11455 -0.26833,0.002 -0.49805,0.0874 -0.69234,0.25885 -0.19555,0.17213 -0.28921,0.50058 -0.28921,0.98218 l -0.007,2.05359 h -0.62525 z m -1.71565,-5.1919 h 0.67841 v 3.00287 c -0.006,0.52084 -0.0645,0.93535 -0.17657,1.24482 -0.12339,0.30502 -0.32781,0.55438 -0.63537,0.74803 -0.30314,0.19238 -0.6974,0.28668 -1.19165,0.2892 -0.47718,0 -0.86764,-0.0842 -1.1733,-0.24933 -0.30314,-0.17024 -0.52021,-0.41136 -0.64867,-0.72841 -0.12848,-0.31833 -0.19555,-0.75309 -0.19429,-1.30368 v -3.00283 h 0.67841 l -0.003,3.00223 c 0,0.44869 0.043,0.78284 0.1234,0.9961 0.0804,0.21327 0.22402,0.37718 0.42654,0.49363 0.19872,0.1158 0.44743,0.17276 0.7341,0.17276 0.49805,0 0.85055,-0.11708 1.06447,-0.34174 0.20883,-0.23098 0.31135,-0.67334 0.31135,-1.32518 l 0.008,-2.99844 z"
         clip-path="none"
         inkscape:connector-curvature="0"
         style="fill:#000000" />
      <path
         id="path776"
         d="m 388.07367,141.67587 -0.0127,15.66491 h 2.62886 l 0.01,-15.61555 c 0.14492,-1.86565 -0.20632,-3.89582 -0.9999,-5.85955 -1.29038,1.9074 -1.65616,3.59331 -1.62643,5.81019 m -22.83062,-7.87201 c 2.67504,-3.55218 6.94551,-5.22164 10.24202,-5.12798 3.53256,-0.0645 8.68078,2.07259 11.15142,6.93034 0.45629,-0.88599 1.01383,-1.71439 1.65238,-2.45862 -2.59785,-4.01859 -7.11575,-7.21068 -12.90759,-7.22334 -4.03821,0.0184 -7.51761,1.54985 -10.1357,3.89329 l -0.002,3.98631 z m -5.16785,23.57551 2.62062,-0.002 0.006,-2.03208 c -0.6069,0.50058 -1.63908,1.1733 -2.62505,1.67389 v 0.36009 z m 31.78483,-19.8012 c 1.50428,-2.33205 4.19641,-3.51041 6.35063,-3.3427 3.57561,0.0709 6.73415,3.07121 7.15943,7.40432 l -0.0133,15.66744 2.62633,-0.003 0.0146,-15.61301 c -0.0247,-5.44061 -4.35843,-10.21797 -9.88827,-10.20785 -2.88008,0.009 -5.43617,1.18532 -7.24928,3.125 0.41896,0.95118 0.74994,1.94474 0.99991,2.96933 m -2.43774,-5.61906 c 2.5833,-2.29852 5.89119,-3.37688 8.55485,-3.30158 4.76471,-0.0854 12.45827,3.83254 12.59369,12.99682 l -0.0114,15.67123 2.62759,-0.003 0.009,-15.61553 c 0.0134,-0.89549 0.0272,-1.84665 -0.13227,-2.801 -1.02584,-6.23102 -6.76387,-12.97718 -15.18962,-12.99744 -4.03695,0.0158 -7.51382,1.54731 -10.13065,3.88949 0.61703,0.67461 1.17963,1.3986 1.67894,2.16118 m -24.16912,-4.2711 0.001,-1.70299 h 2.62633 l -0.002,0.0759 c -0.92585,0.45944 -1.80298,1.00686 -2.62506,1.62705 m -27.99026,-1.69477 2.62506,-0.002 -0.0127,15.68453 c 0.0361,8.98582 7.59293,13.1544 12.75317,12.99682 4.76599,0.0804 12.5013,-3.84773 12.65192,-13.01517 l 0.007,-0.18732 c 0.19302,-5.68804 4.5236,-9.94902 10.00787,-9.96863 5.52857,-0.0111 9.86738,4.76914 9.887,10.20975 l -0.0114,15.61426 -2.62633,0.003 0.01,-15.6706 c -0.42148,-4.33311 -3.58193,-7.33282 -7.15815,-7.40369 -3.17565,-0.24999 -7.52395,2.43267 -7.50749,7.41761 l -0.007,0.14746 c 0.37465,6.7797 -5.7374,15.56555 -15.36114,15.60351 -9.38895,-0.0284 -15.74718,-8.24158 -15.25861,-15.8269 v -15.60288 z m 27.99152,31.36272 2.62316,-0.003 0.007,-8.66307 c -0.66639,1.51694 -1.55112,2.93706 -2.62316,4.20718 l -0.007,4.45842 z m -5.19758,-23.27113 0.0127,-8.09666 h 2.62062 v 4.11669 c -1.04863,1.19925 -1.93398,2.53646 -2.63328,3.97997 m -17.28247,-8.09476 2.6238,-0.002 -0.0146,15.68325 c -0.0196,4.98622 4.32362,7.66 7.49926,7.4037 3.5756,-0.0791 6.73857,-3.07818 7.17018,-7.41699 l 0.002,-2.23585 c 0.3525,-2.43647 1.27203,-4.74068 2.62886,-6.72655 l -0.007,8.90545 c -0.0311,5.44186 -4.37173,10.2262 -9.90093,10.22493 -5.5735,-0.01 -9.95598,-4.40335 -10.0047,-10.23633 l 0.002,-15.59972 z"
         clip-rule="evenodd"
         clip-path="none"
         inkscape:connector-curvature="0"
         style="fill:#7b93c7;fill-rule:evenodd" />
      <polygon
         id="polygon778"
         points="969.389,755.487 968.158,755.487 968.182,728.7 969.402,728.7 "
         clip-rule="evenodd"
         clip-path="none"
         style="fill:#8e796f;fill-rule:evenodd"
         transform="matrix(0.63284875,0,0,0.63284875,-260.4058,-335.14845)" />
      <path
         id="path780"
         d="m 348.71238,126.55142 c -0.0879,-0.5683 0.67968,-0.71956 0.81069,-0.19999 0.15821,0.59298 0.38666,0.98851 0.97648,1.12901 0.56133,0.13669 1.14609,0.081 1.71818,0.081 l -0.002,0.18858 c -0.57463,0.0285 -1.14926,0.0417 -1.72578,0.01 -0.73411,-0.0475 -1.6473,-0.3563 -1.77704,-1.20875 m 7.94163,-0.008 c 0.0905,-0.56703 -0.68602,-0.72018 -0.82081,-0.19934 -0.15315,0.59298 -0.38098,0.9885 -0.96763,1.13406 -0.56134,0.13733 -1.14735,0.081 -1.72198,0.0823 l 0.001,0.18858 c 0.57589,0.0284 1.15178,0.0398 1.72577,0.003 0.73538,-0.0411 1.64731,-0.35438 1.78337,-1.2081 m 0.46452,1.9574 c 0.10376,-0.63855 -0.77398,-0.81068 -0.92207,-0.22656 -0.17277,0.67462 -0.43982,1.1214 -1.10368,1.28278 -0.63791,0.15695 -1.29798,0.093 -1.94791,0.0975 v 0.2101 c 0.64993,0.0323 1.3043,0.0443 1.95803,0.006 0.8303,-0.0493 1.86627,-0.40123 2.01563,-1.36948 m 0.39426,2.11308 c 0.10763,-0.70499 -0.85434,-0.89232 -1.01952,-0.24934 -0.19429,0.7436 -0.47843,1.23406 -1.21001,1.41062 -0.69929,0.17023 -1.42391,0.10443 -2.13965,0.10697 v 0.23035 c 0.71574,0.0361 1.42896,0.05 2.14851,0.007 0.91446,-0.0544 2.0517,-0.4411 2.22067,-1.50492 m -0.3968,2.37064 c 0.10122,-0.64233 -0.77524,-0.817 -0.92458,-0.22909 -0.17657,0.67336 -0.43605,1.12332 -1.10243,1.2847 -0.63792,0.15757 -1.29545,0.0942 -1.94537,0.0962 v 0.21326 c 0.65119,0.0272 1.30176,0.0437 1.95422,0.003 0.8341,-0.05 1.86627,-0.40375 2.01816,-1.36822 m -8.87824,0.006 c -0.10122,-0.64234 0.77524,-0.8151 0.92966,-0.22719 0.17277,0.67018 0.43287,1.1214 1.0942,1.28151 0.6417,0.15569 1.29924,0.0924 1.95044,0.0924 v 0.21327 c -0.65248,0.0323 -1.3043,0.0462 -1.95678,0.008 -0.82965,-0.0487 -1.86563,-0.40249 -2.01752,-1.36759 m -0.39173,-2.36875 c -0.10885,-0.70183 0.85562,-0.89422 1.02079,-0.24744 0.19176,0.73854 0.4759,1.23026 1.20621,1.40618 0.70056,0.17341 1.4277,0.10066 2.13966,0.10509 v 0.22847 c -0.71575,0.0367 -1.43403,0.0532 -2.15042,0.0126 -0.91131,-0.0576 -2.05044,-0.44173 -2.21624,-1.50492 m 0.39173,-2.11434 c -0.0962,-0.6398 0.77968,-0.81132 0.92966,-0.22782 0.17656,0.67524 0.43287,1.12077 1.09736,1.28531 0.63791,0.15441 1.29798,0.0905 1.95043,0.0924 l -0.002,0.21075 c -0.65247,0.0323 -1.30303,0.0468 -1.95677,0.007 -0.82903,-0.0487 -1.86374,-0.39806 -2.01816,-1.36695"
         clip-rule="evenodd"
         clip-path="none"
         inkscape:connector-curvature="0"
         style="fill:#008a38;fill-rule:evenodd" />
    </g>
  </g>
</svg>
